RecursiveSans-CasualRegularItalic.ufo
<glyph name="exclam" format="1">
  <advance width="350"/>
  <unicode hex="0021"/>
  <outline>
    <contour>
      <point x="208" y="256" type="line"/>
      <point x="236" y="330"/>
      <point x="265" y="415"/>
      <point x="283" y="488" type="curve"/>
      <point x="326" y="661" type="line" smooth="yes"/>
      <point x="335" y="697"/>
      <point x="313" y="710"/>
      <point x="261" y="710" type="curve" smooth="yes"/>
      <point x="247" y="710"/>
      <point x="236" y="709"/>
      <point x="224" y="706" type="curve"/>
      <point x="222" y="670"/>
      <point x="215" y="635"/>
      <point x="206" y="597" type="curve" smooth="yes"/>
      <point x="179" y="490" type="line"/>
      <point x="152" y="382"/>
      <point x="136" y="289"/>
      <point x="148" y="273" type="curve" smooth="yes"/>
      <point x="157" y="261"/>
      <point x="176" y="256"/>
      <point x="200" y="256" type="curve"/>
    </contour>
    <contour>
      <point x="185" y="5" type="curve"/>
      <point x="206" y="90" type="line" smooth="yes"/>
      <point x="217" y="133"/>
      <point x="184" y="150"/>
      <point x="131" y="150" type="curve" smooth="yes"/>
      <point x="108" y="150"/>
      <point x="87" y="146"/>
      <point x="68" y="139" type="curve"/>
      <point x="47" y="53" type="line" smooth="yes"/>
      <point x="36" y="10"/>
      <point x="69" y="-7"/>
      <point x="123" y="-7" type="curve" smooth="yes"/>
      <point x="145" y="-7"/>
      <point x="166" y="-3"/>
    </contour>
  </outline>
</glyph>
<glyph name="quotedbl" format="1">
  <advance width="600"/>
  <unicode hex="0022"/>
  <outline>
    <contour>
      <point x="271" y="441" type="curve"/>
      <point x="341" y="675" type="line" smooth="yes"/>
      <point x="358" y="728"/>
      <point x="338" y="754"/>
      <point x="279" y="754" type="curve" smooth="yes"/>
      <point x="263" y="754"/>
      <point x="251" y="752"/>
      <point x="242" y="750" type="curve"/>
      <point x="244" y="726"/>
      <point x="243" y="712"/>
      <point x="232" y="657" type="curve" smooth="yes"/>
      <point x="198" y="481" type="line" smooth="yes"/>
      <point x="192" y="450"/>
      <point x="205" y="439"/>
      <point x="247" y="439" type="curve" smooth="yes"/>
      <point x="256" y="439"/>
      <point x="264" y="439"/>
    </contour>
    <contour>
      <point x="498" y="441" type="curve"/>
      <point x="566" y="667" type="line" smooth="yes"/>
      <point x="585" y="728"/>
      <point x="566" y="754"/>
      <point x="508" y="754" type="curve" smooth="yes"/>
      <point x="497" y="754"/>
      <point x="488" y="753"/>
      <point x="477" y="750" type="curve"/>
      <point x="425" y="481" type="line"/>
      <point x="419" y="450"/>
      <point x="432" y="439"/>
      <point x="474" y="439" type="curve" smooth="yes"/>
      <point x="483" y="439"/>
      <point x="491" y="439"/>
    </contour>
  </outline>
</glyph>
<glyph name="ampersand" format="1">
  <advance width="600"/>
  <unicode hex="0026"/>
  <outline>
    <contour>
      <point x="431" y="710" type="curve" smooth="yes"/>
      <point x="311" y="710"/>
      <point x="207" y="632"/>
      <point x="183" y="536" type="curve" smooth="yes"/>
      <point x="176" y="509"/>
      <point x="186" y="475"/>
      <point x="235" y="475" type="curve"/>
      <point x="235" y="488"/>
      <point x="237" y="496"/>
      <point x="241" y="512" type="curve" smooth="yes"/>
      <point x="257" y="576"/>
      <point x="325" y="628"/>
      <point x="411" y="628" type="curve" smooth="yes"/>
      <point x="477" y="628"/>
      <point x="517" y="613"/>
      <point x="543" y="587" type="curve"/>
      <point x="547" y="587" type="line"/>
      <point x="553" y="597"/>
      <point x="558" y="608"/>
      <point x="562" y="622" type="curve"/>
      <point x="567" y="646"/>
      <point x="567" y="665"/>
      <point x="557" y="678" type="curve" smooth="yes"/>
      <point x="543" y="697"/>
      <point x="502" y="710"/>
    </contour>
    <contour>
      <point x="267" y="364" type="curve" smooth="yes"/>
      <point x="250" y="427"/>
      <point x="249" y="488"/>
      <point x="260" y="532" type="curve" smooth="yes"/>
      <point x="268" y="566"/>
      <point x="280" y="590"/>
      <point x="305" y="620" type="curve"/>
      <point x="259" y="635"/>
      <point x="197" y="591"/>
      <point x="183" y="536" type="curve" smooth="yes"/>
      <point x="182" y="533" type="line" smooth="yes"/>
      <point x="168" y="475"/>
      <point x="174" y="407"/>
      <point x="193" y="337" type="curve" smooth="yes"/>
      <point x="219" y="242"/>
      <point x="268" y="145"/>
      <point x="320" y="77" type="curve" smooth="yes"/>
      <point x="368" y="12"/>
      <point x="407" y="-10"/>
      <point x="447" y="-10" type="curve" smooth="yes"/>
      <point x="451" y="-10" type="line" smooth="yes"/>
      <point x="488" y="-10"/>
      <point x="508" y="10"/>
      <point x="518" y="50" type="curve" smooth="yes"/>
      <point x="522" y="66"/>
      <point x="524" y="80"/>
      <point x="524" y="91" type="curve"/>
      <point x="520" y="91" type="line"/>
      <point x="506" y="79"/>
      <point x="492" y="74"/>
      <point x="472" y="74" type="curve" smooth="yes"/>
      <point x="441" y="74"/>
      <point x="406" y="98"/>
      <point x="378" y="136" type="curve" smooth="yes"/>
      <point x="327" y="204"/>
      <point x="287" y="288"/>
    </contour>
    <contour>
      <point x="143" y="-10" type="curve" smooth="yes"/>
      <point x="230" y="-10"/>
      <point x="290" y="24"/>
      <point x="336" y="74" type="curve" smooth="yes"/>
      <point x="348" y="87"/>
      <point x="341" y="113"/>
      <point x="320" y="127" type="curve"/>
      <point x="272" y="83"/>
      <point x="233" y="65"/>
      <point x="170" y="65" type="curve" smooth="yes"/>
      <point x="101" y="65"/>
      <point x="76" y="114"/>
      <point x="92" y="176" type="curve" smooth="yes"/>
      <point x="93" y="179" type="line" smooth="yes"/>
      <point x="111" y="251"/>
      <point x="167" y="286"/>
      <point x="238" y="301" type="curve"/>
      <point x="237" y="321"/>
      <point x="233" y="359"/>
      <point x="206" y="353" type="curve" smooth="yes"/>
      <point x="134" y="336"/>
      <point x="40" y="280"/>
      <point x="12" y="166" type="curve" smooth="yes"/>
      <point x="11" y="163" type="line" smooth="yes"/>
      <point x="-14" y="63"/>
      <point x="30" y="-10"/>
    </contour>
    <contour>
      <point x="485" y="393" type="curve" smooth="yes"/>
      <point x="477" y="393"/>
      <point x="471" y="392"/>
      <point x="467" y="391" type="curve"/>
      <point x="464" y="381"/>
      <point x="461" y="371"/>
      <point x="459" y="359" type="curve" smooth="yes"/>
      <point x="438" y="277"/>
      <point x="406" y="217"/>
      <point x="348" y="155" type="curve" smooth="yes"/>
      <point x="332" y="138"/>
      <point x="352" y="116"/>
      <point x="378" y="110" type="curve"/>
      <point x="467" y="190"/>
      <point x="518" y="268"/>
      <point x="537" y="342" type="curve" smooth="yes"/>
      <point x="540" y="355" type="line" smooth="yes"/>
      <point x="546" y="380"/>
      <point x="527" y="393"/>
    </contour>
  </outline>
</glyph>
<glyph name="quotesingle" format="1">
  <advance width="250"/>
  <unicode hex="0027"/>
  <outline>
    <contour>
      <point x="217" y="441" type="curve"/>
      <point x="284" y="667" type="line" smooth="yes"/>
      <point x="303" y="728"/>
      <point x="284" y="754"/>
      <point x="221" y="754" type="curve" smooth="yes"/>
      <point x="209" y="754"/>
      <point x="197" y="752"/>
      <point x="187" y="750" type="curve"/>
      <point x="189" y="726"/>
      <point x="188" y="712"/>
      <point x="177" y="657" type="curve" smooth="yes"/>
      <point x="143" y="481" type="line" smooth="yes"/>
      <point x="137" y="450"/>
      <point x="150" y="439"/>
      <point x="192" y="439" type="curve" smooth="yes"/>
      <point x="201" y="439"/>
      <point x="209" y="439"/>
    </contour>
  </outline>
</glyph>
<glyph name="parenleft" format="1">
  <advance width="400"/>
  <unicode hex="0028"/>
  <outline>
    <contour>
      <point x="405" y="745" type="curve" smooth="yes"/>
      <point x="267" y="635"/>
      <point x="167" y="480"/>
      <point x="122" y="302" type="curve" smooth="yes"/>
      <point x="121" y="296" type="line" smooth="yes"/>
      <point x="76" y="118"/>
      <point x="99" y="-38"/>
      <point x="182" y="-148" type="curve" smooth="yes"/>
      <point x="195" y="-165"/>
      <point x="208" y="-172"/>
      <point x="227" y="-172" type="curve" smooth="yes"/>
      <point x="255" y="-172"/>
      <point x="278" y="-164"/>
      <point x="296" y="-153" type="curve"/>
      <point x="297" y="-149" type="line"/>
      <point x="191" y="-29"/>
      <point x="166" y="124"/>
      <point x="209" y="296" type="curve" smooth="yes"/>
      <point x="211" y="302" type="line" smooth="yes"/>
      <point x="253" y="472"/>
      <point x="355" y="627"/>
      <point x="521" y="747" type="curve"/>
      <point x="522" y="751" type="line"/>
      <point x="509" y="761"/>
      <point x="491" y="770"/>
      <point x="462" y="770" type="curve" smooth="yes"/>
      <point x="444" y="770"/>
      <point x="427" y="763"/>
    </contour>
  </outline>
</glyph>
<glyph name="parenright" format="1">
  <advance width="400"/>
  <unicode hex="0029"/>
  <outline>
    <contour>
      <point x="12" y="-146" type="curve" smooth="yes"/>
      <point x="150" y="-36"/>
      <point x="250" y="119"/>
      <point x="295" y="297" type="curve" smooth="yes"/>
      <point x="296" y="303" type="line" smooth="yes"/>
      <point x="341" y="481"/>
      <point x="318" y="636"/>
      <point x="235" y="747" type="curve" smooth="yes"/>
      <point x="222" y="764"/>
      <point x="209" y="771"/>
      <point x="190" y="771" type="curve" smooth="yes"/>
      <point x="162" y="771"/>
      <point x="139" y="763"/>
      <point x="121" y="752" type="curve"/>
      <point x="120" y="748" type="line"/>
      <point x="226" y="628"/>
      <point x="251" y="475"/>
      <point x="208" y="303" type="curve" smooth="yes"/>
      <point x="207" y="297" type="line" smooth="yes"/>
      <point x="164" y="126"/>
      <point x="62" y="-28"/>
      <point x="-104" y="-148" type="curve"/>
      <point x="-105" y="-152" type="line"/>
      <point x="-92" y="-162"/>
      <point x="-74" y="-171"/>
      <point x="-45" y="-171" type="curve" smooth="yes"/>
      <point x="-27" y="-171"/>
      <point x="-10" y="-164"/>
    </contour>
  </outline>
</glyph>
<glyph name="asterisk" format="1">
  <advance width="500"/>
  <unicode hex="002A"/>
  <outline>
    <contour>
      <point x="335" y="765" type="curve"/>
      <point x="336" y="748"/>
      <point x="337" y="734"/>
      <point x="333" y="711" type="curve" smooth="yes"/>
      <point x="306" y="556" type="line"/>
      <point x="251" y="405" type="line" smooth="yes"/>
      <point x="234" y="365"/>
      <point x="241" y="343"/>
      <point x="281" y="343" type="curve"/>
      <point x="290" y="343"/>
      <point x="301" y="344"/>
      <point x="311" y="348" type="curve"/>
      <point x="309" y="364"/>
      <point x="309" y="379"/>
      <point x="312" y="401" type="curve" smooth="yes"/>
      <point x="340" y="556" type="line"/>
      <point x="395" y="707" type="line" smooth="yes"/>
      <point x="411" y="748"/>
      <point x="405" y="770"/>
      <point x="365" y="770" type="curve" smooth="yes"/>
      <point x="355" y="769"/>
      <point x="346" y="768"/>
    </contour>
    <contour>
      <point x="522" y="691" type="curve"/>
      <point x="316" y="572" type="line"/>
      <point x="135" y="497" type="line" smooth="yes"/>
      <point x="115" y="489"/>
      <point x="106" y="466"/>
      <point x="114" y="444" type="curve"/>
      <point x="117" y="436"/>
      <point x="121" y="430"/>
      <point x="125" y="423" type="curve"/>
      <point x="331" y="543" type="line"/>
      <point x="512" y="619" type="line" smooth="yes"/>
      <point x="533" y="627"/>
      <point x="540" y="647"/>
      <point x="533" y="670" type="curve" smooth="yes"/>
      <point x="530" y="677"/>
      <point x="528" y="684"/>
    </contour>
    <contour>
      <point x="503" y="482" type="curve"/>
      <point x="338" y="571" type="line"/>
      <point x="213" y="675" type="line" smooth="yes"/>
      <point x="199" y="687"/>
      <point x="179" y="680"/>
      <point x="159" y="658" type="curve"/>
      <point x="153" y="651"/>
      <point x="148" y="641"/>
      <point x="143" y="633" type="curve"/>
      <point x="307" y="542" type="line"/>
      <point x="432" y="439" type="line" smooth="yes"/>
      <point x="447" y="426"/>
      <point x="466" y="434"/>
      <point x="486" y="457" type="curve"/>
      <point x="493" y="466"/>
      <point x="497" y="472"/>
    </contour>
  </outline>
</glyph>
<glyph name="plus" format="1">
  <advance width="600"/>
  <unicode hex="002B"/>
  <outline>
    <contour>
      <point x="75" y="341" type="line"/>
      <point x="74" y="337"/>
      <point x="73" y="332"/>
      <point x="72" y="328" type="curve" smooth="yes"/>
      <point x="65" y="298"/>
      <point x="65" y="280"/>
      <point x="73" y="269" type="curve" smooth="yes"/>
      <point x="78" y="262"/>
      <point x="87" y="259"/>
      <point x="104" y="259" type="curve"/>
      <point x="543" y="259" type="line"/>
      <point x="546" y="268"/>
      <point x="550" y="278"/>
      <point x="552" y="286" type="curve" smooth="yes"/>
      <point x="561" y="322"/>
      <point x="557" y="341"/>
      <point x="527" y="341" type="curve"/>
    </contour>
    <contour>
      <point x="289" y="59" type="curve"/>
      <point x="389" y="456" type="line" smooth="yes"/>
      <point x="397" y="491"/>
      <point x="399" y="511"/>
      <point x="388" y="526" type="curve" smooth="yes"/>
      <point x="378" y="540"/>
      <point x="359" y="543"/>
      <point x="342" y="543" type="curve" smooth="yes"/>
      <point x="334" y="543"/>
      <point x="325" y="542"/>
      <point x="317" y="540" type="curve"/>
      <point x="318" y="510"/>
      <point x="316" y="491"/>
      <point x="305" y="447" type="curve" smooth="yes"/>
      <point x="216" y="92" type="line" smooth="yes"/>
      <point x="209" y="63"/>
      <point x="231" y="57"/>
      <point x="264" y="57" type="curve" smooth="yes"/>
      <point x="273" y="57"/>
      <point x="282" y="57"/>
    </contour>
  </outline>
</glyph>
<glyph name="comma" format="1">
  <advance width="350"/>
  <unicode hex="002C"/>
  <outline>
    <contour>
      <point x="25" y="-193" type="curve" smooth="yes"/>
      <point x="40" y="-193"/>
      <point x="48" y="-191"/>
      <point x="57" y="-183" type="curve"/>
      <point x="123" y="-131"/>
      <point x="198" y="-26"/>
      <point x="227" y="93" type="curve"/>
      <point x="237" y="129"/>
      <point x="212" y="141"/>
      <point x="170" y="141" type="curve" smooth="yes"/>
      <point x="152" y="141"/>
      <point x="139" y="139"/>
      <point x="122" y="134" type="curve"/>
      <point x="86" y="-11"/>
      <point x="48" y="-84"/>
      <point x="-31" y="-175" type="curve"/>
      <point x="-15" y="-188"/>
      <point x="-1" y="-193"/>
    </contour>
  </outline>
</glyph>
<glyph name="hyphen" format="1">
  <advance width="600"/>
  <unicode hex="002D"/>
  <outline>
    <contour>
      <point x="126" y="340" type="line"/>
      <point x="125" y="336"/>
      <point x="124" y="332"/>
      <point x="122" y="328" type="curve" smooth="yes"/>
      <point x="115" y="298"/>
      <point x="115" y="280"/>
      <point x="123" y="269" type="curve" smooth="yes"/>
      <point x="129" y="262"/>
      <point x="137" y="259"/>
      <point x="155" y="259" type="curve"/>
      <point x="493" y="259" type="line"/>
      <point x="497" y="268"/>
      <point x="500" y="278"/>
      <point x="502" y="286" type="curve" smooth="yes"/>
      <point x="511" y="321"/>
      <point x="507" y="340"/>
      <point x="477" y="340" type="curve"/>
    </contour>
  </outline>
</glyph>
<glyph name="period" format="1">
  <advance width="300"/>
  <unicode hex="002E"/>
  <outline>
    <contour>
      <point x="160" y="5" type="curve"/>
      <point x="181" y="90" type="line" smooth="yes"/>
      <point x="192" y="133"/>
      <point x="159" y="150"/>
      <point x="106" y="150" type="curve" smooth="yes"/>
      <point x="83" y="150"/>
      <point x="62" y="146"/>
      <point x="43" y="139" type="curve"/>
      <point x="22" y="53" type="line" smooth="yes"/>
      <point x="11" y="10"/>
      <point x="44" y="-7"/>
      <point x="98" y="-7" type="curve" smooth="yes"/>
      <point x="120" y="-7"/>
      <point x="141" y="-3"/>
    </contour>
  </outline>
</glyph>
<glyph name="slash" format="1">
  <advance width="600"/>
  <unicode hex="002F"/>
  <outline>
    <contour>
      <point x="653" y="750" type="curve"/>
      <point x="642" y="757"/>
      <point x="632" y="760"/>
      <point x="617" y="760" type="curve" smooth="yes"/>
      <point x="589" y="760"/>
      <point x="563" y="751"/>
      <point x="550" y="725" type="curve" smooth="yes"/>
      <point x="410" y="444"/>
      <point x="244" y="184"/>
      <point x="51" y="-52" type="curve" smooth="yes"/>
      <point x="25" y="-84"/>
      <point x="5" y="-106"/>
      <point x="-20" y="-127" type="curve"/>
      <point x="-7" y="-134"/>
      <point x="6" y="-138"/>
      <point x="24" y="-138" type="curve" smooth="yes"/>
      <point x="55" y="-138"/>
      <point x="81" y="-126"/>
      <point x="107" y="-95" type="curve"/>
      <point x="315" y="149"/>
      <point x="497" y="431"/>
    </contour>
  </outline>
</glyph>
<glyph name="zero" format="1">
  <advance width="600"/>
  <unicode hex="0030"/>
  <outline>
    <contour>
      <point x="408" y="720" type="curve" smooth="yes"/>
      <point x="275" y="720"/>
      <point x="153" y="614"/>
      <point x="96" y="380" type="curve" smooth="yes"/>
      <point x="85" y="333" type="line" smooth="yes"/>
      <point x="32" y="118"/>
      <point x="96" y="-20"/>
      <point x="234" y="-20" type="curve"/>
      <point x="261" y="-20"/>
      <point x="278" y="4"/>
      <point x="285" y="30" type="curve"/>
      <point x="133" y="44"/>
      <point x="133" y="194"/>
      <point x="164" y="324" type="curve" smooth="yes"/>
      <point x="174" y="368" type="line" smooth="yes"/>
      <point x="214" y="533"/>
      <point x="290" y="641"/>
      <point x="399" y="641" type="curve" smooth="yes"/>
      <point x="441" y="641"/>
      <point x="473" y="631"/>
      <point x="501" y="613" type="curve"/>
      <point x="525" y="646"/>
      <point x="482" y="720"/>
    </contour>
    <contour>
      <point x="234" y="-20" type="curve" smooth="yes"/>
      <point x="368" y="-20"/>
      <point x="487" y="83"/>
      <point x="542" y="309" type="curve" smooth="yes"/>
      <point x="554" y="356" type="line" smooth="yes"/>
      <point x="609" y="582"/>
      <point x="547" y="720"/>
      <point x="408" y="720" type="curve"/>
      <point x="382" y="720"/>
      <point x="364" y="696"/>
      <point x="358" y="670" type="curve"/>
      <point x="510" y="656"/>
      <point x="510" y="504"/>
      <point x="475" y="363" type="curve" smooth="yes"/>
      <point x="464" y="319" type="line" smooth="yes"/>
      <point x="425" y="164"/>
      <point x="353" y="59"/>
      <point x="245" y="59" type="curve" smooth="yes"/>
      <point x="202" y="59"/>
      <point x="167" y="68"/>
      <point x="138" y="89" type="curve"/>
      <point x="114" y="51"/>
      <point x="163" y="-20"/>
    </contour>
  </outline>
</glyph>
<glyph name="one" format="1">
  <advance width="600"/>
  <unicode hex="0031"/>
  <outline>
    <contour>
      <point x="322" y="40" type="curve"/>
      <point x="376" y="254"/>
      <point x="429" y="468"/>
      <point x="483" y="680" type="curve" smooth="yes"/>
      <point x="488" y="703"/>
      <point x="460" y="710"/>
      <point x="424" y="710" type="curve" smooth="yes"/>
      <point x="409" y="710" type="line"/>
      <point x="361" y="522"/>
      <point x="313" y="327"/>
      <point x="266" y="138" type="curve" smooth="yes"/>
      <point x="248" y="68"/>
      <point x="272" y="40"/>
    </contour>
    <contour>
      <point x="36" y="80" type="line"/>
      <point x="34" y="75"/>
      <point x="31" y="70"/>
      <point x="30" y="63" type="curve" smooth="yes"/>
      <point x="23" y="37"/>
      <point x="24" y="22"/>
      <point x="31" y="11" type="curve" smooth="yes"/>
      <point x="38" y="3"/>
      <point x="46" y="0"/>
      <point x="67" y="0" type="curve" smooth="yes"/>
      <point x="491" y="0" type="line"/>
      <point x="494" y="6"/>
      <point x="497" y="13"/>
      <point x="498" y="19" type="curve" smooth="yes"/>
      <point x="507" y="54"/>
      <point x="438" y="80"/>
      <point x="318" y="80" type="curve" smooth="yes"/>
    </contour>
    <contour>
      <point x="170" y="456" type="curve" smooth="yes"/>
      <point x="196" y="456"/>
      <point x="260" y="493"/>
      <point x="308" y="531" type="curve" smooth="yes"/>
      <point x="361" y="574"/>
      <point x="413" y="636"/>
      <point x="423" y="673" type="curve" smooth="yes"/>
      <point x="428" y="697"/>
      <point x="421" y="710"/>
      <point x="412" y="710" type="curve"/>
      <point x="389" y="710" type="line"/>
      <point x="359" y="675"/>
      <point x="330" y="645"/>
      <point x="291" y="613" type="curve"/>
      <point x="243" y="576"/>
      <point x="203" y="552"/>
      <point x="157" y="532" type="curve"/>
      <point x="153" y="520" type="line" smooth="yes"/>
      <point x="141" y="476"/>
      <point x="156" y="456"/>
    </contour>
  </outline>
</glyph>
<glyph name="two" format="1">
  <advance width="600"/>
  <unicode hex="0032"/>
  <outline>
    <contour>
      <point x="473" y="651" type="curve"/>
      <point x="499" y="612"/>
      <point x="512" y="577"/>
      <point x="499" y="524" type="curve" smooth="yes"/>
      <point x="479" y="444"/>
      <point x="419" y="386"/>
      <point x="273" y="307" type="curve" smooth="yes"/>
      <point x="114" y="221"/>
      <point x="41" y="161"/>
      <point x="17" y="65" type="curve" smooth="yes"/>
      <point x="12" y="46"/>
      <point x="34" y="39"/>
      <point x="87" y="39" type="curve"/>
      <point x="107" y="120"/>
      <point x="149" y="158"/>
      <point x="327" y="252" type="curve" smooth="yes"/>
      <point x="471" y="329"/>
      <point x="552" y="393"/>
      <point x="580" y="507" type="curve" smooth="yes"/>
      <point x="583" y="517" type="line" smooth="yes"/>
      <point x="602" y="597"/>
      <point x="557" y="679"/>
    </contour>
    <contour>
      <point x="465" y="0" type="line"/>
      <point x="468" y="8"/>
      <point x="472" y="18"/>
      <point x="474" y="27" type="curve" smooth="yes"/>
      <point x="482" y="61"/>
      <point x="478" y="80"/>
      <point x="448" y="80" type="curve" smooth="yes"/>
      <point x="103" y="80" type="line" smooth="yes"/>
      <point x="70" y="80"/>
      <point x="44" y="77"/>
      <point x="17" y="65" type="curve"/>
      <point x="17" y="63"/>
      <point x="16" y="62"/>
      <point x="16" y="61" type="curve" smooth="yes"/>
      <point x="9" y="36"/>
      <point x="19" y="0"/>
      <point x="39" y="0" type="curve" smooth="yes"/>
    </contour>
    <contour>
      <point x="414" y="720" type="curve" smooth="yes"/>
      <point x="338" y="720"/>
      <point x="278" y="705"/>
      <point x="234" y="670" type="curve" smooth="yes"/>
      <point x="197" y="641"/>
      <point x="170" y="605"/>
      <point x="160" y="566" type="curve" smooth="yes"/>
      <point x="155" y="544"/>
      <point x="163" y="519"/>
      <point x="172" y="506" type="curve"/>
      <point x="177" y="506" type="line"/>
      <point x="232" y="597"/>
      <point x="303" y="640"/>
      <point x="396" y="640" type="curve" smooth="yes"/>
      <point x="495" y="640"/>
      <point x="544" y="586"/>
      <point x="528" y="522" type="curve" smooth="yes"/>
      <point x="523" y="502"/>
      <point x="516" y="483"/>
      <point x="506" y="463" type="curve"/>
      <point x="540" y="463"/>
      <point x="574" y="485"/>
      <point x="583" y="517" type="curve" smooth="yes"/>
      <point x="613" y="638"/>
      <point x="539" y="720"/>
    </contour>
  </outline>
</glyph>
<glyph name="three" format="1">
  <advance width="600"/>
  <unicode hex="0033"/>
  <outline>
    <contour>
      <point x="380" y="640" type="curve" smooth="yes"/>
      <point x="504" y="640"/>
      <point x="541" y="571"/>
      <point x="519" y="482" type="curve" smooth="yes"/>
      <point x="517" y="471"/>
      <point x="513" y="460"/>
      <point x="507" y="448" type="curve"/>
      <point x="532" y="448"/>
      <point x="576" y="476"/>
      <point x="585" y="511" type="curve" smooth="yes"/>
      <point x="587" y="521" type="line" smooth="yes"/>
      <point x="614" y="630"/>
      <point x="544" y="719"/>
      <point x="400" y="719" type="curve" smooth="yes"/>
      <point x="313" y="719"/>
      <point x="256" y="701"/>
      <point x="212" y="670" type="curve" smooth="yes"/>
      <point x="183" y="647"/>
      <point x="171" y="633"/>
      <point x="164" y="604" type="curve" smooth="yes"/>
      <point x="159" y="588"/>
      <point x="160" y="569"/>
      <point x="162" y="552" type="curve"/>
      <point x="167" y="552" type="line"/>
      <point x="236" y="618"/>
      <point x="291" y="640"/>
    </contour>
    <contour>
      <point x="214" y="307" type="curve" smooth="yes"/>
      <point x="414" y="307"/>
      <point x="551" y="380"/>
      <point x="585" y="511" type="curve" smooth="yes"/>
      <point x="592" y="542"/>
      <point x="551" y="586"/>
      <point x="525" y="588" type="curve"/>
      <point x="524" y="576"/>
      <point x="522" y="565"/>
      <point x="517" y="549" type="curve" smooth="yes"/>
      <point x="485" y="413"/>
      <point x="357" y="358"/>
      <point x="198" y="358" type="curve"/>
      <point x="193" y="349"/>
      <point x="190" y="342"/>
      <point x="188" y="331" type="curve" smooth="yes"/>
      <point x="184" y="316"/>
      <point x="199" y="307"/>
    </contour>
    <contour>
      <point x="205" y="286" type="curve" smooth="yes"/>
      <point x="356" y="283"/>
      <point x="455" y="236"/>
      <point x="431" y="140" type="curve" smooth="yes"/>
      <point x="428" y="126"/>
      <point x="426" y="119"/>
      <point x="421" y="109" type="curve"/>
      <point x="455" y="112"/>
      <point x="499" y="130"/>
      <point x="507" y="155" type="curve" smooth="yes"/>
      <point x="537" y="277"/>
      <point x="422" y="342"/>
      <point x="193" y="342" type="curve"/>
      <point x="190" y="338"/>
      <point x="189" y="335"/>
      <point x="188" y="331" type="curve" smooth="yes"/>
      <point x="181" y="304"/>
      <point x="183" y="287"/>
    </contour>
    <contour>
      <point x="242" y="60" type="curve" smooth="yes"/>
      <point x="143" y="60"/>
      <point x="90" y="90"/>
      <point x="51" y="156" type="curve"/>
      <point x="47" y="156" type="line"/>
      <point x="40" y="142"/>
      <point x="36" y="132"/>
      <point x="31" y="113" type="curve" smooth="yes"/>
      <point x="24" y="85"/>
      <point x="25" y="68"/>
      <point x="40" y="49" type="curve" smooth="yes"/>
      <point x="69" y="10"/>
      <point x="135" y="-20"/>
      <point x="233" y="-20" type="curve" smooth="yes"/>
      <point x="382" y="-20"/>
      <point x="477" y="37"/>
      <point x="504" y="145" type="curve" smooth="yes"/>
      <point x="507" y="155" type="line" smooth="yes"/>
      <point x="515" y="189"/>
      <point x="482" y="227"/>
      <point x="458" y="229" type="curve"/>
      <point x="457" y="221"/>
      <point x="454" y="211"/>
      <point x="452" y="200" type="curve" smooth="yes"/>
      <point x="429" y="109"/>
      <point x="366" y="60"/>
    </contour>
  </outline>
</glyph>
<glyph name="four" format="1">
  <advance width="600"/>
  <unicode hex="0034"/>
  <outline>
    <contour>
      <point x="101" y="200" type="curve"/>
      <point x="199" y="366"/>
      <point x="431" y="593"/>
      <point x="603" y="687" type="curve"/>
      <point x="604" y="691" type="line"/>
      <point x="590" y="705"/>
      <point x="566" y="714"/>
      <point x="529" y="714" type="curve" smooth="yes"/>
      <point x="502" y="714"/>
      <point x="481" y="708"/>
      <point x="412" y="656" type="curve" smooth="yes"/>
      <point x="231" y="520"/>
      <point x="59" y="309"/>
      <point x="38" y="225" type="curve" smooth="yes"/>
      <point x="34" y="207"/>
      <point x="74" y="200"/>
    </contour>
    <contour>
      <point x="537" y="152" type="line"/>
      <point x="539" y="158"/>
      <point x="542" y="166"/>
      <point x="544" y="173" type="curve" smooth="yes"/>
      <point x="551" y="202"/>
      <point x="552" y="231"/>
      <point x="528" y="231" type="curve" smooth="yes"/>
      <point x="299" y="231" type="line"/>
      <point x="219" y="231"/>
      <point x="123" y="229"/>
      <point x="38" y="225" type="curve"/>
      <point x="36" y="217" type="line" smooth="yes"/>
      <point x="30" y="192"/>
      <point x="33" y="171"/>
      <point x="41" y="159" type="curve" smooth="yes"/>
      <point x="45" y="154"/>
      <point x="51" y="152"/>
      <point x="62" y="152" type="curve" smooth="yes"/>
    </contour>
    <contour>
      <point x="423" y="-4" type="curve"/>
      <point x="423" y="30"/>
      <point x="426" y="53"/>
      <point x="437" y="99" type="curve" smooth="yes"/>
      <point x="501" y="354" type="line" smooth="yes"/>
      <point x="505" y="369"/>
      <point x="487" y="388"/>
      <point x="452" y="388" type="curve" smooth="yes"/>
      <point x="444" y="388" type="line"/>
      <point x="419" y="326"/>
      <point x="392" y="252"/>
      <point x="376" y="191" type="curve"/>
      <point x="343" y="58" type="line" smooth="yes"/>
      <point x="330" y="6"/>
      <point x="350" y="-9"/>
      <point x="387" y="-9" type="curve" smooth="yes"/>
      <point x="403" y="-9"/>
      <point x="415" y="-7"/>
    </contour>
  </outline>
</glyph>
<glyph name="five" format="1">
  <advance width="600"/>
  <unicode hex="0035"/>
  <outline>
    <contour>
      <point x="213" y="700" type="line"/>
      <point x="212" y="695"/>
      <point x="210" y="690"/>
      <point x="209" y="684" type="curve" smooth="yes"/>
      <point x="203" y="656"/>
      <point x="203" y="641"/>
      <point x="211" y="630" type="curve" smooth="yes"/>
      <point x="217" y="623"/>
      <point x="225" y="620"/>
      <point x="240" y="620" type="curve" smooth="yes"/>
      <point x="596" y="620" type="line"/>
      <point x="599" y="628"/>
      <point x="602" y="638"/>
      <point x="605" y="647" type="curve" smooth="yes"/>
      <point x="614" y="681"/>
      <point x="610" y="700"/>
      <point x="580" y="700" type="curve" smooth="yes"/>
    </contour>
    <contour>
      <point x="183" y="301" type="line"/>
      <point x="342" y="665" type="line" smooth="yes"/>
      <point x="351" y="688"/>
      <point x="328" y="700"/>
      <point x="289" y="700" type="curve" smooth="yes"/>
      <point x="272" y="700" type="line"/>
      <point x="113" y="331" type="line" smooth="yes"/>
      <point x="103" y="307"/>
      <point x="131" y="301"/>
      <point x="172" y="301" type="curve" smooth="yes"/>
    </contour>
    <contour>
      <point x="162" y="369" type="curve"/>
      <point x="145" y="324"/>
      <point x="158" y="301"/>
      <point x="183" y="301" type="curve"/>
      <point x="185" y="301"/>
      <point x="187" y="301"/>
      <point x="189" y="301" type="curve" smooth="yes"/>
      <point x="370" y="301"/>
      <point x="468" y="262"/>
      <point x="441" y="152" type="curve" smooth="yes"/>
      <point x="436" y="136"/>
      <point x="433" y="126"/>
      <point x="427" y="112" type="curve"/>
      <point x="458" y="112"/>
      <point x="498" y="131"/>
      <point x="508" y="171" type="curve" smooth="yes"/>
      <point x="538" y="290"/>
      <point x="450" y="369"/>
      <point x="199" y="369" type="curve" smooth="yes"/>
      <point x="186" y="369"/>
      <point x="174" y="369"/>
    </contour>
    <contour>
      <point x="234" y="-20" type="curve" smooth="yes"/>
      <point x="380" y="-20"/>
      <point x="476" y="42"/>
      <point x="505" y="159" type="curve" smooth="yes"/>
      <point x="508" y="171" type="line" smooth="yes"/>
      <point x="516" y="205"/>
      <point x="489" y="243"/>
      <point x="463" y="248" type="curve"/>
      <point x="463" y="238"/>
      <point x="461" y="229"/>
      <point x="459" y="219" type="curve" smooth="yes"/>
      <point x="457" y="212" type="line" smooth="yes"/>
      <point x="434" y="115"/>
      <point x="362" y="60"/>
      <point x="241" y="60" type="curve" smooth="yes"/>
      <point x="142" y="60"/>
      <point x="87" y="93"/>
      <point x="48" y="155" type="curve"/>
      <point x="44" y="155" type="line"/>
      <point x="38" y="144"/>
      <point x="34" y="132"/>
      <point x="31" y="119" type="curve" smooth="yes"/>
      <point x="24" y="92"/>
      <point x="26" y="68"/>
      <point x="40" y="50" type="curve" smooth="yes"/>
      <point x="70" y="10"/>
      <point x="136" y="-20"/>
    </contour>
  </outline>
</glyph>
<glyph name="six" format="1">
  <advance width="600"/>
  <unicode hex="0036"/>
  <outline>
    <contour>
      <point x="117" y="129" type="curve"/>
      <point x="91" y="57"/>
      <point x="165" y="-20"/>
      <point x="260" y="-20" type="curve"/>
      <point x="398" y="-20"/>
      <point x="476" y="52"/>
      <point x="508" y="180" type="curve" smooth="yes"/>
      <point x="509" y="185" type="line" smooth="yes"/>
      <point x="535" y="287"/>
      <point x="476" y="351"/>
      <point x="416" y="324" type="curve"/>
      <point x="441" y="285"/>
      <point x="444" y="246"/>
      <point x="430" y="193" type="curve" smooth="yes"/>
      <point x="428" y="187" type="line" smooth="yes"/>
      <point x="409" y="107"/>
      <point x="359" y="58"/>
      <point x="267" y="58" type="curve" smooth="yes"/>
      <point x="201" y="58"/>
      <point x="162" y="76"/>
    </contour>
    <contour>
      <point x="234" y="566" type="curve"/>
      <point x="301" y="615"/>
      <point x="355" y="640"/>
      <point x="431" y="640" type="curve" smooth="yes"/>
      <point x="497" y="640"/>
      <point x="546" y="625"/>
      <point x="577" y="592" type="curve"/>
      <point x="581" y="592" type="line"/>
      <point x="587" y="602"/>
      <point x="590" y="612"/>
      <point x="594" y="626" type="curve" smooth="yes"/>
      <point x="601" y="655"/>
      <point x="598" y="670"/>
      <point x="590" y="680" type="curve" smooth="yes"/>
      <point x="575" y="700"/>
      <point x="521" y="720"/>
      <point x="448" y="720" type="curve" smooth="yes"/>
      <point x="344" y="720"/>
      <point x="220" y="651"/>
    </contour>
    <contour>
      <point x="89" y="352" type="curve" smooth="yes"/>
      <point x="86" y="341" type="line" smooth="yes"/>
      <point x="30" y="106"/>
      <point x="102" y="-20"/>
      <point x="260" y="-20" type="curve" smooth="yes"/>
      <point x="271" y="-20"/>
      <point x="292" y="-7"/>
      <point x="300" y="21" type="curve"/>
      <point x="166" y="30"/>
      <point x="119" y="139"/>
      <point x="169" y="339" type="curve" smooth="yes"/>
      <point x="171" y="350" type="line" smooth="yes"/>
      <point x="229" y="581"/>
      <point x="303" y="658"/>
      <point x="467" y="682" type="curve"/>
      <point x="473" y="703"/>
      <point x="463" y="720"/>
      <point x="448" y="720" type="curve" smooth="yes"/>
      <point x="270" y="719"/>
      <point x="154" y="626"/>
    </contour>
    <contour>
      <point x="343" y="391" type="curve" smooth="yes"/>
      <point x="264" y="391"/>
      <point x="192" y="364"/>
      <point x="147" y="330" type="curve" smooth="yes"/>
      <point x="133" y="318"/>
      <point x="124" y="298"/>
      <point x="112" y="259" type="curve"/>
      <point x="178" y="298"/>
      <point x="248" y="319"/>
      <point x="318" y="319" type="curve" smooth="yes"/>
      <point x="429" y="319"/>
      <point x="481" y="255"/>
      <point x="457" y="161" type="curve" smooth="yes"/>
      <point x="454" y="149"/>
      <point x="450" y="137"/>
      <point x="444" y="128" type="curve"/>
      <point x="470" y="128"/>
      <point x="503" y="158"/>
      <point x="509" y="185" type="curve" smooth="yes"/>
      <point x="542" y="316"/>
      <point x="460" y="391"/>
    </contour>
  </outline>
</glyph>
<glyph name="seven" format="1">
  <advance width="600"/>
  <unicode hex="0037"/>
  <outline>
    <contour>
      <point x="540" y="620" type="line" smooth="yes"/>
      <point x="571" y="620"/>
      <point x="599" y="622"/>
      <point x="623" y="624" type="curve"/>
      <point x="625" y="635" type="line"/>
      <point x="633" y="664"/>
      <point x="628" y="700"/>
      <point x="605" y="700" type="curve"/>
      <point x="208" y="700" type="line"/>
      <point x="205" y="685" type="line" smooth="yes"/>
      <point x="194" y="643"/>
      <point x="198" y="620"/>
      <point x="222" y="620" type="curve" smooth="yes"/>
    </contour>
    <contour>
      <point x="249" y="-10" type="line"/>
      <point x="309" y="225"/>
      <point x="584" y="471"/>
      <point x="623" y="624" type="curve" smooth="yes"/>
      <point x="627" y="642"/>
      <point x="586" y="647"/>
      <point x="539" y="646" type="curve"/>
      <point x="500" y="492"/>
      <point x="222" y="231"/>
      <point x="172" y="32" type="curve" smooth="yes"/>
      <point x="165" y="3"/>
      <point x="203" y="-10"/>
      <point x="234" y="-10" type="curve" smooth="yes"/>
    </contour>
    <contour>
      <point x="204" y="471" type="curve"/>
      <point x="231" y="580"/>
      <point x="273" y="663"/>
      <point x="279" y="687" type="curve"/>
      <point x="285" y="710"/>
      <point x="251" y="720"/>
      <point x="218" y="720" type="curve" smooth="yes"/>
      <point x="210" y="720" type="line"/>
      <point x="174" y="649"/>
      <point x="148" y="575"/>
      <point x="131" y="504" type="curve"/>
      <point x="123" y="475"/>
      <point x="146" y="469"/>
      <point x="179" y="469" type="curve" smooth="yes"/>
      <point x="188" y="469"/>
      <point x="197" y="469"/>
    </contour>
  </outline>
</glyph>
<glyph name="eight" format="1">
  <advance width="600"/>
  <unicode hex="0038"/>
  <outline>
    <contour>
      <point x="387" y="326" type="curve" smooth="yes"/>
      <point x="308" y="358" type="line" smooth="yes"/>
      <point x="214" y="395"/>
      <point x="200" y="461"/>
      <point x="216" y="522" type="curve" smooth="yes"/>
      <point x="220" y="542"/>
      <point x="228" y="566"/>
      <point x="239" y="596" type="curve"/>
      <point x="198" y="589"/>
      <point x="152" y="569"/>
      <point x="140" y="523" type="curve" smooth="yes"/>
      <point x="121" y="446"/>
      <point x="147" y="355"/>
      <point x="271" y="304" type="curve" smooth="yes"/>
      <point x="350" y="271" type="line" smooth="yes"/>
      <point x="432" y="238"/>
      <point x="446" y="194"/>
      <point x="426" y="116" type="curve" smooth="yes"/>
      <point x="424" y="109"/>
      <point x="422" y="100"/>
      <point x="420" y="91" type="curve"/>
      <point x="450" y="95"/>
      <point x="498" y="123"/>
      <point x="505" y="149" type="curve"/>
      <point x="520" y="208"/>
      <point x="495" y="283"/>
    </contour>
    <contour>
      <point x="243" y="-20" type="curve" smooth="yes"/>
      <point x="397" y="-20"/>
      <point x="475" y="34"/>
      <point x="502" y="140" type="curve" smooth="yes"/>
      <point x="505" y="149" type="line" smooth="yes"/>
      <point x="510" y="168"/>
      <point x="481" y="209"/>
      <point x="457" y="211" type="curve"/>
      <point x="456" y="202"/>
      <point x="456" y="197"/>
      <point x="452" y="184" type="curve" smooth="yes"/>
      <point x="433" y="100"/>
      <point x="372" y="57"/>
      <point x="252" y="57" type="curve" smooth="yes"/>
      <point x="157" y="57"/>
      <point x="124" y="88"/>
      <point x="88" y="142" type="curve"/>
      <point x="37" y="79"/>
      <point x="119" y="-20"/>
    </contour>
    <contour>
      <point x="410" y="720" type="curve" smooth="yes"/>
      <point x="269" y="720"/>
      <point x="167" y="649"/>
      <point x="141" y="529" type="curve" smooth="yes"/>
      <point x="140" y="523" type="line" smooth="yes"/>
      <point x="133" y="490"/>
      <point x="169" y="460"/>
      <point x="203" y="456" type="curve"/>
      <point x="207" y="476"/>
      <point x="210" y="499"/>
      <point x="216" y="522" type="curve" smooth="yes"/>
      <point x="239" y="616"/>
      <point x="325" y="645"/>
      <point x="398" y="645" type="curve" smooth="yes"/>
      <point x="456" y="645"/>
      <point x="510" y="622"/>
      <point x="540" y="582" type="curve"/>
      <point x="593" y="634"/>
      <point x="481" y="720"/>
    </contour>
    <contour>
      <point x="354" y="314" type="curve" smooth="yes"/>
      <point x="435" y="314"/>
      <point x="562" y="393"/>
      <point x="591" y="508" type="curve" smooth="yes"/>
      <point x="593" y="516" type="line" smooth="yes"/>
      <point x="624" y="637"/>
      <point x="543" y="720"/>
      <point x="410" y="720" type="curve" smooth="yes"/>
      <point x="397" y="720"/>
      <point x="376" y="712"/>
      <point x="365" y="676" type="curve"/>
      <point x="476" y="676"/>
      <point x="540" y="615"/>
      <point x="514" y="515" type="curve" smooth="yes"/>
      <point x="513" y="507" type="line" smooth="yes"/>
      <point x="492" y="424"/>
      <point x="422" y="376"/>
      <point x="298" y="338" type="curve"/>
      <point x="317" y="321"/>
      <point x="331" y="314"/>
    </contour>
    <contour>
      <point x="291" y="26" type="curve"/>
      <point x="150" y="26"/>
      <point x="98" y="94"/>
      <point x="111" y="148" type="curve" smooth="yes"/>
      <point x="113" y="157" type="line" smooth="yes"/>
      <point x="131" y="231"/>
      <point x="198" y="272"/>
      <point x="324" y="299" type="curve"/>
      <point x="306" y="317"/>
      <point x="297" y="328"/>
      <point x="274" y="328" type="curve" smooth="yes"/>
      <point x="182" y="328"/>
      <point x="67" y="271"/>
      <point x="44" y="174" type="curve" smooth="yes"/>
      <point x="42" y="166" type="line" smooth="yes"/>
      <point x="18" y="73"/>
      <point x="80" y="-20"/>
      <point x="243" y="-20" type="curve" smooth="yes"/>
      <point x="265" y="-20"/>
      <point x="284" y="-2"/>
    </contour>
  </outline>
</glyph>
<glyph name="nine" format="1">
  <advance width="600"/>
  <unicode hex="0039"/>
  <outline>
    <contour>
      <point x="529" y="571" type="curve"/>
      <point x="571" y="630"/>
      <point x="493" y="720"/>
      <point x="399" y="720" type="curve"/>
      <point x="265" y="720"/>
      <point x="159" y="639"/>
      <point x="119" y="479" type="curve" smooth="yes"/>
      <point x="116" y="469" type="line" smooth="yes"/>
      <point x="89" y="357"/>
      <point x="149" y="277"/>
      <point x="211" y="304" type="curve"/>
      <point x="178" y="348"/>
      <point x="180" y="397"/>
      <point x="195" y="459" type="curve" smooth="yes"/>
      <point x="197" y="466" type="line" smooth="yes"/>
      <point x="225" y="577"/>
      <point x="296" y="642"/>
      <point x="392" y="642" type="curve" smooth="yes"/>
      <point x="455" y="642"/>
      <point x="491" y="623"/>
    </contour>
    <contour>
      <point x="420" y="141" type="curve"/>
      <point x="348" y="83"/>
      <point x="290" y="60"/>
      <point x="213" y="60" type="curve" smooth="yes"/>
      <point x="147" y="60"/>
      <point x="96" y="79"/>
      <point x="62" y="111" type="curve"/>
      <point x="58" y="111" type="line"/>
      <point x="52" y="101"/>
      <point x="48" y="92"/>
      <point x="46" y="78" type="curve" smooth="yes"/>
      <point x="40" y="51"/>
      <point x="42" y="36"/>
      <point x="50" y="25" type="curve" smooth="yes"/>
      <point x="67" y="4"/>
      <point x="127" y="-20"/>
      <point x="203" y="-20" type="curve" smooth="yes"/>
      <point x="309" y="-20"/>
      <point x="427" y="53"/>
    </contour>
    <contour>
      <point x="553" y="349" type="curve" smooth="yes"/>
      <point x="556" y="360" type="line" smooth="yes"/>
      <point x="613" y="593"/>
      <point x="556" y="720"/>
      <point x="399" y="720" type="curve" smooth="yes"/>
      <point x="383" y="720"/>
      <point x="366" y="711"/>
      <point x="358" y="676" type="curve"/>
      <point x="498" y="664"/>
      <point x="524" y="560"/>
      <point x="474" y="361" type="curve" smooth="yes"/>
      <point x="471" y="350" type="line" smooth="yes"/>
      <point x="414" y="119"/>
      <point x="343" y="42"/>
      <point x="182" y="24" type="curve"/>
      <point x="176" y="-3"/>
      <point x="188" y="-20"/>
      <point x="203" y="-20" type="curve" smooth="yes"/>
      <point x="376" y="-20"/>
      <point x="483" y="70"/>
    </contour>
    <contour>
      <point x="280" y="234" type="curve" smooth="yes"/>
      <point x="354" y="234"/>
      <point x="422" y="252"/>
      <point x="466" y="291" type="curve" smooth="yes"/>
      <point x="481" y="304"/>
      <point x="490" y="324"/>
      <point x="498" y="365" type="curve"/>
      <point x="435" y="324"/>
      <point x="368" y="305"/>
      <point x="298" y="305" type="curve" smooth="yes"/>
      <point x="189" y="305"/>
      <point x="138" y="369"/>
      <point x="165" y="477" type="curve" smooth="yes"/>
      <point x="170" y="498"/>
      <point x="176" y="513"/>
      <point x="185" y="530" type="curve"/>
      <point x="157" y="530"/>
      <point x="126" y="509"/>
      <point x="116" y="469" type="curve" smooth="yes"/>
      <point x="79" y="321"/>
      <point x="147" y="234"/>
    </contour>
  </outline>
</glyph>
<glyph name="colon" format="1">
  <advance width="300"/>
  <unicode hex="003A"/>
  <outline>
    <contour>
      <point x="257" y="393" type="curve"/>
      <point x="278" y="478" type="line" smooth="yes"/>
      <point x="289" y="521"/>
      <point x="256" y="538"/>
      <point x="203" y="538" type="curve" smooth="yes"/>
      <point x="180" y="538"/>
      <point x="159" y="534"/>
      <point x="140" y="527" type="curve"/>
      <point x="119" y="441" type="line" smooth="yes"/>
      <point x="108" y="398"/>
      <point x="141" y="381"/>
      <point x="195" y="381" type="curve" smooth="yes"/>
      <point x="217" y="381"/>
      <point x="238" y="385"/>
    </contour>
    <contour>
      <point x="160" y="5" type="curve"/>
      <point x="181" y="90" type="line" smooth="yes"/>
      <point x="192" y="133"/>
      <point x="159" y="150"/>
      <point x="106" y="150" type="curve" smooth="yes"/>
      <point x="83" y="150"/>
      <point x="62" y="146"/>
      <point x="43" y="139" type="curve"/>
      <point x="22" y="53" type="line" smooth="yes"/>
      <point x="11" y="10"/>
      <point x="44" y="-7"/>
      <point x="98" y="-7" type="curve" smooth="yes"/>
      <point x="120" y="-7"/>
      <point x="141" y="-3"/>
    </contour>
  </outline>
</glyph>
<glyph name="semicolon" format="1">
  <advance width="350"/>
  <unicode hex="003B"/>
  <outline>
    <contour>
      <point x="280" y="391" type="curve"/>
      <point x="301" y="477" type="line" smooth="yes"/>
      <point x="312" y="520"/>
      <point x="279" y="537"/>
      <point x="226" y="537" type="curve" smooth="yes"/>
      <point x="203" y="537"/>
      <point x="182" y="533"/>
      <point x="163" y="525" type="curve"/>
      <point x="142" y="440" type="line" smooth="yes"/>
      <point x="131" y="397"/>
      <point x="164" y="380"/>
      <point x="218" y="380" type="curve" smooth="yes"/>
      <point x="240" y="380"/>
      <point x="261" y="384"/>
    </contour>
    <contour>
      <point x="-8" y="-193" type="curve" smooth="yes"/>
      <point x="7" y="-193"/>
      <point x="15" y="-191"/>
      <point x="24" y="-183" type="curve"/>
      <point x="89" y="-131"/>
      <point x="164" y="-26"/>
      <point x="194" y="93" type="curve"/>
      <point x="203" y="129"/>
      <point x="178" y="141"/>
      <point x="136" y="141" type="curve" smooth="yes"/>
      <point x="118" y="141"/>
      <point x="105" y="139"/>
      <point x="88" y="134" type="curve"/>
      <point x="52" y="-11"/>
      <point x="15" y="-84"/>
      <point x="-64" y="-175" type="curve"/>
      <point x="-49" y="-188"/>
      <point x="-34" y="-193"/>
    </contour>
  </outline>
</glyph>
<glyph name="less" format="1">
  <advance width="600"/>
  <unicode hex="003C"/>
  <outline>
    <contour>
      <point x="583" y="496" type="curve"/>
      <point x="587" y="510" type="line"/>
      <point x="594" y="541"/>
      <point x="586" y="569"/>
      <point x="566" y="569" type="curve" smooth="yes"/>
      <point x="553" y="569"/>
      <point x="519" y="561"/>
      <point x="470" y="545" type="curve" smooth="yes"/>
      <point x="312" y="491"/>
      <point x="188" y="418"/>
      <point x="85" y="326" type="curve"/>
      <point x="78" y="298" type="line"/>
      <point x="73" y="280"/>
      <point x="93" y="270"/>
      <point x="136" y="281" type="curve"/>
      <point x="274" y="390"/>
      <point x="366" y="447"/>
    </contour>
    <contour>
      <point x="460" y="25" type="curve"/>
      <point x="465" y="34"/>
      <point x="469" y="43"/>
      <point x="472" y="56" type="curve" smooth="yes"/>
      <point x="479" y="85"/>
      <point x="477" y="107"/>
      <point x="461" y="113" type="curve" smooth="yes"/>
      <point x="292" y="166"/>
      <point x="232" y="213"/>
      <point x="144" y="320" type="curve" smooth="yes"/>
      <point x="139" y="327"/>
      <point x="137" y="333"/>
      <point x="139" y="339" type="curve" smooth="yes"/>
      <point x="140" y="343"/>
      <point x="141" y="349"/>
      <point x="144" y="357" type="curve"/>
      <point x="103" y="338"/>
      <point x="83" y="320"/>
      <point x="79" y="302" type="curve" smooth="yes"/>
      <point x="76" y="292" type="line" smooth="yes"/>
      <point x="71" y="271"/>
      <point x="75" y="259"/>
      <point x="97" y="235" type="curve" smooth="yes"/>
      <point x="180" y="145"/>
      <point x="260" y="74"/>
    </contour>
  </outline>
</glyph>
<glyph name="equal" format="1">
  <advance width="600"/>
  <unicode hex="003D"/>
  <outline>
    <contour>
      <point x="107" y="466" type="line"/>
      <point x="106" y="462"/>
      <point x="105" y="457"/>
      <point x="104" y="453" type="curve" smooth="yes"/>
      <point x="96" y="423"/>
      <point x="96" y="405"/>
      <point x="105" y="394" type="curve" smooth="yes"/>
      <point x="110" y="387"/>
      <point x="118" y="384"/>
      <point x="136" y="384" type="curve"/>
      <point x="574" y="384" type="line"/>
      <point x="578" y="393"/>
      <point x="581" y="403"/>
      <point x="583" y="411" type="curve" smooth="yes"/>
      <point x="592" y="447"/>
      <point x="588" y="466"/>
      <point x="558" y="466" type="curve"/>
    </contour>
    <contour>
      <point x="514" y="134" type="line"/>
      <point x="515" y="138"/>
      <point x="516" y="143"/>
      <point x="517" y="147" type="curve" smooth="yes"/>
      <point x="525" y="177"/>
      <point x="525" y="195"/>
      <point x="516" y="206" type="curve" smooth="yes"/>
      <point x="511" y="213"/>
      <point x="503" y="216"/>
      <point x="485" y="216" type="curve"/>
      <point x="47" y="216" type="line"/>
      <point x="43" y="207"/>
      <point x="40" y="197"/>
      <point x="38" y="189" type="curve" smooth="yes"/>
      <point x="29" y="153"/>
      <point x="33" y="134"/>
      <point x="63" y="134" type="curve"/>
    </contour>
  </outline>
</glyph>
<glyph name="greater" format="1">
  <advance width="550"/>
  <unicode hex="003E"/>
  <outline>
    <contour>
      <point x="34" y="105" type="curve"/>
      <point x="31" y="91" type="line"/>
      <point x="23" y="59"/>
      <point x="32" y="32"/>
      <point x="52" y="32" type="curve" smooth="yes"/>
      <point x="65" y="32"/>
      <point x="99" y="39"/>
      <point x="148" y="56" type="curve" smooth="yes"/>
      <point x="305" y="109"/>
      <point x="430" y="183"/>
      <point x="533" y="274" type="curve"/>
      <point x="540" y="302" type="line"/>
      <point x="544" y="321"/>
      <point x="524" y="330"/>
      <point x="482" y="320" type="curve"/>
      <point x="344" y="210"/>
      <point x="251" y="153"/>
    </contour>
    <contour>
      <point x="158" y="575" type="curve"/>
      <point x="152" y="566"/>
      <point x="149" y="557"/>
      <point x="146" y="545" type="curve" smooth="yes"/>
      <point x="138" y="516"/>
      <point x="141" y="493"/>
      <point x="157" y="487" type="curve" smooth="yes"/>
      <point x="326" y="435"/>
      <point x="386" y="388"/>
      <point x="474" y="280" type="curve" smooth="yes"/>
      <point x="479" y="274"/>
      <point x="480" y="267"/>
      <point x="479" y="262" type="curve" smooth="yes"/>
      <point x="478" y="258"/>
      <point x="476" y="252"/>
      <point x="474" y="243" type="curve"/>
      <point x="514" y="262"/>
      <point x="534" y="281"/>
      <point x="539" y="298" type="curve" smooth="yes"/>
      <point x="541" y="308" type="line" smooth="yes"/>
      <point x="547" y="329"/>
      <point x="542" y="342"/>
      <point x="520" y="365" type="curve" smooth="yes"/>
      <point x="438" y="456"/>
      <point x="358" y="526"/>
    </contour>
  </outline>
</glyph>
<glyph name="at" format="1">
  <advance width="600"/>
  <unicode hex="0040"/>
  <outline>
    <contour>
      <point x="544" y="515" type="curve" smooth="yes"/>
      <point x="533" y="529"/>
      <point x="508" y="540"/>
      <point x="460" y="540" type="curve" smooth="yes"/>
      <point x="430" y="540"/>
      <point x="398" y="531"/>
      <point x="366" y="505" type="curve" smooth="yes"/>
      <point x="345" y="489"/>
      <point x="335" y="454"/>
      <point x="344" y="436" type="curve"/>
      <point x="386" y="462"/>
      <point x="413" y="472"/>
      <point x="449" y="472" type="curve" smooth="yes"/>
      <point x="486" y="472"/>
      <point x="506" y="467"/>
      <point x="526" y="447" type="curve"/>
      <point x="548" y="480"/>
      <point x="551" y="505"/>
    </contour>
    <contour>
      <point x="470" y="167" type="curve"/>
      <point x="417" y="111"/>
      <point x="360" y="82"/>
      <point x="324" y="82" type="curve" smooth="yes"/>
      <point x="283" y="82"/>
      <point x="268" y="111"/>
      <point x="290" y="200" type="curve" smooth="yes"/>
      <point x="292" y="205" type="line" smooth="yes"/>
      <point x="329" y="352"/>
      <point x="358" y="423"/>
      <point x="435" y="503" type="curve"/>
      <point x="412" y="517"/>
      <point x="381" y="518"/>
      <point x="366" y="505" type="curve" smooth="yes"/>
      <point x="304" y="456"/>
      <point x="254" y="358"/>
      <point x="214" y="201" type="curve" smooth="yes"/>
      <point x="213" y="195" type="line" smooth="yes"/>
      <point x="182" y="73"/>
      <point x="211" y="10"/>
      <point x="295" y="10" type="curve" smooth="yes"/>
      <point x="336" y="10"/>
      <point x="377" y="25"/>
      <point x="442" y="80" type="curve" smooth="yes"/>
      <point x="460" y="96"/>
      <point x="473" y="131"/>
    </contour>
    <contour>
      <point x="481" y="16" type="line"/>
      <point x="480" y="48"/>
      <point x="483" y="66"/>
      <point x="494" y="108" type="curve"/>
      <point x="596" y="516" type="line" smooth="yes"/>
      <point x="638" y="684"/>
      <point x="596" y="760"/>
      <point x="468" y="760" type="curve" smooth="yes"/>
      <point x="443" y="760"/>
      <point x="439" y="735"/>
      <point x="435" y="719" type="curve"/>
      <point x="549" y="708"/>
      <point x="557" y="659"/>
      <point x="523" y="523" type="curve" smooth="yes"/>
      <point x="413" y="83" type="line" smooth="yes"/>
      <point x="402" y="42"/>
      <point x="427" y="16"/>
      <point x="472" y="16" type="curve" smooth="yes"/>
    </contour>
    <contour>
      <point x="42" y="200" type="curve" smooth="yes"/>
      <point x="40" y="192" type="line" smooth="yes"/>
      <point x="1" y="37"/>
      <point x="-1" y="-69"/>
      <point x="44" y="-129" type="curve" smooth="yes"/>
      <point x="65" y="-158"/>
      <point x="95" y="-151"/>
      <point x="124" y="-127" type="curve"/>
      <point x="58" y="-32"/>
      <point x="65" y="29"/>
      <point x="105" y="188" type="curve" smooth="yes"/>
      <point x="107" y="197" type="line" smooth="yes"/>
      <point x="185" y="510"/>
      <point x="325" y="694"/>
      <point x="452" y="694" type="curve" smooth="yes"/>
      <point x="504" y="694"/>
      <point x="528" y="678"/>
      <point x="550" y="643" type="curve"/>
      <point x="567" y="654"/>
      <point x="575" y="665"/>
      <point x="579" y="679" type="curve" smooth="yes"/>
      <point x="589" y="719"/>
      <point x="534" y="760"/>
      <point x="468" y="760" type="curve" smooth="yes"/>
      <point x="284" y="760"/>
      <point x="126" y="536"/>
    </contour>
    <contour>
      <point x="211" y="-190" type="curve" smooth="yes"/>
      <point x="275" y="-190"/>
      <point x="333" y="-180"/>
      <point x="354" y="-163" type="curve" smooth="yes"/>
      <point x="369" y="-151"/>
      <point x="379" y="-129"/>
      <point x="386" y="-104" type="curve" smooth="yes"/>
      <point x="388" y="-96" type="line"/>
      <point x="384" y="-96" type="line"/>
      <point x="333" y="-118"/>
      <point x="290" y="-124"/>
      <point x="231" y="-124" type="curve" smooth="yes"/>
      <point x="151" y="-124"/>
      <point x="96" y="-101"/>
      <point x="59" y="-39" type="curve"/>
      <point x="38" y="-63"/>
      <point x="27" y="-107"/>
      <point x="44" y="-129" type="curve"/>
      <point x="75" y="-171"/>
      <point x="130" y="-190"/>
    </contour>
  </outline>
</glyph>
<glyph name="A" format="1">
  <advance width="600"/>
  <unicode hex="0041"/>
  <outline>
    <contour>
      <point x="80" y="-7" type="curve"/>
      <point x="164" y="314"/>
      <point x="263" y="504"/>
      <point x="409" y="643" type="curve"/>
      <point x="432" y="665"/>
      <point x="426" y="710"/>
      <point x="394" y="710" type="curve"/>
      <point x="368" y="710" type="line"/>
      <point x="190" y="544"/>
      <point x="79" y="324"/>
      <point x="4" y="27" type="curve"/>
      <point x="-3" y="-1"/>
      <point x="22" y="-10"/>
      <point x="54" y="-10" type="curve" smooth="yes"/>
      <point x="66" y="-10"/>
      <point x="73" y="-9"/>
    </contour>
    <contour>
      <point x="468" y="-7" type="curve"/>
      <point x="531" y="257"/>
      <point x="525" y="481"/>
      <point x="488" y="616" type="curve"/>
      <point x="476" y="658"/>
      <point x="463" y="680"/>
      <point x="452" y="695" type="curve" smooth="yes"/>
      <point x="446" y="704"/>
      <point x="424" y="710"/>
      <point x="394" y="710" type="curve"/>
      <point x="377" y="710"/>
      <point x="351" y="680"/>
      <point x="345" y="659" type="curve"/>
      <point x="352" y="659"/>
      <point x="358" y="659"/>
      <point x="362" y="659" type="curve" smooth="yes"/>
      <point x="374" y="659"/>
      <point x="385" y="654"/>
      <point x="396" y="623" type="curve"/>
      <point x="447" y="487"/>
      <point x="446" y="273"/>
      <point x="391" y="29" type="curve"/>
      <point x="388" y="18"/>
      <point x="389" y="12"/>
      <point x="394" y="6" type="curve" smooth="yes"/>
      <point x="402" y="-5"/>
      <point x="422" y="-10"/>
      <point x="442" y="-10" type="curve" smooth="yes"/>
      <point x="452" y="-10"/>
      <point x="460" y="-9"/>
    </contour>
    <contour>
      <point x="44" y="275" type="line"/>
      <point x="41" y="260" type="line" smooth="yes"/>
      <point x="35" y="236"/>
      <point x="34" y="218"/>
      <point x="43" y="206" type="curve" smooth="yes"/>
      <point x="47" y="202"/>
      <point x="50" y="200"/>
      <point x="56" y="200" type="curve"/>
      <point x="440" y="200" type="line"/>
      <point x="453" y="253"/>
      <point x="426" y="275"/>
      <point x="360" y="275" type="curve" smooth="yes"/>
    </contour>
    <contour>
      <point x="411" y="710" type="move" name="top"/>
    </contour>
    <contour>
      <point x="468" y="-8" type="move" name="ogonek"/>
    </contour>
    <contour>
      <point x="408" y="703" type="move" name="ring"/>
    </contour>
    <contour>
      <point x="229" y="-1" type="move" name="bottom"/>
    </contour>
  </outline>
</glyph>
<glyph name="B" format="1">
  <advance width="600"/>
  <unicode hex="0042"/>
  <outline>
    <contour>
      <point x="115" y="20" type="curve"/>
      <point x="254" y="576" type="line" smooth="yes"/>
      <point x="269" y="636"/>
      <point x="248" y="661"/>
      <point x="191" y="661" type="curve"/>
      <point x="37" y="47" type="line"/>
      <point x="33" y="31"/>
      <point x="68" y="20"/>
    </contour>
    <contour>
      <point x="151" y="700" type="curve"/>
      <point x="148" y="693"/>
      <point x="145" y="685"/>
      <point x="143" y="675" type="curve" smooth="yes"/>
      <point x="137" y="652"/>
      <point x="138" y="637"/>
      <point x="145" y="628" type="curve" smooth="yes"/>
      <point x="149" y="623"/>
      <point x="155" y="622"/>
      <point x="160" y="622" type="curve" smooth="yes"/>
      <point x="168" y="622"/>
      <point x="180" y="624"/>
      <point x="201" y="627" type="curve" smooth="yes"/>
      <point x="252" y="635"/>
      <point x="324" y="642"/>
      <point x="381" y="642" type="curve" smooth="yes"/>
      <point x="467" y="642"/>
      <point x="508" y="630"/>
      <point x="546" y="585" type="curve"/>
      <point x="596" y="628"/>
      <point x="522" y="720"/>
      <point x="414" y="720" type="curve" smooth="yes"/>
      <point x="332" y="720"/>
      <point x="252" y="716"/>
    </contour>
    <contour>
      <point x="590" y="506" type="curve" smooth="yes"/>
      <point x="597" y="532" type="line" smooth="yes"/>
      <point x="620" y="627"/>
      <point x="565" y="720"/>
      <point x="414" y="720" type="curve" smooth="yes"/>
      <point x="405" y="720"/>
      <point x="393" y="706"/>
      <point x="387" y="681" type="curve"/>
      <point x="505" y="681"/>
      <point x="535" y="610"/>
      <point x="512" y="520" type="curve" smooth="yes"/>
      <point x="507" y="501" type="line" smooth="yes"/>
      <point x="481" y="403"/>
      <point x="401" y="351"/>
      <point x="242" y="351" type="curve" smooth="yes"/>
      <point x="210" y="351"/>
      <point x="197" y="353"/>
      <point x="178" y="362" type="curve"/>
      <point x="170" y="357"/>
      <point x="167" y="350"/>
      <point x="165" y="341" type="curve" smooth="yes"/>
      <point x="157" y="312"/>
      <point x="188" y="283"/>
      <point x="222" y="283" type="curve" smooth="yes"/>
      <point x="234" y="283" type="line" smooth="yes"/>
      <point x="415" y="283"/>
      <point x="550" y="351"/>
    </contour>
    <contour>
      <point x="506" y="186" type="curve" smooth="yes"/>
      <point x="513" y="212" type="line" smooth="yes"/>
      <point x="531" y="286"/>
      <point x="477" y="352"/>
      <point x="416" y="352" type="curve" smooth="yes"/>
      <point x="411" y="352" type="line" smooth="yes"/>
      <point x="384" y="352"/>
      <point x="356" y="336"/>
      <point x="352" y="323" type="curve"/>
      <point x="352" y="320" type="line"/>
      <point x="358" y="320" type="line"/>
      <point x="415" y="320"/>
      <point x="446" y="272"/>
      <point x="431" y="211" type="curve" smooth="yes"/>
      <point x="426" y="193" type="line" smooth="yes"/>
      <point x="405" y="110"/>
      <point x="312" y="67"/>
      <point x="224" y="67" type="curve" smooth="yes"/>
      <point x="133" y="67"/>
      <point x="106" y="79"/>
      <point x="77" y="103" type="curve"/>
      <point x="55" y="83"/>
      <point x="41" y="62"/>
      <point x="37" y="47" type="curve" smooth="yes"/>
      <point x="30" y="18"/>
      <point x="81" y="-10"/>
      <point x="199" y="-10" type="curve" smooth="yes"/>
      <point x="209" y="-10" type="line" smooth="yes"/>
      <point x="353" y="-10"/>
      <point x="475" y="62"/>
    </contour>
  </outline>
</glyph>
<glyph name="C" format="1">
  <advance width="600"/>
  <unicode hex="0043"/>
  <outline>
    <contour>
      <point x="454" y="646" type="curve" smooth="yes"/>
      <point x="528" y="646"/>
      <point x="566" y="616"/>
      <point x="551" y="527" type="curve"/>
      <point x="576" y="527"/>
      <point x="586" y="534"/>
      <point x="589" y="546" type="curve" smooth="yes"/>
      <point x="605" y="607"/>
      <point x="600" y="647"/>
      <point x="579" y="675" type="curve" smooth="yes"/>
      <point x="560" y="700"/>
      <point x="529" y="720"/>
      <point x="465" y="720" type="curve" smooth="yes"/>
      <point x="294" y="720"/>
      <point x="151" y="567"/>
      <point x="85" y="302" type="curve" smooth="yes"/>
      <point x="78" y="273" type="line" smooth="yes"/>
      <point x="65" y="220"/>
      <point x="93" y="138"/>
      <point x="137" y="140" type="curve"/>
      <point x="137" y="182"/>
      <point x="147" y="230"/>
      <point x="157" y="270" type="curve" smooth="yes"/>
      <point x="161" y="287" type="line" smooth="yes"/>
      <point x="225" y="544"/>
      <point x="350" y="646"/>
    </contour>
    <contour>
      <point x="273" y="-20" type="curve" smooth="yes"/>
      <point x="350" y="-20"/>
      <point x="404" y="-7"/>
      <point x="453" y="33" type="curve" smooth="yes"/>
      <point x="478" y="53"/>
      <point x="489" y="80"/>
      <point x="497" y="114" type="curve" smooth="yes"/>
      <point x="500" y="126"/>
      <point x="501" y="142"/>
      <point x="501" y="155" type="curve"/>
      <point x="497" y="155" type="line"/>
      <point x="438" y="86"/>
      <point x="367" y="58"/>
      <point x="281" y="58" type="curve" smooth="yes"/>
      <point x="139" y="58"/>
      <point x="122" y="174"/>
      <point x="157" y="314" type="curve"/>
      <point x="106" y="314"/>
      <point x="89" y="316"/>
      <point x="78" y="273" type="curve" smooth="yes"/>
      <point x="37" y="110"/>
      <point x="100" y="-20"/>
    </contour>
    <contour>
      <point x="558" y="421" type="curve"/>
      <point x="589" y="546" type="line" smooth="yes"/>
      <point x="612" y="638"/>
      <point x="570" y="686"/>
      <point x="524" y="671" type="curve"/>
      <point x="524" y="621"/>
      <point x="516" y="588"/>
      <point x="505" y="545" type="curve" smooth="yes"/>
      <point x="482" y="453" type="line"/>
      <point x="479" y="442"/>
      <point x="481" y="436"/>
      <point x="486" y="429" type="curve" smooth="yes"/>
      <point x="493" y="421"/>
      <point x="506" y="417"/>
      <point x="529" y="417" type="curve"/>
      <point x="541" y="417"/>
      <point x="550" y="418"/>
    </contour>
    <contour>
      <point x="451" y="711" type="move" name="top"/>
    </contour>
    <contour>
      <point x="260" y="-8" type="move" name="bottom"/>
    </contour>
  </outline>
</glyph>
<glyph name="D" format="1">
  <advance width="650"/>
  <unicode hex="0044"/>
  <outline>
    <contour>
      <point x="117" y="26" type="curve"/>
      <point x="254" y="575" type="line" smooth="yes"/>
      <point x="270" y="636"/>
      <point x="249" y="661"/>
      <point x="191" y="661" type="curve"/>
      <point x="40" y="57" type="line" smooth="yes"/>
      <point x="36" y="41"/>
      <point x="68" y="26"/>
    </contour>
    <contour>
      <point x="152" y="700" type="curve"/>
      <point x="148" y="693"/>
      <point x="146" y="685"/>
      <point x="144" y="675" type="curve"/>
      <point x="137" y="650"/>
      <point x="138" y="635"/>
      <point x="145" y="625" type="curve" smooth="yes"/>
      <point x="149" y="620"/>
      <point x="155" y="619"/>
      <point x="161" y="619" type="curve" smooth="yes"/>
      <point x="169" y="619"/>
      <point x="180" y="621"/>
      <point x="200" y="624" type="curve" smooth="yes"/>
      <point x="253" y="632"/>
      <point x="317" y="639"/>
      <point x="375" y="639" type="curve"/>
      <point x="473" y="639"/>
      <point x="529" y="619"/>
      <point x="576" y="558" type="curve"/>
      <point x="615" y="620"/>
      <point x="541" y="720"/>
      <point x="393" y="720" type="curve" smooth="yes"/>
      <point x="312" y="720"/>
      <point x="249" y="716"/>
    </contour>
    <contour>
      <point x="600" y="347" type="curve" smooth="yes"/>
      <point x="606" y="373" type="line" smooth="yes"/>
      <point x="659" y="589"/>
      <point x="595" y="720"/>
      <point x="393" y="720" type="curve" smooth="yes"/>
      <point x="372" y="720"/>
      <point x="351" y="704"/>
      <point x="344" y="676" type="curve"/>
      <point x="562" y="667"/>
      <point x="566" y="546"/>
      <point x="524" y="378" type="curve" smooth="yes"/>
      <point x="520" y="363" type="line" smooth="yes"/>
      <point x="473" y="173"/>
      <point x="349" y="73"/>
      <point x="198" y="73" type="curve" smooth="yes"/>
      <point x="136" y="73"/>
      <point x="105" y="80"/>
      <point x="69" y="103" type="curve"/>
      <point x="53" y="90"/>
      <point x="46" y="78"/>
      <point x="40" y="57" type="curve" smooth="yes"/>
      <point x="33" y="25"/>
      <point x="96" y="-10"/>
      <point x="181" y="-10" type="curve" smooth="yes"/>
      <point x="186" y="-10" type="line" smooth="yes"/>
      <point x="396" y="-10"/>
      <point x="543" y="116"/>
    </contour>
    <contour>
      <point x="423" y="711" type="move" name="top"/>
    </contour>
  </outline>
</glyph>
<glyph name="E" format="1">
  <advance width="550"/>
  <unicode hex="0045"/>
  <outline>
    <contour>
      <point x="151" y="700" type="line"/>
      <point x="150" y="695"/>
      <point x="149" y="690"/>
      <point x="148" y="685" type="curve" smooth="yes"/>
      <point x="141" y="659"/>
      <point x="139" y="635"/>
      <point x="147" y="625" type="curve" smooth="yes"/>
      <point x="150" y="621"/>
      <point x="153" y="619"/>
      <point x="159" y="619" type="curve" smooth="yes"/>
      <point x="588" y="619" type="line"/>
      <point x="593" y="627"/>
      <point x="596" y="637"/>
      <point x="599" y="647" type="curve" smooth="yes"/>
      <point x="602" y="660"/>
      <point x="604" y="681"/>
      <point x="596" y="693" type="curve" smooth="yes"/>
      <point x="592" y="698"/>
      <point x="588" y="700"/>
      <point x="579" y="700" type="curve" smooth="yes"/>
    </contour>
    <contour>
      <point x="120" y="38" type="curve"/>
      <point x="251" y="563" type="line" smooth="yes"/>
      <point x="266" y="622"/>
      <point x="251" y="647"/>
      <point x="188" y="647" type="curve"/>
      <point x="44" y="71" type="line"/>
      <point x="37" y="45"/>
      <point x="72" y="38"/>
    </contour>
    <contour>
      <point x="46" y="81" type="line"/>
      <point x="43" y="69" type="line" smooth="yes"/>
      <point x="35" y="37"/>
      <point x="55" y="0"/>
      <point x="81" y="0" type="curve" smooth="yes"/>
      <point x="436" y="0" type="line"/>
      <point x="439" y="7"/>
      <point x="441" y="16"/>
      <point x="444" y="25" type="curve" smooth="yes"/>
      <point x="453" y="64"/>
      <point x="446" y="81"/>
      <point x="422" y="81" type="curve" smooth="yes"/>
    </contour>
    <contour>
      <point x="153" y="366" type="line"/>
      <point x="140" y="313"/>
      <point x="142" y="291"/>
      <point x="167" y="291" type="curve" smooth="yes"/>
      <point x="438" y="291" type="line"/>
      <point x="440" y="295"/>
      <point x="442" y="301"/>
      <point x="443" y="305" type="curve" smooth="yes"/>
      <point x="448" y="324"/>
      <point x="447" y="343"/>
      <point x="437" y="357" type="curve" smooth="yes"/>
      <point x="432" y="363"/>
      <point x="427" y="366"/>
      <point x="416" y="366" type="curve" smooth="yes"/>
    </contour>
    <contour>
      <point x="385" y="711" type="move" name="top"/>
    </contour>
    <contour>
      <point x="408" y="-1" type="move" name="ogonek"/>
    </contour>
    <contour>
      <point x="207" y="-1" type="move" name="bottom"/>
    </contour>
  </outline>
</glyph>
<glyph name="F" format="1">
  <advance width="550"/>
  <unicode hex="0046"/>
  <outline>
    <contour>
      <point x="125" y="-7" type="curve"/>
      <point x="124" y="25"/>
      <point x="127" y="42"/>
      <point x="137" y="85" type="curve" smooth="yes"/>
      <point x="257" y="563" type="line"/>
      <point x="273" y="625"/>
      <point x="256" y="652"/>
      <point x="195" y="652" type="curve"/>
      <point x="43" y="45" type="line" smooth="yes"/>
      <point x="34" y="10"/>
      <point x="57" y="-7"/>
      <point x="116" y="-7" type="curve" smooth="yes"/>
      <point x="119" y="-7"/>
      <point x="122" y="-7"/>
    </contour>
    <contour>
      <point x="151" y="700" type="line"/>
      <point x="149" y="695"/>
      <point x="148" y="690"/>
      <point x="147" y="685" type="curve" smooth="yes"/>
      <point x="140" y="656"/>
      <point x="139" y="635"/>
      <point x="147" y="625" type="curve" smooth="yes"/>
      <point x="150" y="620"/>
      <point x="153" y="619"/>
      <point x="159" y="619" type="curve"/>
      <point x="590" y="619" type="line"/>
      <point x="595" y="626"/>
      <point x="599" y="636"/>
      <point x="601" y="647" type="curve" smooth="yes"/>
      <point x="606" y="664"/>
      <point x="606" y="683"/>
      <point x="599" y="693" type="curve" smooth="yes"/>
      <point x="595" y="698"/>
      <point x="590" y="700"/>
      <point x="581" y="700" type="curve"/>
    </contour>
    <contour>
      <point x="131" y="316" type="line"/>
      <point x="118" y="263"/>
      <point x="118" y="234"/>
      <point x="143" y="234" type="curve"/>
      <point x="454" y="234" type="line"/>
      <point x="456" y="239"/>
      <point x="458" y="245"/>
      <point x="459" y="250" type="curve"/>
      <point x="465" y="272"/>
      <point x="462" y="293"/>
      <point x="453" y="305" type="curve" smooth="yes"/>
      <point x="447" y="314"/>
      <point x="441" y="316"/>
      <point x="429" y="316" type="curve"/>
    </contour>
  </outline>
</glyph>
<glyph name="G" format="1">
  <advance width="650"/>
  <unicode hex="0047"/>
  <outline>
    <contour>
      <point x="484" y="642" type="curve" smooth="yes"/>
      <point x="574" y="642"/>
      <point x="593" y="604"/>
      <point x="577" y="540" type="curve"/>
      <point x="608" y="540"/>
      <point x="626" y="563"/>
      <point x="629" y="576" type="curve" smooth="yes"/>
      <point x="638" y="612"/>
      <point x="635" y="647"/>
      <point x="615" y="674" type="curve" smooth="yes"/>
      <point x="594" y="701"/>
      <point x="557" y="720"/>
      <point x="497" y="720" type="curve" smooth="yes"/>
      <point x="306" y="720"/>
      <point x="146" y="565"/>
      <point x="72" y="277" type="curve" smooth="yes"/>
      <point x="67" y="256" type="line" smooth="yes"/>
      <point x="51" y="195"/>
      <point x="83" y="124"/>
      <point x="134" y="112" type="curve"/>
      <point x="129" y="155"/>
      <point x="136" y="204"/>
      <point x="148" y="253" type="curve" smooth="yes"/>
      <point x="153" y="273" type="line" smooth="yes"/>
      <point x="213" y="509"/>
      <point x="349" y="642"/>
    </contour>
    <contour>
      <point x="279" y="61" type="curve" smooth="yes"/>
      <point x="154" y="61"/>
      <point x="106" y="146"/>
      <point x="150" y="310" type="curve"/>
      <point x="109" y="310"/>
      <point x="77" y="296"/>
      <point x="67" y="256" type="curve" smooth="yes"/>
      <point x="29" y="103"/>
      <point x="100" y="-20"/>
      <point x="274" y="-20" type="curve" smooth="yes"/>
      <point x="419" y="-20"/>
      <point x="510" y="50"/>
      <point x="541" y="171" type="curve" smooth="yes"/>
      <point x="543" y="179" type="line" smooth="yes"/>
      <point x="557" y="239"/>
      <point x="541" y="283"/>
      <point x="494" y="283" type="curve"/>
      <point x="494" y="262"/>
      <point x="491" y="238"/>
      <point x="483" y="206" type="curve" smooth="yes"/>
      <point x="460" y="116"/>
      <point x="380" y="61"/>
    </contour>
    <contour>
      <point x="341" y="317" type="line"/>
      <point x="338" y="313"/>
      <point x="336" y="307"/>
      <point x="335" y="301" type="curve" smooth="yes"/>
      <point x="329" y="280"/>
      <point x="331" y="266"/>
      <point x="339" y="257" type="curve" smooth="yes"/>
      <point x="346" y="247"/>
      <point x="358" y="242"/>
      <point x="386" y="242" type="curve"/>
      <point x="599" y="242" type="line"/>
      <point x="602" y="252" type="line" smooth="yes"/>
      <point x="614" y="299"/>
      <point x="608" y="317"/>
      <point x="581" y="317" type="curve" smooth="yes"/>
    </contour>
    <contour>
      <point x="603" y="472" type="curve"/>
      <point x="629" y="576" type="line" smooth="yes"/>
      <point x="643" y="629"/>
      <point x="608" y="671"/>
      <point x="563" y="663" type="curve"/>
      <point x="560" y="626"/>
      <point x="552" y="593"/>
      <point x="547" y="570" type="curve" smooth="yes"/>
      <point x="531" y="506" type="line" smooth="yes"/>
      <point x="525" y="478"/>
      <point x="537" y="469"/>
      <point x="575" y="469" type="curve" smooth="yes"/>
      <point x="585" y="469"/>
      <point x="595" y="470"/>
    </contour>
    <contour>
      <point x="447" y="711" type="move" name="top"/>
    </contour>
    <contour>
      <point x="269" y="-1" type="move" name="bottom"/>
    </contour>
  </outline>
</glyph>
<glyph name="H" format="1">
  <advance width="650"/>
  <unicode hex="0048"/>
  <outline>
    <contour>
      <point x="201" y="706" type="curve"/>
      <point x="199" y="670"/>
      <point x="192" y="635"/>
      <point x="182" y="597" type="curve" smooth="yes"/>
      <point x="40" y="27" type="line" smooth="yes"/>
      <point x="33" y="0"/>
      <point x="55" y="-10"/>
      <point x="96" y="-10" type="curve" smooth="yes"/>
      <point x="104" y="-10"/>
      <point x="110" y="-10"/>
      <point x="115" y="-9" type="curve"/>
      <point x="280" y="647" type="line" smooth="yes"/>
      <point x="285" y="670"/>
      <point x="287" y="686"/>
      <point x="278" y="698" type="curve" smooth="yes"/>
      <point x="271" y="706"/>
      <point x="260" y="710"/>
      <point x="235" y="710" type="curve" smooth="yes"/>
      <point x="223" y="710"/>
      <point x="213" y="709"/>
    </contour>
    <contour>
      <point x="502" y="-6" type="curve"/>
      <point x="504" y="30"/>
      <point x="511" y="65"/>
      <point x="521" y="103" type="curve" smooth="yes"/>
      <point x="663" y="673" type="line" smooth="yes"/>
      <point x="670" y="699"/>
      <point x="645" y="710"/>
      <point x="601" y="710" type="curve" smooth="yes"/>
      <point x="596" y="710"/>
      <point x="592" y="710"/>
      <point x="588" y="710" type="curve"/>
      <point x="424" y="53" type="line" smooth="yes"/>
      <point x="418" y="30"/>
      <point x="417" y="14"/>
      <point x="425" y="2" type="curve" smooth="yes"/>
      <point x="432" y="-6"/>
      <point x="443" y="-10"/>
      <point x="468" y="-10" type="curve" smooth="yes"/>
      <point x="480" y="-10"/>
      <point x="491" y="-9"/>
    </contour>
    <contour>
      <point x="59" y="331" type="line"/>
      <point x="56" y="317" type="line" smooth="yes"/>
      <point x="49" y="290"/>
      <point x="50" y="269"/>
      <point x="60" y="256" type="curve" smooth="yes"/>
      <point x="63" y="252"/>
      <point x="66" y="250"/>
      <point x="72" y="250" type="curve"/>
      <point x="505" y="250" type="line"/>
      <point x="520" y="310"/>
      <point x="497" y="331"/>
      <point x="438" y="331" type="curve" smooth="yes"/>
    </contour>
    <contour>
      <point x="417" y="711" type="move" name="top"/>
    </contour>
  </outline>
</glyph>
<glyph name="I" format="1">
  <advance width="500"/>
  <unicode hex="0049"/>
  <outline>
    <contour>
      <point x="237" y="44" type="curve"/>
      <point x="367" y="563" type="line" smooth="yes"/>
      <point x="382" y="622"/>
      <point x="367" y="647"/>
      <point x="304" y="647" type="curve"/>
      <point x="177" y="139" type="line" smooth="yes"/>
      <point x="161" y="75"/>
      <point x="173" y="44"/>
    </contour>
    <contour>
      <point x="174" y="700" type="line"/>
      <point x="170" y="694"/>
      <point x="167" y="687"/>
      <point x="164" y="678" type="curve"/>
      <point x="159" y="658"/>
      <point x="161" y="642"/>
      <point x="169" y="631" type="curve" smooth="yes"/>
      <point x="176" y="622"/>
      <point x="188" y="619"/>
      <point x="215" y="619" type="curve" smooth="yes"/>
      <point x="525" y="619" type="line"/>
      <point x="530" y="628"/>
      <point x="533" y="638"/>
      <point x="535" y="646" type="curve" smooth="yes"/>
      <point x="543" y="679"/>
      <point x="541" y="700"/>
      <point x="514" y="700" type="curve" smooth="yes"/>
    </contour>
    <contour>
      <point x="20" y="81" type="line"/>
      <point x="15" y="74"/>
      <point x="11" y="64"/>
      <point x="9" y="54" type="curve"/>
      <point x="4" y="36"/>
      <point x="3" y="20"/>
      <point x="11" y="10" type="curve" smooth="yes"/>
      <point x="17" y="3"/>
      <point x="23" y="0"/>
      <point x="40" y="0" type="curve" smooth="yes"/>
      <point x="372" y="0" type="line"/>
      <point x="375" y="7"/>
      <point x="378" y="16"/>
      <point x="380" y="25" type="curve" smooth="yes"/>
      <point x="388" y="60"/>
      <point x="386" y="81"/>
      <point x="359" y="81" type="curve" smooth="yes"/>
    </contour>
    <contour>
      <point x="362" y="711" type="move" name="top"/>
    </contour>
    <contour>
      <point x="371" y="-1" type="move" name="ogonek"/>
    </contour>
    <contour>
      <point x="184" y="-1" type="move" name="bottom"/>
    </contour>
  </outline>
</glyph>
<glyph name="J" format="1">
  <advance width="500"/>
  <unicode hex="004A"/>
  <outline>
    <contour>
      <point x="184" y="700" type="line"/>
      <point x="182" y="695"/>
      <point x="180" y="689"/>
      <point x="178" y="682" type="curve" smooth="yes"/>
      <point x="173" y="659"/>
      <point x="173" y="642"/>
      <point x="182" y="631" type="curve" smooth="yes"/>
      <point x="189" y="622"/>
      <point x="199" y="619"/>
      <point x="223" y="619" type="curve" smooth="yes"/>
      <point x="477" y="619" type="line"/>
      <point x="492" y="678"/>
      <point x="486" y="700"/>
      <point x="458" y="700" type="curve"/>
    </contour>
    <contour>
      <point x="408" y="185" type="curve" smooth="yes"/>
      <point x="529" y="668" type="line" smooth="yes"/>
      <point x="534" y="688"/>
      <point x="516" y="700"/>
      <point x="470" y="700" type="curve" smooth="yes"/>
      <point x="452" y="700" type="line"/>
      <point x="335" y="230" type="line" smooth="yes"/>
      <point x="311" y="133"/>
      <point x="282" y="85"/>
      <point x="223" y="36" type="curve"/>
      <point x="274" y="12"/>
      <point x="379" y="72"/>
    </contour>
    <contour>
      <point x="164" y="61" type="curve" smooth="yes"/>
      <point x="88" y="61"/>
      <point x="65" y="77"/>
      <point x="16" y="112" type="curve"/>
      <point x="12" y="112" type="line"/>
      <point x="7" y="103"/>
      <point x="3" y="93"/>
      <point x="1" y="84" type="curve"/>
      <point x="-6" y="52"/>
      <point x="-3" y="37"/>
      <point x="6" y="26" type="curve" smooth="yes"/>
      <point x="27" y="0"/>
      <point x="74" y="-20"/>
      <point x="147" y="-20" type="curve" smooth="yes"/>
      <point x="153" y="-20" type="line" smooth="yes"/>
      <point x="286" y="-20"/>
      <point x="374" y="53"/>
      <point x="408" y="185" type="curve"/>
      <point x="412" y="203"/>
      <point x="413" y="246"/>
      <point x="372" y="257" type="curve"/>
      <point x="335" y="107"/>
      <point x="260" y="61"/>
    </contour>
    <contour>
      <point x="363" y="711" type="move" name="top"/>
    </contour>
  </outline>
</glyph>
<glyph name="K" format="1">
  <advance width="600"/>
  <unicode hex="004B"/>
  <outline>
    <contour>
      <point x="189" y="706" type="curve"/>
      <point x="187" y="671"/>
      <point x="180" y="635"/>
      <point x="171" y="597" type="curve" smooth="yes"/>
      <point x="28" y="27" type="line" smooth="yes"/>
      <point x="21" y="-2"/>
      <point x="48" y="-10"/>
      <point x="85" y="-10" type="curve" smooth="yes"/>
      <point x="92" y="-10"/>
      <point x="99" y="-10"/>
      <point x="104" y="-9" type="curve"/>
      <point x="269" y="650" type="line" smooth="yes"/>
      <point x="274" y="671"/>
      <point x="275" y="687"/>
      <point x="266" y="698" type="curve" smooth="yes"/>
      <point x="259" y="706"/>
      <point x="242" y="710"/>
      <point x="218" y="710" type="curve" smooth="yes"/>
      <point x="208" y="710"/>
      <point x="199" y="709"/>
    </contour>
    <contour>
      <point x="581" y="710" type="curve"/>
      <point x="567" y="710" type="line"/>
      <point x="448" y="471"/>
      <point x="290" y="360"/>
      <point x="119" y="297" type="curve"/>
      <point x="108" y="255"/>
      <point x="113" y="230"/>
      <point x="132" y="234" type="curve"/>
      <point x="305" y="286"/>
      <point x="471" y="399"/>
      <point x="580" y="562" type="curve" smooth="yes"/>
      <point x="633" y="641"/>
      <point x="640" y="658"/>
      <point x="645" y="676" type="curve" smooth="yes"/>
      <point x="650" y="696"/>
      <point x="634" y="710"/>
    </contour>
    <contour>
      <point x="314" y="364" type="line"/>
      <point x="263" y="338"/>
      <point x="248" y="315"/>
      <point x="253" y="300" type="curve" smooth="yes"/>
      <point x="350" y="58" type="line" smooth="yes"/>
      <point x="371" y="1"/>
      <point x="400" y="-20"/>
      <point x="441" y="-20" type="curve" smooth="yes"/>
      <point x="444" y="-20" type="line" smooth="yes"/>
      <point x="485" y="-20"/>
      <point x="502" y="3"/>
      <point x="511" y="41" type="curve" smooth="yes"/>
      <point x="516" y="58"/>
      <point x="517" y="71"/>
      <point x="518" y="83" type="curve"/>
      <point x="514" y="83" type="line"/>
      <point x="499" y="73"/>
      <point x="484" y="67"/>
      <point x="467" y="67" type="curve" smooth="yes"/>
      <point x="444" y="67"/>
      <point x="429" y="81"/>
      <point x="416" y="115" type="curve" smooth="yes"/>
    </contour>
    <contour>
      <point x="259" y="-1" type="move" name="bottom"/>
    </contour>
  </outline>
</glyph>
<glyph name="L" format="1">
  <advance width="550"/>
  <unicode hex="004C"/>
  <outline>
    <contour>
      <point x="116" y="37" type="curve"/>
      <point x="269" y="647" type="line" smooth="yes"/>
      <point x="274" y="670"/>
      <point x="276" y="686"/>
      <point x="267" y="698" type="curve" smooth="yes"/>
      <point x="261" y="706"/>
      <point x="249" y="710"/>
      <point x="224" y="710" type="curve" smooth="yes"/>
      <point x="212" y="710"/>
      <point x="202" y="709"/>
      <point x="190" y="706" type="curve"/>
      <point x="188" y="671"/>
      <point x="181" y="635"/>
      <point x="172" y="597" type="curve" smooth="yes"/>
      <point x="41" y="72" type="line" smooth="yes"/>
      <point x="34" y="46"/>
      <point x="67" y="37"/>
    </contour>
    <contour>
      <point x="43" y="81" type="line"/>
      <point x="40" y="69" type="line" smooth="yes"/>
      <point x="32" y="37"/>
      <point x="51" y="0"/>
      <point x="77" y="0" type="curve" smooth="yes"/>
      <point x="431" y="0" type="line"/>
      <point x="434" y="7"/>
      <point x="437" y="16"/>
      <point x="439" y="25" type="curve" smooth="yes"/>
      <point x="449" y="64"/>
      <point x="442" y="81"/>
      <point x="418" y="81" type="curve" smooth="yes"/>
    </contour>
    <contour>
      <point x="460" y="551" type="move" name="caronslovak"/>
    </contour>
    <contour>
      <point x="243" y="711" type="move" name="top"/>
    </contour>
    <contour>
      <point x="473" y="400" type="move" name="dot"/>
    </contour>
    <contour>
      <point x="223" y="-1" type="move" name="bottom"/>
    </contour>
  </outline>
</glyph>
<glyph name="M" format="1">
  <advance width="800"/>
  <unicode hex="004D"/>
  <outline>
    <contour>
      <point x="90" y="-9" type="curve"/>
      <point x="96" y="21"/>
      <point x="103" y="51"/>
      <point x="111" y="84" type="curve" smooth="yes"/>
      <point x="152" y="248"/>
      <point x="222" y="479"/>
      <point x="305" y="669" type="curve" smooth="yes"/>
      <point x="310" y="680"/>
      <point x="306" y="690"/>
      <point x="302" y="696" type="curve" smooth="yes"/>
      <point x="294" y="706"/>
      <point x="278" y="710"/>
      <point x="252" y="710" type="curve" smooth="yes"/>
      <point x="240" y="710"/>
      <point x="229" y="709"/>
      <point x="218" y="706" type="curve"/>
      <point x="212" y="666"/>
      <point x="207" y="645"/>
      <point x="189" y="598" type="curve" smooth="yes"/>
      <point x="117" y="407"/>
      <point x="61" y="232"/>
      <point x="10" y="27" type="curve" smooth="yes"/>
      <point x="8" y="18"/>
      <point x="9" y="11"/>
      <point x="13" y="6" type="curve" smooth="yes"/>
      <point x="21" y="-5"/>
      <point x="43" y="-10"/>
      <point x="71" y="-10" type="curve" smooth="yes"/>
      <point x="78" y="-10"/>
      <point x="85" y="-10"/>
    </contour>
    <contour>
      <point x="669" y="-5" type="curve"/>
      <point x="669" y="32"/>
      <point x="676" y="72"/>
      <point x="686" y="111" type="curve" smooth="yes"/>
      <point x="733" y="317"/>
      <point x="758" y="488"/>
      <point x="776" y="662" type="curve"/>
      <point x="778" y="678"/>
      <point x="776" y="687"/>
      <point x="771" y="693" type="curve" smooth="yes"/>
      <point x="762" y="704"/>
      <point x="729" y="710"/>
      <point x="699" y="710" type="curve" smooth="yes"/>
      <point x="696" y="710" type="line"/>
      <point x="695" y="692"/>
      <point x="692" y="674"/>
      <point x="691" y="655" type="curve"/>
      <point x="676" y="472"/>
      <point x="644" y="291"/>
      <point x="612" y="154" type="curve" smooth="yes"/>
      <point x="604" y="116"/>
      <point x="595" y="80"/>
      <point x="586" y="49" type="curve" smooth="yes"/>
      <point x="579" y="20"/>
      <point x="582" y="11"/>
      <point x="588" y="3" type="curve" smooth="yes"/>
      <point x="595" y="-6"/>
      <point x="607" y="-10"/>
      <point x="632" y="-10" type="curve" smooth="yes"/>
      <point x="645" y="-10"/>
      <point x="656" y="-9"/>
    </contour>
    <contour>
      <point x="345" y="677" type="curve" smooth="yes"/>
      <point x="347" y="696"/>
      <point x="315" y="710"/>
      <point x="262" y="710" type="curve"/>
      <point x="253" y="710" type="line"/>
      <point x="269" y="692"/>
      <point x="279" y="671"/>
      <point x="277" y="650" type="curve" smooth="yes"/>
      <point x="244" y="362"/>
      <point x="303" y="165"/>
      <point x="334" y="125" type="curve"/>
      <point x="342" y="115"/>
      <point x="349" y="112"/>
      <point x="368" y="112" type="curve" smooth="yes"/>
      <point x="383" y="112"/>
      <point x="393" y="133"/>
      <point x="400" y="165" type="curve"/>
      <point x="346" y="314"/>
      <point x="335" y="436"/>
    </contour>
    <contour>
      <point x="655" y="706" type="curve"/>
      <point x="549" y="459"/>
      <point x="459" y="311"/>
      <point x="350" y="185" type="curve"/>
      <point x="332" y="164"/>
      <point x="346" y="112"/>
      <point x="368" y="112" type="curve"/>
      <point x="387" y="112" type="line"/>
      <point x="542" y="284"/>
      <point x="685" y="561"/>
      <point x="714" y="675" type="curve" smooth="yes"/>
      <point x="719" y="696"/>
      <point x="715" y="710"/>
      <point x="696" y="710" type="curve" smooth="yes"/>
      <point x="684" y="710"/>
      <point x="668" y="709"/>
    </contour>
  </outline>
</glyph>
<glyph name="N" format="1">
  <advance width="700"/>
  <unicode hex="004E"/>
  <outline>
    <contour>
      <point x="106" y="-7" type="curve"/>
      <point x="227" y="478" type="line"/>
      <point x="258" y="599"/>
      <point x="270" y="687"/>
      <point x="259" y="701" type="curve" smooth="yes"/>
      <point x="256" y="706"/>
      <point x="251" y="710"/>
      <point x="243" y="710" type="curve"/>
      <point x="229" y="710"/>
      <point x="215" y="709"/>
      <point x="194" y="705" type="curve"/>
      <point x="192" y="670"/>
      <point x="183" y="625"/>
      <point x="175" y="597" type="curve" smooth="yes"/>
      <point x="33" y="27" type="line"/>
      <point x="26" y="-1"/>
      <point x="55" y="-10"/>
      <point x="79" y="-10" type="curve"/>
      <point x="89" y="-10"/>
      <point x="98" y="-9"/>
    </contour>
    <contour>
      <point x="542" y="-10" type="line"/>
      <point x="714" y="676" type="line"/>
      <point x="720" y="701"/>
      <point x="693" y="710"/>
      <point x="656" y="710" type="curve"/>
      <point x="642" y="710" type="line"/>
      <point x="509" y="183" type="line"/>
      <point x="487" y="80"/>
      <point x="483" y="21"/>
      <point x="493" y="7" type="curve" smooth="yes"/>
      <point x="501" y="-3"/>
      <point x="514" y="-10"/>
      <point x="526" y="-10" type="curve"/>
    </contour>
    <contour>
      <point x="243" y="710" type="line"/>
      <point x="248" y="687"/>
      <point x="248" y="660"/>
      <point x="248" y="632" type="curve"/>
      <point x="262" y="350"/>
      <point x="369" y="139"/>
      <point x="466" y="10" type="curve"/>
      <point x="475" y="-3"/>
      <point x="496" y="-10"/>
      <point x="526" y="-10" type="curve" smooth="yes"/>
      <point x="530" y="-10"/>
      <point x="529" y="-10"/>
      <point x="533" y="-10" type="curve"/>
      <point x="536" y="-10"/>
      <point x="541" y="11"/>
      <point x="542" y="44" type="curve"/>
      <point x="395" y="240"/>
      <point x="334" y="428"/>
      <point x="310" y="679" type="curve"/>
      <point x="309" y="697"/>
      <point x="281" y="710"/>
      <point x="246" y="710" type="curve"/>
    </contour>
    <contour>
      <point x="459" y="711" type="move" name="top"/>
    </contour>
    <contour>
      <point x="281" y="-1" type="move" name="bottom"/>
    </contour>
  </outline>
</glyph>
<glyph name="O" format="1">
  <advance width="650"/>
  <unicode hex="004F"/>
  <outline>
    <contour>
      <point x="427" y="720" type="curve" smooth="yes"/>
      <point x="263" y="720"/>
      <point x="157" y="615"/>
      <point x="97" y="377" type="curve" smooth="yes"/>
      <point x="87" y="337" type="line" smooth="yes"/>
      <point x="29" y="109"/>
      <point x="99" y="-20"/>
      <point x="269" y="-20" type="curve" smooth="yes"/>
      <point x="292" y="-20"/>
      <point x="311" y="3"/>
      <point x="320" y="38" type="curve"/>
      <point x="161" y="37"/>
      <point x="121" y="142"/>
      <point x="167" y="331" type="curve" smooth="yes"/>
      <point x="175" y="366" type="line" smooth="yes"/>
      <point x="225" y="569"/>
      <point x="306" y="639"/>
      <point x="418" y="639" type="curve" smooth="yes"/>
      <point x="462" y="639"/>
      <point x="504" y="627"/>
      <point x="541" y="606" type="curve"/>
      <point x="575" y="642"/>
      <point x="508" y="720"/>
    </contour>
    <contour>
      <point x="269" y="-20" type="curve" smooth="yes"/>
      <point x="440" y="-20"/>
      <point x="542" y="94"/>
      <point x="599" y="329" type="curve" smooth="yes"/>
      <point x="608" y="367" type="line" smooth="yes"/>
      <point x="663" y="591"/>
      <point x="593" y="720"/>
      <point x="427" y="720" type="curve" smooth="yes"/>
      <point x="404" y="720"/>
      <point x="386" y="697"/>
      <point x="377" y="662" type="curve"/>
      <point x="534" y="662"/>
      <point x="575" y="553"/>
      <point x="528" y="368" type="curve" smooth="yes"/>
      <point x="519" y="333" type="line" smooth="yes"/>
      <point x="468" y="134"/>
      <point x="391" y="61"/>
      <point x="279" y="61" type="curve" smooth="yes"/>
      <point x="236" y="61"/>
      <point x="191" y="72"/>
      <point x="156" y="94" type="curve"/>
      <point x="122" y="57"/>
      <point x="190" y="-20"/>
    </contour>
    <contour>
      <point x="437" y="711" type="move" name="top"/>
    </contour>
    <contour>
      <point x="358" y="-1" type="move" name="ogonek"/>
    </contour>
    <contour>
      <point x="259" y="-1" type="move" name="bottom"/>
    </contour>
  </outline>
</glyph>
<glyph name="P" format="1">
  <advance width="600"/>
  <unicode hex="0050"/>
  <outline>
    <contour>
      <point x="117" y="-6" type="curve"/>
      <point x="119" y="30"/>
      <point x="127" y="65"/>
      <point x="136" y="103" type="curve" smooth="yes"/>
      <point x="254" y="578" type="line" smooth="yes"/>
      <point x="269" y="638"/>
      <point x="249" y="662"/>
      <point x="191" y="662" type="curve"/>
      <point x="39" y="53" type="line" smooth="yes"/>
      <point x="33" y="30"/>
      <point x="32" y="14"/>
      <point x="40" y="2" type="curve" smooth="yes"/>
      <point x="47" y="-6"/>
      <point x="58" y="-10"/>
      <point x="83" y="-10" type="curve" smooth="yes"/>
      <point x="95" y="-10"/>
      <point x="106" y="-9"/>
    </contour>
    <contour>
      <point x="151" y="700" type="curve"/>
      <point x="148" y="693"/>
      <point x="145" y="685"/>
      <point x="143" y="675" type="curve"/>
      <point x="137" y="652"/>
      <point x="138" y="638"/>
      <point x="145" y="628" type="curve" smooth="yes"/>
      <point x="149" y="623"/>
      <point x="155" y="622"/>
      <point x="160" y="622" type="curve" smooth="yes"/>
      <point x="168" y="622"/>
      <point x="180" y="624"/>
      <point x="201" y="627" type="curve" smooth="yes"/>
      <point x="250" y="635"/>
      <point x="317" y="642"/>
      <point x="373" y="642" type="curve" smooth="yes"/>
      <point x="463" y="642"/>
      <point x="498" y="627"/>
      <point x="541" y="577" type="curve"/>
      <point x="584" y="632"/>
      <point x="501" y="720"/>
      <point x="408" y="720" type="curve" smooth="yes"/>
      <point x="329" y="720"/>
      <point x="248" y="715"/>
    </contour>
    <contour>
      <point x="581" y="460" type="curve" smooth="yes"/>
      <point x="593" y="511" type="line" smooth="yes"/>
      <point x="623" y="630"/>
      <point x="554" y="720"/>
      <point x="408" y="720" type="curve"/>
      <point x="381" y="720"/>
      <point x="367" y="705"/>
      <point x="362" y="682" type="curve"/>
      <point x="484" y="677"/>
      <point x="538" y="622"/>
      <point x="509" y="508" type="curve" smooth="yes"/>
      <point x="500" y="470" type="line" smooth="yes"/>
      <point x="467" y="338"/>
      <point x="344" y="255"/>
      <point x="217" y="255" type="curve" smooth="yes"/>
      <point x="183" y="255"/>
      <point x="173" y="256"/>
      <point x="161" y="258" type="curve"/>
      <point x="155" y="254"/>
      <point x="151" y="249"/>
      <point x="150" y="241" type="curve" smooth="yes"/>
      <point x="142" y="214"/>
      <point x="181" y="179"/>
      <point x="216" y="179" type="curve" smooth="yes"/>
      <point x="220" y="179" type="line" smooth="yes"/>
      <point x="390" y="179"/>
      <point x="535" y="280"/>
    </contour>
  </outline>
</glyph>
<glyph name="Q" format="1">
  <advance width="650"/>
  <unicode hex="0051"/>
  <outline>
    <contour>
      <point x="427" y="720" type="curve" smooth="yes"/>
      <point x="263" y="720"/>
      <point x="157" y="615"/>
      <point x="97" y="377" type="curve" smooth="yes"/>
      <point x="87" y="337" type="line" smooth="yes"/>
      <point x="29" y="109"/>
      <point x="99" y="-20"/>
      <point x="269" y="-20" type="curve" smooth="yes"/>
      <point x="292" y="-20"/>
      <point x="311" y="3"/>
      <point x="320" y="38" type="curve"/>
      <point x="162" y="37"/>
      <point x="121" y="142"/>
      <point x="167" y="331" type="curve" smooth="yes"/>
      <point x="175" y="366" type="line" smooth="yes"/>
      <point x="225" y="569"/>
      <point x="306" y="639"/>
      <point x="418" y="639" type="curve" smooth="yes"/>
      <point x="462" y="639"/>
      <point x="504" y="628"/>
      <point x="541" y="606" type="curve"/>
      <point x="575" y="642"/>
      <point x="508" y="720"/>
    </contour>
    <contour>
      <point x="269" y="-20" type="curve" smooth="yes"/>
      <point x="440" y="-20"/>
      <point x="542" y="94"/>
      <point x="599" y="329" type="curve" smooth="yes"/>
      <point x="608" y="367" type="line" smooth="yes"/>
      <point x="663" y="591"/>
      <point x="593" y="720"/>
      <point x="427" y="720" type="curve" smooth="yes"/>
      <point x="404" y="720"/>
      <point x="385" y="697"/>
      <point x="377" y="662" type="curve"/>
      <point x="534" y="662"/>
      <point x="575" y="553"/>
      <point x="528" y="368" type="curve" smooth="yes"/>
      <point x="519" y="333" type="line" smooth="yes"/>
      <point x="468" y="134"/>
      <point x="391" y="61"/>
      <point x="279" y="61" type="curve" smooth="yes"/>
      <point x="236" y="61"/>
      <point x="191" y="72"/>
      <point x="156" y="94" type="curve"/>
      <point x="122" y="57"/>
      <point x="190" y="-20"/>
    </contour>
    <contour>
      <point x="395" y="77" type="line"/>
      <point x="344" y="50"/>
      <point x="325" y="28"/>
      <point x="329" y="13" type="curve" smooth="yes"/>
      <point x="366" y="-78" type="line" smooth="yes"/>
      <point x="392" y="-137"/>
      <point x="418" y="-164"/>
      <point x="460" y="-164" type="curve" smooth="yes"/>
      <point x="464" y="-164" type="line" smooth="yes"/>
      <point x="505" y="-164"/>
      <point x="532" y="-140"/>
      <point x="543" y="-95" type="curve" smooth="yes"/>
      <point x="547" y="-78"/>
      <point x="549" y="-65"/>
      <point x="549" y="-52" type="curve"/>
      <point x="545" y="-52" type="line"/>
      <point x="532" y="-62"/>
      <point x="517" y="-67"/>
      <point x="501" y="-67" type="curve" smooth="yes"/>
      <point x="474" y="-67"/>
      <point x="457" y="-56"/>
      <point x="442" y="-26" type="curve" smooth="yes"/>
    </contour>
  </outline>
</glyph>
<glyph name="R" format="1">
  <advance width="600"/>
  <unicode hex="0052"/>
  <outline>
    <contour>
      <point x="117" y="-6" type="curve"/>
      <point x="119" y="30"/>
      <point x="127" y="65"/>
      <point x="136" y="103" type="curve" smooth="yes"/>
      <point x="254" y="578" type="line" smooth="yes"/>
      <point x="269" y="638"/>
      <point x="249" y="662"/>
      <point x="191" y="662" type="curve"/>
      <point x="39" y="53" type="line" smooth="yes"/>
      <point x="33" y="30"/>
      <point x="32" y="14"/>
      <point x="40" y="2" type="curve" smooth="yes"/>
      <point x="47" y="-6"/>
      <point x="58" y="-10"/>
      <point x="83" y="-10" type="curve" smooth="yes"/>
      <point x="95" y="-10"/>
      <point x="106" y="-9"/>
    </contour>
    <contour>
      <point x="151" y="700" type="curve"/>
      <point x="148" y="692"/>
      <point x="145" y="684"/>
      <point x="143" y="675" type="curve"/>
      <point x="137" y="652"/>
      <point x="138" y="638"/>
      <point x="145" y="628" type="curve" smooth="yes"/>
      <point x="149" y="623"/>
      <point x="155" y="622"/>
      <point x="160" y="622" type="curve" smooth="yes"/>
      <point x="168" y="622"/>
      <point x="180" y="624"/>
      <point x="201" y="627" type="curve" smooth="yes"/>
      <point x="254" y="635"/>
      <point x="321" y="642"/>
      <point x="373" y="642" type="curve" smooth="yes"/>
      <point x="458" y="642"/>
      <point x="499" y="627"/>
      <point x="544" y="573" type="curve"/>
      <point x="582" y="629"/>
      <point x="509" y="720"/>
      <point x="401" y="720" type="curve" smooth="yes"/>
      <point x="324" y="720"/>
      <point x="246" y="715"/>
    </contour>
    <contour>
      <point x="578" y="461" type="curve" smooth="yes"/>
      <point x="590" y="512" type="line" smooth="yes"/>
      <point x="618" y="620"/>
      <point x="563" y="720"/>
      <point x="401" y="720" type="curve"/>
      <point x="378" y="720"/>
      <point x="363" y="704"/>
      <point x="358" y="682" type="curve"/>
      <point x="482" y="672"/>
      <point x="534" y="621"/>
      <point x="506" y="506" type="curve" smooth="yes"/>
      <point x="496" y="469" type="line" smooth="yes"/>
      <point x="467" y="348"/>
      <point x="346" y="273"/>
      <point x="212" y="273" type="curve" smooth="yes"/>
      <point x="175" y="273"/>
      <point x="166" y="274"/>
      <point x="155" y="278" type="curve"/>
      <point x="147" y="272"/>
      <point x="142" y="263"/>
      <point x="140" y="254" type="curve" smooth="yes"/>
      <point x="132" y="224"/>
      <point x="166" y="197"/>
      <point x="199" y="197" type="curve" smooth="yes"/>
      <point x="204" y="197" type="line" smooth="yes"/>
      <point x="384" y="197"/>
      <point x="538" y="301"/>
    </contour>
    <contour>
      <point x="318" y="268" type="line"/>
      <point x="270" y="243"/>
      <point x="250" y="221"/>
      <point x="255" y="208" type="curve" smooth="yes"/>
      <point x="330" y="58" type="line" smooth="yes"/>
      <point x="355" y="2"/>
      <point x="384" y="-20"/>
      <point x="427" y="-20" type="curve" smooth="yes"/>
      <point x="431" y="-20" type="line" smooth="yes"/>
      <point x="468" y="-20"/>
      <point x="489" y="0"/>
      <point x="499" y="41" type="curve" smooth="yes"/>
      <point x="502" y="54"/>
      <point x="504" y="67"/>
      <point x="504" y="79" type="curve"/>
      <point x="500" y="79" type="line"/>
      <point x="486" y="69"/>
      <point x="472" y="63"/>
      <point x="455" y="63" type="curve" smooth="yes"/>
      <point x="430" y="63"/>
      <point x="412" y="77"/>
      <point x="397" y="111" type="curve" smooth="yes"/>
    </contour>
    <contour>
      <point x="411" y="711" type="move" name="top"/>
    </contour>
    <contour>
      <point x="233" y="-1" type="move" name="bottom"/>
    </contour>
  </outline>
</glyph>
<glyph name="U" format="1">
  <advance width="650"/>
  <unicode hex="0055"/>
  <outline>
    <contour>
      <point x="182" y="705" type="curve"/>
      <point x="183" y="670"/>
      <point x="176" y="629"/>
      <point x="163" y="576" type="curve" smooth="yes"/>
      <point x="57" y="153" type="line"/>
      <point x="47" y="113"/>
      <point x="68" y="95"/>
      <point x="113" y="108" type="curve"/>
      <point x="173" y="285"/>
      <point x="212" y="395"/>
      <point x="249" y="545" type="curve"/>
      <point x="251" y="550" type="line"/>
      <point x="281" y="673"/>
      <point x="261" y="710"/>
      <point x="217" y="710" type="curve"/>
      <point x="204" y="710"/>
      <point x="194" y="708"/>
    </contour>
    <contour>
      <point x="169" y="-17" type="curve" smooth="yes"/>
      <point x="257" y="-17"/>
      <point x="351" y="28"/>
      <point x="445" y="126" type="curve" smooth="yes"/>
      <point x="478" y="164"/>
      <point x="491" y="186"/>
      <point x="483" y="230" type="curve"/>
      <point x="362" y="111"/>
      <point x="280" y="71"/>
      <point x="195" y="71" type="curve" smooth="yes"/>
      <point x="140" y="71"/>
      <point x="113" y="101"/>
      <point x="128" y="203" type="curve"/>
      <point x="93" y="190"/>
      <point x="62" y="172"/>
      <point x="57" y="153" type="curve" smooth="yes"/>
      <point x="36" y="66"/>
      <point x="77" y="-17"/>
    </contour>
    <contour>
      <point x="500" y="-7" type="curve"/>
      <point x="502" y="28"/>
      <point x="510" y="63"/>
      <point x="519" y="100" type="curve" smooth="yes"/>
      <point x="663" y="675" type="line" smooth="yes"/>
      <point x="669" y="701"/>
      <point x="648" y="710"/>
      <point x="609" y="710" type="curve" smooth="yes"/>
      <point x="602" y="710"/>
      <point x="594" y="709"/>
      <point x="587" y="708" type="curve"/>
      <point x="426" y="62" type="line" smooth="yes"/>
      <point x="419" y="36"/>
      <point x="418" y="18"/>
      <point x="428" y="4" type="curve" smooth="yes"/>
      <point x="435" y="-5"/>
      <point x="451" y="-10"/>
      <point x="473" y="-10" type="curve" smooth="yes"/>
      <point x="483" y="-10"/>
      <point x="491" y="-9"/>
    </contour>
    <contour>
      <point x="431" y="711" type="move" name="top"/>
    </contour>
    <contour>
      <point x="500" y="-8" type="move" name="ogonek"/>
    </contour>
    <contour>
      <point x="429" y="704" type="move" name="ring"/>
    </contour>
    <contour>
      <point x="253" y="-1" type="move" name="bottom"/>
    </contour>
  </outline>
</glyph>
<glyph name="V" format="1">
  <advance width="650"/>
  <unicode hex="0056"/>
  <outline>
    <contour>
      <point x="185" y="710" type="curve"/>
      <point x="170" y="710" type="line"/>
      <point x="88" y="317"/>
      <point x="104" y="153"/>
      <point x="203" y="21" type="curve"/>
      <point x="221" y="-3"/>
      <point x="239" y="-10"/>
      <point x="260" y="-10" type="curve"/>
      <point x="288" y="-10"/>
      <point x="304" y="5"/>
      <point x="323" y="36" type="curve"/>
      <point x="317" y="36"/>
      <point x="314" y="36"/>
      <point x="309" y="36" type="curve" smooth="yes"/>
      <point x="304" y="36"/>
      <point x="299" y="37"/>
      <point x="294" y="42" type="curve"/>
      <point x="187" y="169"/>
      <point x="165" y="289"/>
      <point x="246" y="681" type="curve"/>
      <point x="250" y="699"/>
      <point x="232" y="710"/>
    </contour>
    <contour>
      <point x="632" y="710" type="curve"/>
      <point x="617" y="710" type="line"/>
      <point x="492" y="308"/>
      <point x="418" y="175"/>
      <point x="246" y="51" type="curve"/>
      <point x="226" y="37"/>
      <point x="222" y="-10"/>
      <point x="260" y="-10" type="curve"/>
      <point x="293" y="-10" type="line"/>
      <point x="475" y="119"/>
      <point x="581" y="306"/>
      <point x="691" y="668" type="curve"/>
      <point x="698" y="691"/>
      <point x="672" y="710"/>
    </contour>
  </outline>
</glyph>
<glyph name="W" format="1">
  <advance width="900"/>
  <unicode hex="0057"/>
  <outline>
    <contour>
      <point x="166" y="710" type="curve"/>
      <point x="82" y="331"/>
      <point x="75" y="162"/>
      <point x="139" y="34" type="curve"/>
      <point x="154" y="5"/>
      <point x="173" y="-10"/>
      <point x="194" y="-10" type="curve"/>
      <point x="212" y="-10" type="line" smooth="yes"/>
      <point x="223" y="-10"/>
      <point x="228" y="10"/>
      <point x="234" y="35" type="curve"/>
      <point x="160" y="142"/>
      <point x="158" y="263"/>
      <point x="241" y="673" type="curve"/>
      <point x="243" y="686"/>
      <point x="242" y="689"/>
      <point x="239" y="694" type="curve" smooth="yes"/>
      <point x="231" y="705"/>
      <point x="208" y="710"/>
      <point x="181" y="710" type="curve"/>
      <point x="176" y="710"/>
      <point x="171" y="710"/>
    </contour>
    <contour>
      <point x="871" y="710" type="curve"/>
      <point x="760" y="331"/>
      <point x="694" y="182"/>
      <point x="554" y="51" type="curve"/>
      <point x="533" y="32"/>
      <point x="537" y="-10"/>
      <point x="570" y="-10" type="curve"/>
      <point x="602" y="-10" type="line"/>
      <point x="755" y="122"/>
      <point x="857" y="353"/>
      <point x="945" y="666" type="curve" smooth="yes"/>
      <point x="948" y="676"/>
      <point x="948" y="681"/>
      <point x="945" y="686" type="curve" smooth="yes"/>
      <point x="935" y="699"/>
      <point x="911" y="710"/>
      <point x="885" y="710" type="curve"/>
      <point x="881" y="710"/>
      <point x="876" y="710"/>
    </contour>
    <contour>
      <point x="526" y="615" type="curve"/>
      <point x="493" y="615" type="line"/>
      <point x="383" y="322"/>
      <point x="301" y="172"/>
      <point x="183" y="46" type="curve"/>
      <point x="162" y="27"/>
      <point x="170" y="-10"/>
      <point x="194" y="-10" type="curve"/>
      <point x="227" y="-10" type="line"/>
      <point x="349" y="117"/>
      <point x="447" y="291"/>
      <point x="544" y="562" type="curve" smooth="yes"/>
      <point x="555" y="593"/>
      <point x="545" y="615"/>
    </contour>
    <contour>
      <point x="529" y="615" type="curve"/>
      <point x="516" y="615" type="line"/>
      <point x="471" y="305"/>
      <point x="473" y="140"/>
      <point x="519" y="19" type="curve" smooth="yes"/>
      <point x="531" y="-2"/>
      <point x="545" y="-10"/>
      <point x="570" y="-10" type="curve"/>
      <point x="586" y="-10" type="line"/>
      <point x="593" y="-10"/>
      <point x="600" y="9"/>
      <point x="600" y="36" type="curve"/>
      <point x="541" y="166"/>
      <point x="540" y="291"/>
      <point x="578" y="583" type="curve" smooth="yes"/>
      <point x="579" y="600"/>
      <point x="561" y="615"/>
    </contour>
    <contour>
      <point x="561" y="711" type="move" name="top"/>
    </contour>
  </outline>
</glyph>
<glyph name="X" format="1">
  <advance width="650"/>
  <unicode hex="0058"/>
  <outline>
    <contour>
      <point x="498" y="-7" type="curve" smooth="yes"/>
      <point x="515" y="-7"/>
      <point x="531" y="-5"/>
      <point x="544" y="0" type="curve"/>
      <point x="478" y="77"/>
      <point x="411" y="197"/>
      <point x="354" y="320" type="curve" smooth="yes"/>
      <point x="350" y="328"/>
      <point x="347" y="338"/>
      <point x="344" y="347" type="curve" smooth="yes"/>
      <point x="288" y="469"/>
      <point x="246" y="592"/>
      <point x="231" y="680" type="curve" smooth="yes"/>
      <point x="228" y="699"/>
      <point x="212" y="707"/>
      <point x="156" y="707" type="curve" smooth="yes"/>
      <point x="139" y="707" type="line"/>
      <point x="161" y="585"/>
      <point x="216" y="434"/>
      <point x="278" y="298" type="curve" smooth="yes"/>
      <point x="281" y="290"/>
      <point x="285" y="280"/>
      <point x="289" y="272" type="curve" smooth="yes"/>
      <point x="340" y="168"/>
      <point x="394" y="75"/>
      <point x="438" y="19" type="curve" smooth="yes"/>
      <point x="450" y="0"/>
      <point x="464" y="-7"/>
    </contour>
    <contour>
      <point x="638" y="707" type="curve" smooth="yes"/>
      <point x="626" y="707" type="line"/>
      <point x="540" y="553"/>
      <point x="452" y="447"/>
      <point x="314" y="341" type="curve"/>
      <point x="282" y="315"/>
      <point x="316" y="283"/>
      <point x="357" y="287" type="curve"/>
      <point x="512" y="401"/>
      <point x="613" y="512"/>
      <point x="707" y="669" type="curve"/>
      <point x="712" y="678"/>
      <point x="714" y="686"/>
      <point x="710" y="690" type="curve" smooth="yes"/>
      <point x="697" y="703"/>
      <point x="664" y="707"/>
    </contour>
    <contour>
      <point x="37" y="-7" type="curve"/>
      <point x="48" y="-7" type="line"/>
      <point x="121" y="99"/>
      <point x="212" y="190"/>
      <point x="316" y="268" type="curve"/>
      <point x="346" y="292"/>
      <point x="315" y="330"/>
      <point x="280" y="332" type="curve"/>
      <point x="144" y="228"/>
      <point x="43" y="137"/>
      <point x="-35" y="35" type="curve" smooth="yes"/>
      <point x="-42" y="25"/>
      <point x="-42" y="16"/>
      <point x="-37" y="11" type="curve" smooth="yes"/>
      <point x="-25" y="-2"/>
      <point x="1" y="-7"/>
    </contour>
  </outline>
</glyph>
<glyph name="Y" format="1">
  <advance width="600"/>
  <unicode hex="0059"/>
  <outline>
    <contour>
      <point x="155" y="710" type="line"/>
      <point x="129" y="453"/>
      <point x="158" y="349"/>
      <point x="245" y="234" type="curve"/>
      <point x="256" y="218"/>
      <point x="272" y="216"/>
      <point x="285" y="216" type="curve"/>
      <point x="307" y="216"/>
      <point x="318" y="228"/>
      <point x="328" y="265" type="curve"/>
      <point x="236" y="364"/>
      <point x="210" y="448"/>
      <point x="232" y="681" type="curve"/>
      <point x="234" y="699"/>
      <point x="217" y="710"/>
      <point x="169" y="710" type="curve" smooth="yes"/>
    </contour>
    <contour>
      <point x="580" y="710" type="line"/>
      <point x="495" y="482"/>
      <point x="418" y="384"/>
      <point x="272" y="273" type="curve"/>
      <point x="240" y="250"/>
      <point x="264" y="216"/>
      <point x="285" y="216" type="curve"/>
      <point x="321" y="216" type="line"/>
      <point x="472" y="336"/>
      <point x="573" y="456"/>
      <point x="653" y="668" type="curve"/>
      <point x="661" y="691"/>
      <point x="637" y="710"/>
      <point x="594" y="710" type="curve"/>
    </contour>
    <contour>
      <point x="280" y="-6" type="curve"/>
      <point x="282" y="30"/>
      <point x="289" y="65"/>
      <point x="299" y="103" type="curve" smooth="yes"/>
      <point x="334" y="245" type="line" smooth="yes"/>
      <point x="341" y="271"/>
      <point x="305" y="282"/>
      <point x="259" y="282" type="curve"/>
      <point x="202" y="53" type="line" smooth="yes"/>
      <point x="196" y="30"/>
      <point x="195" y="13"/>
      <point x="203" y="2" type="curve" smooth="yes"/>
      <point x="209" y="-6"/>
      <point x="221" y="-10"/>
      <point x="246" y="-10" type="curve" smooth="yes"/>
      <point x="258" y="-10"/>
      <point x="268" y="-9"/>
    </contour>
    <contour>
      <point x="411" y="711" type="move" name="top"/>
    </contour>
  </outline>
</glyph>
<glyph name="Z" format="1">
  <advance width="600"/>
  <unicode hex="005A"/>
  <outline>
    <contour>
      <point x="222" y="700" type="line"/>
      <point x="219" y="695"/>
      <point x="216" y="687"/>
      <point x="214" y="678" type="curve" smooth="yes"/>
      <point x="208" y="657"/>
      <point x="209" y="642"/>
      <point x="218" y="630" type="curve" smooth="yes"/>
      <point x="223" y="624"/>
      <point x="227" y="622"/>
      <point x="238" y="622" type="curve" smooth="yes"/>
      <point x="512" y="622" type="line" smooth="yes"/>
      <point x="565" y="622"/>
      <point x="588" y="611"/>
      <point x="608" y="590" type="curve" smooth="yes"/>
      <point x="625" y="598"/>
      <point x="632" y="603"/>
      <point x="635" y="614" type="curve"/>
      <point x="637" y="621" type="line" smooth="yes"/>
      <point x="648" y="665"/>
      <point x="624" y="700"/>
      <point x="561" y="700" type="curve" smooth="yes"/>
    </contour>
    <contour>
      <point x="571" y="654" type="curve"/>
      <point x="453" y="432"/>
      <point x="277" y="263"/>
      <point x="9" y="75" type="curve"/>
      <point x="1" y="43"/>
      <point x="49" y="36"/>
      <point x="86" y="55" type="curve" smooth="yes"/>
      <point x="386" y="241"/>
      <point x="614" y="532"/>
      <point x="635" y="614" type="curve"/>
      <point x="642" y="645"/>
      <point x="615" y="652"/>
    </contour>
    <contour>
      <point x="480" y="0" type="line"/>
      <point x="482" y="5"/>
      <point x="484" y="10"/>
      <point x="485" y="17" type="curve" smooth="yes"/>
      <point x="491" y="41"/>
      <point x="490" y="55"/>
      <point x="479" y="69" type="curve" smooth="yes"/>
      <point x="474" y="76"/>
      <point x="467" y="78"/>
      <point x="456" y="78" type="curve" smooth="yes"/>
      <point x="243" y="78" type="line" smooth="yes"/>
      <point x="177" y="78"/>
      <point x="77" y="77"/>
      <point x="9" y="75" type="curve"/>
      <point x="7" y="64" type="line" smooth="yes"/>
      <point x="-2" y="25"/>
      <point x="0" y="0"/>
      <point x="23" y="0" type="curve" smooth="yes"/>
    </contour>
    <contour>
      <point x="217" y="501" type="curve"/>
      <point x="241" y="596"/>
      <point x="275" y="665"/>
      <point x="281" y="687" type="curve"/>
      <point x="286" y="709"/>
      <point x="259" y="720"/>
      <point x="222" y="720" type="curve" smooth="yes"/>
      <point x="214" y="720" type="line"/>
      <point x="185" y="661"/>
      <point x="161" y="598"/>
      <point x="145" y="535" type="curve"/>
      <point x="138" y="508"/>
      <point x="156" y="499"/>
      <point x="192" y="499" type="curve" smooth="yes"/>
      <point x="201" y="499"/>
      <point x="210" y="500"/>
    </contour>
    <contour>
      <point x="411" y="711" type="move" name="top"/>
    </contour>
  </outline>
</glyph>
<glyph name="bracketleft" format="1">
  <advance width="400"/>
  <unicode hex="005B"/>
  <outline>
    <contour>
      <point x="145" y="647" type="curve" smooth="yes"/>
      <point x="-37" y="-81" type="line" smooth="yes"/>
      <point x="-43" y="-104"/>
      <point x="2" y="-108"/>
      <point x="41" y="-108" type="curve"/>
      <point x="246" y="711" type="line" smooth="yes"/>
      <point x="254" y="743"/>
      <point x="248" y="760"/>
      <point x="204" y="760" type="curve" smooth="yes"/>
      <point x="190" y="760"/>
      <point x="178" y="759"/>
      <point x="164" y="755" type="curve"/>
      <point x="162" y="720"/>
      <point x="155" y="685"/>
    </contour>
    <contour>
      <point x="458" y="679" type="line"/>
      <point x="463" y="687"/>
      <point x="467" y="697"/>
      <point x="469" y="707" type="curve" smooth="yes"/>
      <point x="472" y="720"/>
      <point x="475" y="741"/>
      <point x="466" y="753" type="curve" smooth="yes"/>
      <point x="462" y="758"/>
      <point x="458" y="760"/>
      <point x="449" y="760" type="curve" smooth="yes"/>
      <point x="204" y="760" type="line"/>
      <point x="192" y="711"/>
      <point x="204" y="679"/>
      <point x="280" y="679" type="curve"/>
    </contour>
    <contour>
      <point x="251" y="-161" type="line"/>
      <point x="253" y="-154"/>
      <point x="256" y="-145"/>
      <point x="259" y="-136" type="curve" smooth="yes"/>
      <point x="268" y="-97"/>
      <point x="262" y="-80"/>
      <point x="238" y="-80" type="curve" smooth="yes"/>
      <point x="-36" y="-80" type="line"/>
      <point x="-40" y="-92" type="line" smooth="yes"/>
      <point x="-47" y="-124"/>
      <point x="-28" y="-161"/>
      <point x="-2" y="-161" type="curve" smooth="yes"/>
    </contour>
  </outline>
</glyph>
<glyph name="backslash" format="1">
  <advance width="600"/>
  <unicode hex="005C"/>
  <outline>
    <contour>
      <point x="199" y="750" type="curve"/>
      <point x="196" y="431"/>
      <point x="237" y="149"/>
      <point x="322" y="-95" type="curve" smooth="yes"/>
      <point x="333" y="-126"/>
      <point x="353" y="-138"/>
      <point x="384" y="-138" type="curve" smooth="yes"/>
      <point x="403" y="-138"/>
      <point x="417" y="-134"/>
      <point x="434" y="-127" type="curve"/>
      <point x="419" y="-106"/>
      <point x="410" y="-84"/>
      <point x="400" y="-52" type="curve"/>
      <point x="325" y="184"/>
      <point x="289" y="444"/>
      <point x="290" y="725" type="curve"/>
      <point x="290" y="751"/>
      <point x="269" y="760"/>
      <point x="241" y="760" type="curve" smooth="yes"/>
      <point x="225" y="760"/>
      <point x="214" y="757"/>
    </contour>
  </outline>
</glyph>
<glyph name="bracketright" format="1">
  <advance width="400"/>
  <unicode hex="005D"/>
  <outline>
    <contour>
      <point x="272" y="-48" type="curve" smooth="yes"/>
      <point x="454" y="680" type="line" smooth="yes"/>
      <point x="460" y="703"/>
      <point x="416" y="707"/>
      <point x="376" y="707" type="curve"/>
      <point x="171" y="-112" type="line" smooth="yes"/>
      <point x="163" y="-144"/>
      <point x="169" y="-161"/>
      <point x="213" y="-161" type="curve" smooth="yes"/>
      <point x="228" y="-161"/>
      <point x="239" y="-160"/>
      <point x="254" y="-156" type="curve"/>
      <point x="256" y="-121"/>
      <point x="262" y="-86"/>
    </contour>
    <contour>
      <point x="-41" y="-80" type="line"/>
      <point x="-46" y="-88"/>
      <point x="-49" y="-98"/>
      <point x="-52" y="-108" type="curve" smooth="yes"/>
      <point x="-55" y="-121"/>
      <point x="-58" y="-142"/>
      <point x="-49" y="-154" type="curve" smooth="yes"/>
      <point x="-45" y="-159"/>
      <point x="-41" y="-161"/>
      <point x="-32" y="-161" type="curve" smooth="yes"/>
      <point x="213" y="-161" type="line"/>
      <point x="225" y="-112"/>
      <point x="213" y="-80"/>
      <point x="137" y="-80" type="curve"/>
    </contour>
    <contour>
      <point x="167" y="760" type="line"/>
      <point x="164" y="753"/>
      <point x="161" y="744"/>
      <point x="158" y="735" type="curve" smooth="yes"/>
      <point x="149" y="696"/>
      <point x="156" y="679"/>
      <point x="180" y="679" type="curve" smooth="yes"/>
      <point x="454" y="679" type="line"/>
      <point x="457" y="691" type="line" smooth="yes"/>
      <point x="465" y="723"/>
      <point x="445" y="760"/>
      <point x="419" y="760" type="curve" smooth="yes"/>
    </contour>
  </outline>
</glyph>
<glyph name="asciicircum" format="1">
  <advance width="600"/>
  <unicode hex="005E"/>
  <outline>
    <contour>
      <point x="162" y="369" type="line"/>
      <point x="241" y="532"/>
      <point x="311" y="608"/>
      <point x="432" y="708" type="curve"/>
      <point x="446" y="739"/>
      <point x="439" y="755"/>
      <point x="421" y="760" type="curve"/>
      <point x="394" y="760" type="line"/>
      <point x="299" y="692"/>
      <point x="212" y="599"/>
      <point x="135" y="476" type="curve" smooth="yes"/>
      <point x="112" y="437"/>
      <point x="99" y="411"/>
      <point x="96" y="400" type="curve" smooth="yes"/>
      <point x="92" y="382"/>
      <point x="115" y="369"/>
      <point x="150" y="369" type="curve"/>
    </contour>
    <contour>
      <point x="559" y="375" type="curve"/>
      <point x="560" y="553"/>
      <point x="526" y="642"/>
      <point x="468" y="730" type="curve" smooth="yes"/>
      <point x="453" y="754"/>
      <point x="443" y="760"/>
      <point x="425" y="760" type="curve" smooth="yes"/>
      <point x="417" y="760" type="line" smooth="yes"/>
      <point x="401" y="760"/>
      <point x="373" y="734"/>
      <point x="357" y="710" type="curve"/>
      <point x="362" y="710"/>
      <point x="366" y="710"/>
      <point x="368" y="710" type="curve" smooth="yes"/>
      <point x="373" y="710"/>
      <point x="378" y="707"/>
      <point x="382" y="701" type="curve" smooth="yes"/>
      <point x="451" y="608"/>
      <point x="471" y="547"/>
      <point x="477" y="395" type="curve" smooth="yes"/>
      <point x="478" y="380"/>
      <point x="496" y="370"/>
      <point x="527" y="370" type="curve" smooth="yes"/>
      <point x="539" y="370"/>
      <point x="548" y="372"/>
    </contour>
  </outline>
</glyph>
<glyph name="underscore" format="1">
  <advance width="600"/>
  <unicode hex="005F"/>
  <outline>
    <contour>
      <point x="-31" y="-84" type="line"/>
      <point x="-32" y="-88"/>
      <point x="-33" y="-93"/>
      <point x="-34" y="-97" type="curve" smooth="yes"/>
      <point x="-41" y="-127"/>
      <point x="-41" y="-145"/>
      <point x="-33" y="-156" type="curve" smooth="yes"/>
      <point x="-28" y="-163"/>
      <point x="-19" y="-166"/>
      <point x="-2" y="-166" type="curve"/>
      <point x="437" y="-166" type="line"/>
      <point x="440" y="-157"/>
      <point x="444" y="-147"/>
      <point x="446" y="-139" type="curve" smooth="yes"/>
      <point x="455" y="-103"/>
      <point x="451" y="-84"/>
      <point x="421" y="-84" type="curve"/>
    </contour>
  </outline>
</glyph>
<glyph name="grave" format="1">
  <advance width="350"/>
  <unicode hex="0060"/>
  <outline>
    <contour>
      <point x="305" y="404" type="curve"/>
      <point x="272" y="495"/>
      <point x="271" y="568"/>
      <point x="307" y="712" type="curve"/>
      <point x="293" y="718"/>
      <point x="281" y="720"/>
      <point x="263" y="720" type="curve" smooth="yes"/>
      <point x="224" y="720"/>
      <point x="191" y="710"/>
      <point x="181" y="672" type="curve" smooth="yes"/>
      <point x="151" y="552"/>
      <point x="174" y="447"/>
      <point x="213" y="396" type="curve" smooth="yes"/>
      <point x="219" y="388"/>
      <point x="226" y="385"/>
      <point x="240" y="385" type="curve" smooth="yes"/>
      <point x="266" y="385"/>
      <point x="283" y="391"/>
    </contour>
  </outline>
</glyph>
<glyph name="b" format="1">
  <advance width="600"/>
  <unicode hex="0062"/>
  <outline>
    <contour>
      <point x="25" y="0" type="line"/>
      <point x="32" y="-3"/>
      <point x="41" y="-5"/>
      <point x="54" y="-5" type="curve" smooth="yes"/>
      <point x="90" y="-5"/>
      <point x="110" y="15"/>
      <point x="118" y="47" type="curve" smooth="yes"/>
      <point x="284" y="689" type="line"/>
      <point x="296" y="737"/>
      <point x="283" y="759"/>
      <point x="244" y="759" type="curve" smooth="yes"/>
      <point x="231" y="759"/>
      <point x="218" y="757"/>
      <point x="204" y="753" type="curve"/>
      <point x="208" y="725"/>
      <point x="205" y="703"/>
      <point x="193" y="656" type="curve" smooth="yes"/>
    </contour>
    <contour>
      <point x="437" y="541" type="curve" smooth="yes"/>
      <point x="348" y="541"/>
      <point x="244" y="461"/>
      <point x="184" y="353" type="curve" smooth="yes"/>
      <point x="162" y="314"/>
      <point x="154" y="267"/>
      <point x="159" y="238" type="curve"/>
      <point x="263" y="401"/>
      <point x="342" y="459"/>
      <point x="418" y="459" type="curve" smooth="yes"/>
      <point x="476" y="459"/>
      <point x="507" y="414"/>
      <point x="503" y="317" type="curve"/>
      <point x="536" y="318"/>
      <point x="547" y="322"/>
      <point x="549" y="330" type="curve" smooth="yes"/>
      <point x="580" y="452"/>
      <point x="537" y="541"/>
    </contour>
    <contour>
      <point x="257" y="-11" type="curve" smooth="yes"/>
      <point x="390" y="-11"/>
      <point x="487" y="75"/>
      <point x="543" y="308" type="curve" smooth="yes"/>
      <point x="549" y="330" type="line" smooth="yes"/>
      <point x="561" y="383"/>
      <point x="552" y="470"/>
      <point x="505" y="470" type="curve"/>
      <point x="493" y="470"/>
      <point x="481" y="463"/>
      <point x="475" y="452" type="curve"/>
      <point x="482" y="405"/>
      <point x="478" y="373"/>
      <point x="464" y="319" type="curve" smooth="yes"/>
      <point x="460" y="303" type="line" smooth="yes"/>
      <point x="418" y="146"/>
      <point x="352" y="66"/>
      <point x="253" y="66" type="curve" smooth="yes"/>
      <point x="191" y="66"/>
      <point x="158" y="89"/>
      <point x="131" y="144" type="curve"/>
      <point x="121" y="135"/>
      <point x="112" y="114"/>
      <point x="116" y="100" type="curve" smooth="yes"/>
      <point x="111" y="54"/>
      <point x="173" y="-11"/>
    </contour>
  </outline>
</glyph>
<glyph name="c" format="1">
  <advance width="500"/>
  <unicode hex="0063"/>
  <outline>
    <contour>
      <point x="370" y="541" type="curve" smooth="yes"/>
      <point x="223" y="541"/>
      <point x="111" y="448"/>
      <point x="61" y="256" type="curve" smooth="yes"/>
      <point x="57" y="238" type="line" smooth="yes"/>
      <point x="14" y="74"/>
      <point x="96" y="-11"/>
      <point x="228" y="-11" type="curve" smooth="yes"/>
      <point x="244" y="-11"/>
      <point x="255" y="0"/>
      <point x="260" y="33" type="curve"/>
      <point x="149" y="39"/>
      <point x="111" y="125"/>
      <point x="135" y="224" type="curve" smooth="yes"/>
      <point x="139" y="239" type="line" smooth="yes"/>
      <point x="172" y="371"/>
      <point x="249" y="458"/>
      <point x="356" y="458" type="curve" smooth="yes"/>
      <point x="412" y="458"/>
      <point x="443" y="446"/>
      <point x="472" y="412" type="curve"/>
      <point x="476" y="412" type="line"/>
      <point x="485" y="425"/>
      <point x="490" y="436"/>
      <point x="494" y="453" type="curve"/>
      <point x="500" y="478"/>
      <point x="498" y="489"/>
      <point x="489" y="501" type="curve" smooth="yes"/>
      <point x="473" y="523"/>
      <point x="430" y="541"/>
    </contour>
    <contour>
      <point x="228" y="-11" type="curve" smooth="yes"/>
      <point x="298" y="-11"/>
      <point x="344" y="5"/>
      <point x="371" y="26" type="curve" smooth="yes"/>
      <point x="390" y="42"/>
      <point x="399" y="57"/>
      <point x="408" y="93" type="curve"/>
      <point x="411" y="106"/>
      <point x="412" y="120"/>
      <point x="412" y="130" type="curve"/>
      <point x="408" y="130" type="line"/>
      <point x="360" y="91"/>
      <point x="314" y="69"/>
      <point x="246" y="69" type="curve" smooth="yes"/>
      <point x="180" y="69"/>
      <point x="145" y="87"/>
      <point x="94" y="142" type="curve"/>
      <point x="52" y="72"/>
      <point x="114" y="-11"/>
    </contour>
    <contour>
      <point x="350" y="541" type="move" name="top"/>
    </contour>
    <contour>
      <point x="216" y="-1" type="move" name="bottom"/>
    </contour>
  </outline>
</glyph>
<glyph name="d" format="1">
  <advance width="600"/>
  <unicode hex="0064"/>
  <outline>
    <contour>
      <point x="340" y="541" type="curve" smooth="yes"/>
      <point x="207" y="541"/>
      <point x="109" y="452"/>
      <point x="53" y="219" type="curve" smooth="yes"/>
      <point x="48" y="200" type="line" smooth="yes"/>
      <point x="35" y="146"/>
      <point x="46" y="59"/>
      <point x="93" y="59" type="curve" smooth="yes"/>
      <point x="106" y="59"/>
      <point x="118" y="66"/>
      <point x="123" y="77" type="curve"/>
      <point x="117" y="124"/>
      <point x="119" y="157"/>
      <point x="133" y="211" type="curve" smooth="yes"/>
      <point x="137" y="225" type="line" smooth="yes"/>
      <point x="176" y="379"/>
      <point x="245" y="465"/>
      <point x="344" y="465" type="curve" smooth="yes"/>
      <point x="406" y="465"/>
      <point x="439" y="442"/>
      <point x="466" y="386" type="curve"/>
      <point x="476" y="395"/>
      <point x="484" y="416"/>
      <point x="481" y="429" type="curve" smooth="yes"/>
      <point x="485" y="477"/>
      <point x="427" y="541"/>
    </contour>
    <contour>
      <point x="159" y="-11" type="curve" smooth="yes"/>
      <point x="248" y="-11"/>
      <point x="353" y="69"/>
      <point x="414" y="177" type="curve" smooth="yes"/>
      <point x="435" y="216"/>
      <point x="443" y="264"/>
      <point x="438" y="292" type="curve"/>
      <point x="337" y="129"/>
      <point x="256" y="71"/>
      <point x="179" y="71" type="curve" smooth="yes"/>
      <point x="119" y="71"/>
      <point x="90" y="116"/>
      <point x="94" y="214" type="curve"/>
      <point x="61" y="212"/>
      <point x="50" y="208"/>
      <point x="48" y="200" type="curve" smooth="yes"/>
      <point x="17" y="81"/>
      <point x="60" y="-11"/>
    </contour>
    <contour>
      <point x="537" y="753" type="curve"/>
      <point x="538" y="724"/>
      <point x="536" y="705"/>
      <point x="524" y="661" type="curve" smooth="yes"/>
      <point x="384" y="114" type="line"/>
      <point x="371" y="62"/>
      <point x="367" y="30"/>
      <point x="379" y="13" type="curve" smooth="yes"/>
      <point x="389" y="0"/>
      <point x="407" y="-4"/>
      <point x="423" y="-4" type="curve" smooth="yes"/>
      <point x="431" y="-4"/>
      <point x="439" y="-3"/>
      <point x="447" y="-1" type="curve"/>
      <point x="446" y="29"/>
      <point x="448" y="48"/>
      <point x="460" y="92" type="curve" smooth="yes"/>
      <point x="612" y="688" type="line"/>
      <point x="618" y="712"/>
      <point x="621" y="731"/>
      <point x="612" y="742" type="curve" smooth="yes"/>
      <point x="603" y="755"/>
      <point x="588" y="757"/>
      <point x="568" y="757" type="curve" smooth="yes"/>
      <point x="558" y="757"/>
      <point x="546" y="756"/>
    </contour>
    <contour>
      <point x="635" y="711" type="move" name="caronslovak"/>
    </contour>
  </outline>
</glyph>
<glyph name="f" format="1">
  <advance width="450"/>
  <unicode hex="0066"/>
  <outline>
    <contour>
      <point x="179" y="-6" type="curve"/>
      <point x="178" y="28"/>
      <point x="181" y="53"/>
      <point x="193" y="99" type="curve" smooth="yes"/>
      <point x="297" y="515" type="line" smooth="yes"/>
      <point x="300" y="544"/>
      <point x="304" y="566"/>
      <point x="311" y="597" type="curve" smooth="yes"/>
      <point x="333" y="685"/>
      <point x="384" y="729"/>
      <point x="463" y="728" type="curve"/>
      <point x="468" y="750"/>
      <point x="460" y="762"/>
      <point x="444" y="762" type="curve" smooth="yes"/>
      <point x="334" y="762"/>
      <point x="262" y="711"/>
      <point x="233" y="599" type="curve" smooth="yes"/>
      <point x="98" y="60" type="line" smooth="yes"/>
      <point x="85" y="4"/>
      <point x="107" y="-9"/>
      <point x="158" y="-9" type="curve" smooth="yes"/>
      <point x="166" y="-9"/>
      <point x="172" y="-8"/>
    </contour>
    <contour>
      <point x="295" y="637" type="curve"/>
      <point x="341" y="674"/>
      <point x="377" y="685"/>
      <point x="423" y="685" type="curve" smooth="yes"/>
      <point x="472" y="685"/>
      <point x="506" y="675"/>
      <point x="530" y="658" type="curve"/>
      <point x="534" y="658" type="line"/>
      <point x="539" y="666"/>
      <point x="542" y="676"/>
      <point x="545" y="686" type="curve"/>
      <point x="550" y="708"/>
      <point x="549" y="727"/>
      <point x="542" y="736" type="curve" smooth="yes"/>
      <point x="533" y="748"/>
      <point x="501" y="762"/>
      <point x="444" y="762" type="curve" smooth="yes"/>
      <point x="353" y="762"/>
      <point x="281" y="695"/>
    </contour>
    <contour>
      <point x="107" y="524" type="curve"/>
      <point x="106" y="520"/>
      <point x="105" y="516"/>
      <point x="104" y="511" type="curve" smooth="yes"/>
      <point x="97" y="484"/>
      <point x="98" y="467"/>
      <point x="106" y="456" type="curve" smooth="yes"/>
      <point x="113" y="447"/>
      <point x="121" y="443"/>
      <point x="145" y="443" type="curve" smooth="yes"/>
      <point x="269" y="443"/>
      <point x="344" y="443"/>
      <point x="460" y="443" type="curve"/>
      <point x="463" y="450"/>
      <point x="466" y="460"/>
      <point x="468" y="469" type="curve" smooth="yes"/>
      <point x="477" y="505"/>
      <point x="473" y="524"/>
      <point x="443" y="524" type="curve" smooth="yes"/>
      <point x="348" y="524"/>
      <point x="230" y="524"/>
    </contour>
  </outline>
</glyph>
<glyph name="g" format="1">
  <advance width="600"/>
  <unicode hex="0067"/>
  <outline>
    <contour>
      <point x="365" y="471" type="curve" smooth="yes"/>
      <point x="510" y="471"/>
      <point x="554" y="458"/>
      <point x="584" y="458" type="curve" smooth="yes"/>
      <point x="606" y="458"/>
      <point x="619" y="479"/>
      <point x="627" y="508" type="curve" smooth="yes"/>
      <point x="629" y="517"/>
      <point x="630" y="526"/>
      <point x="630" y="531" type="curve"/>
      <point x="553" y="539"/>
      <point x="486" y="545"/>
      <point x="384" y="545" type="curve" smooth="yes"/>
      <point x="224" y="545"/>
      <point x="138" y="484"/>
      <point x="108" y="367" type="curve" smooth="yes"/>
      <point x="107" y="360" type="line" smooth="yes"/>
      <point x="77" y="241"/>
      <point x="156" y="157"/>
      <point x="282" y="158" type="curve"/>
      <point x="312" y="158"/>
      <point x="319" y="171"/>
      <point x="326" y="198" type="curve"/>
      <point x="187" y="200"/>
      <point x="166" y="293"/>
      <point x="179" y="346" type="curve" smooth="yes"/>
      <point x="181" y="352" type="line" smooth="yes"/>
      <point x="203" y="441"/>
      <point x="266" y="471"/>
    </contour>
    <contour>
      <point x="291" y="230" type="curve" smooth="yes"/>
      <point x="232" y="230"/>
      <point x="194" y="242"/>
      <point x="155" y="275" type="curve"/>
      <point x="126" y="227"/>
      <point x="190" y="158"/>
      <point x="282" y="158" type="curve" smooth="yes"/>
      <point x="416" y="158"/>
      <point x="496" y="212"/>
      <point x="521" y="313" type="curve" smooth="yes"/>
      <point x="523" y="319" type="line" smooth="yes"/>
      <point x="544" y="404"/>
      <point x="503" y="474"/>
      <point x="442" y="486" type="curve" smooth="yes"/>
      <point x="423" y="492"/>
      <point x="398" y="489"/>
      <point x="388" y="481" type="curve"/>
      <point x="460" y="451"/>
      <point x="462" y="380"/>
      <point x="452" y="340" type="curve" smooth="yes"/>
      <point x="451" y="334" type="line" smooth="yes"/>
      <point x="432" y="259"/>
      <point x="378" y="230"/>
    </contour>
    <contour>
      <point x="135" y="78" type="curve" smooth="yes"/>
      <point x="133" y="73" type="line" smooth="yes"/>
      <point x="120" y="18"/>
      <point x="148" y="-18"/>
      <point x="220" y="-23" type="curve" smooth="yes"/>
      <point x="323" y="-29" type="line" smooth="yes"/>
      <point x="373" y="-32"/>
      <point x="388" y="-51"/>
      <point x="379" y="-93" type="curve" smooth="yes"/>
      <point x="377" y="-102" type="line" smooth="yes"/>
      <point x="363" y="-162"/>
      <point x="301" y="-212"/>
      <point x="149" y="-212" type="curve"/>
      <point x="142" y="-241"/>
      <point x="148" y="-250"/>
      <point x="164" y="-250" type="curve" smooth="yes"/>
      <point x="341" y="-250"/>
      <point x="428" y="-213"/>
      <point x="459" y="-92" type="curve" smooth="yes"/>
      <point x="462" y="-83" type="line" smooth="yes"/>
      <point x="480" y="-14"/>
      <point x="446" y="42"/>
      <point x="361" y="47" type="curve" smooth="yes"/>
      <point x="252" y="55" type="line" smooth="yes"/>
      <point x="220" y="57"/>
      <point x="211" y="70"/>
      <point x="216" y="93" type="curve" smooth="yes"/>
      <point x="217" y="97" type="line" smooth="yes"/>
      <point x="224" y="125"/>
      <point x="242" y="149"/>
      <point x="276" y="175" type="curve"/>
      <point x="278" y="188"/>
      <point x="272" y="192"/>
      <point x="253" y="192" type="curve" smooth="yes"/>
      <point x="215" y="192"/>
      <point x="149" y="136"/>
    </contour>
    <contour>
      <point x="401" y="-132" type="curve"/>
      <point x="340" y="-173"/>
      <point x="287" y="-184"/>
      <point x="184" y="-184" type="curve" smooth="yes"/>
      <point x="146" y="-184" type="line" smooth="yes"/>
      <point x="64" y="-184"/>
      <point x="34" y="-152"/>
      <point x="47" y="-100" type="curve" smooth="yes"/>
      <point x="49" y="-93" type="line" smooth="yes"/>
      <point x="64" y="-33"/>
      <point x="100" y="-9"/>
      <point x="176" y="6" type="curve"/>
      <point x="178" y="28"/>
      <point x="165" y="40"/>
      <point x="147" y="39" type="curve" smooth="yes"/>
      <point x="52" y="33"/>
      <point x="-13" y="-7"/>
      <point x="-35" y="-93" type="curve" smooth="yes"/>
      <point x="-37" y="-101" type="line" smooth="yes"/>
      <point x="-56" y="-179"/>
      <point x="-1" y="-250"/>
      <point x="129" y="-250" type="curve" smooth="yes"/>
      <point x="164" y="-250" type="line" smooth="yes"/>
      <point x="314" y="-250"/>
      <point x="406" y="-187"/>
    </contour>
  </outline>
</glyph>
<glyph name="h" format="1">
  <advance width="600"/>
  <unicode hex="0068"/>
  <outline>
    <contour>
      <point x="103" y="-3" type="curve"/>
      <point x="276" y="672" type="line" smooth="yes"/>
      <point x="284" y="704"/>
      <point x="285" y="725"/>
      <point x="276" y="738" type="curve" smooth="yes"/>
      <point x="265" y="752"/>
      <point x="248" y="757"/>
      <point x="226" y="757" type="curve" smooth="yes"/>
      <point x="218" y="757"/>
      <point x="209" y="756"/>
      <point x="201" y="753" type="curve"/>
      <point x="202" y="724"/>
      <point x="200" y="705"/>
      <point x="188" y="660" type="curve" smooth="yes"/>
      <point x="27" y="30" type="line" smooth="yes"/>
      <point x="19" y="1"/>
      <point x="44" y="-5"/>
      <point x="77" y="-5" type="curve" smooth="yes"/>
      <point x="86" y="-5"/>
      <point x="95" y="-5"/>
    </contour>
    <contour>
      <point x="443" y="542" type="curve" smooth="yes"/>
      <point x="358" y="542"/>
      <point x="250" y="453"/>
      <point x="176" y="336" type="curve" smooth="yes"/>
      <point x="148" y="286"/>
      <point x="135" y="234"/>
      <point x="142" y="183" type="curve"/>
      <point x="229" y="348"/>
      <point x="334" y="458"/>
      <point x="416" y="458" type="curve" smooth="yes"/>
      <point x="460" y="458"/>
      <point x="478" y="426"/>
      <point x="473" y="357" type="curve"/>
      <point x="513" y="358"/>
      <point x="532" y="371"/>
      <point x="536" y="387" type="curve" smooth="yes"/>
      <point x="556" y="463"/>
      <point x="525" y="542"/>
    </contour>
    <contour>
      <point x="452" y="0" type="curve"/>
      <point x="453" y="48"/>
      <point x="459" y="83"/>
      <point x="472" y="134" type="curve" smooth="yes"/>
      <point x="536" y="387" type="line"/>
      <point x="546" y="421"/>
      <point x="532" y="441"/>
      <point x="484" y="440" type="curve"/>
      <point x="433" y="299"/>
      <point x="408" y="235"/>
      <point x="384" y="141" type="curve" smooth="yes"/>
      <point x="381" y="131" type="line" smooth="yes"/>
      <point x="354" y="26"/>
      <point x="380" y="-3"/>
      <point x="425" y="-3" type="curve" smooth="yes"/>
      <point x="435" y="-3"/>
      <point x="443" y="-2"/>
    </contour>
    <contour>
      <point x="244" y="730" type="move" name="top"/>
    </contour>
  </outline>
</glyph>
<glyph name="i" format="1">
  <advance width="350"/>
  <unicode hex="0069"/>
  <outline>
    <contour>
      <point x="110" y="532" type="curve"/>
      <point x="107" y="526"/>
      <point x="104" y="516"/>
      <point x="102" y="507" type="curve" smooth="yes"/>
      <point x="92" y="469"/>
      <point x="101" y="454"/>
      <point x="118" y="454" type="curve" smooth="yes"/>
      <point x="134" y="454"/>
      <point x="172" y="465"/>
      <point x="240" y="465" type="curve"/>
      <point x="253" y="512"/>
      <point x="258" y="540"/>
      <point x="231" y="540" type="curve" smooth="yes"/>
      <point x="196" y="540"/>
      <point x="159" y="538"/>
    </contour>
    <contour>
      <point x="185" y="-6" type="curve"/>
      <point x="184" y="28"/>
      <point x="188" y="54"/>
      <point x="200" y="99" type="curve" smooth="yes"/>
      <point x="303" y="505" type="line" smooth="yes"/>
      <point x="308" y="528"/>
      <point x="292" y="540"/>
      <point x="239" y="540" type="curve" smooth="yes"/>
      <point x="230" y="540" type="line"/>
      <point x="108" y="59" type="line" smooth="yes"/>
      <point x="94" y="4"/>
      <point x="114" y="-9"/>
      <point x="162" y="-9" type="curve" smooth="yes"/>
      <point x="171" y="-9"/>
      <point x="178" y="-8"/>
    </contour>
    <contour>
      <point x="349" y="631" type="curve"/>
      <point x="364" y="693" type="line" smooth="yes"/>
      <point x="373" y="725"/>
      <point x="349" y="736"/>
      <point x="309" y="736" type="curve" smooth="yes"/>
      <point x="294" y="736"/>
      <point x="277" y="735"/>
      <point x="263" y="732" type="curve"/>
      <point x="247" y="671" type="line" smooth="yes"/>
      <point x="240" y="639"/>
      <point x="263" y="627"/>
      <point x="303" y="627" type="curve" smooth="yes"/>
      <point x="318" y="627"/>
      <point x="335" y="629"/>
    </contour>
    <contour>
      <point x="380" y="-1" type="move" name="ogonek"/>
    </contour>
    <contour>
      <point x="230" y="-1" type="move" name="bottom"/>
    </contour>
  </outline>
</glyph>
<glyph name="j" format="1">
  <advance width="350"/>
  <unicode hex="006A"/>
  <outline>
    <contour>
      <point x="117" y="532" type="curve"/>
      <point x="114" y="525"/>
      <point x="111" y="516"/>
      <point x="109" y="507" type="curve" smooth="yes"/>
      <point x="99" y="468"/>
      <point x="107" y="454"/>
      <point x="125" y="454" type="curve" smooth="yes"/>
      <point x="139" y="454"/>
      <point x="199" y="465"/>
      <point x="262" y="465" type="curve"/>
      <point x="275" y="518"/>
      <point x="274" y="540"/>
      <point x="251" y="540" type="curve" smooth="yes"/>
      <point x="222" y="540"/>
      <point x="157" y="535"/>
    </contour>
    <contour>
      <point x="184" y="-45" type="curve" smooth="yes"/>
      <point x="323" y="502" type="line" smooth="yes"/>
      <point x="325" y="512"/>
      <point x="324" y="517"/>
      <point x="320" y="523" type="curve" smooth="yes"/>
      <point x="311" y="535"/>
      <point x="286" y="540"/>
      <point x="258" y="540" type="curve" smooth="yes"/>
      <point x="251" y="540" type="line"/>
      <point x="106" y="-31" type="line" smooth="yes"/>
      <point x="86" y="-112"/>
      <point x="63" y="-153"/>
      <point x="11" y="-197" type="curve"/>
      <point x="58" y="-214"/>
      <point x="161" y="-136"/>
    </contour>
    <contour>
      <point x="-13" y="-172" type="curve" smooth="yes"/>
      <point x="-46" y="-172"/>
      <point x="-63" y="-168"/>
      <point x="-85" y="-151" type="curve"/>
      <point x="-89" y="-151" type="line"/>
      <point x="-95" y="-158"/>
      <point x="-97" y="-165"/>
      <point x="-100" y="-175" type="curve" smooth="yes"/>
      <point x="-106" y="-196"/>
      <point x="-105" y="-215"/>
      <point x="-96" y="-227" type="curve" smooth="yes"/>
      <point x="-86" y="-241"/>
      <point x="-63" y="-250"/>
      <point x="-27" y="-250" type="curve" smooth="yes"/>
      <point x="81" y="-250"/>
      <point x="146" y="-189"/>
      <point x="184" y="-45" type="curve" smooth="yes"/>
      <point x="190" y="-23"/>
      <point x="178" y="-19"/>
      <point x="167" y="-19" type="curve"/>
      <point x="122" y="-116"/>
      <point x="57" y="-172"/>
    </contour>
    <contour>
      <point x="366" y="631" type="curve"/>
      <point x="381" y="693" type="line" smooth="yes"/>
      <point x="390" y="725"/>
      <point x="366" y="736"/>
      <point x="326" y="736" type="curve" smooth="yes"/>
      <point x="311" y="736"/>
      <point x="294" y="735"/>
      <point x="280" y="732" type="curve"/>
      <point x="265" y="671" type="line" smooth="yes"/>
      <point x="256" y="639"/>
      <point x="281" y="627"/>
      <point x="320" y="627" type="curve" smooth="yes"/>
      <point x="335" y="627"/>
      <point x="352" y="629"/>
    </contour>
  </outline>
</glyph>
<glyph name="k" format="1">
  <advance width="600"/>
  <unicode hex="006B"/>
  <outline>
    <contour>
      <point x="103" y="-4" type="curve"/>
      <point x="276" y="671" type="line" smooth="yes"/>
      <point x="285" y="706"/>
      <point x="286" y="726"/>
      <point x="275" y="741" type="curve" smooth="yes"/>
      <point x="266" y="755"/>
      <point x="243" y="758"/>
      <point x="226" y="758" type="curve" smooth="yes"/>
      <point x="218" y="758"/>
      <point x="210" y="757"/>
      <point x="201" y="755" type="curve"/>
      <point x="202" y="725"/>
      <point x="200" y="706"/>
      <point x="189" y="662" type="curve" smooth="yes"/>
      <point x="27" y="29" type="line" smooth="yes"/>
      <point x="20" y="0"/>
      <point x="45" y="-6"/>
      <point x="78" y="-6" type="curve" smooth="yes"/>
      <point x="87" y="-6"/>
      <point x="96" y="-5"/>
    </contour>
    <contour>
      <point x="498" y="539" type="line"/>
      <point x="379" y="363"/>
      <point x="253" y="276"/>
      <point x="104" y="235" type="curve"/>
      <point x="92" y="192"/>
      <point x="109" y="173"/>
      <point x="127" y="176" type="curve" smooth="yes"/>
      <point x="278" y="208"/>
      <point x="432" y="309"/>
      <point x="557" y="473" type="curve" smooth="yes"/>
      <point x="570" y="490"/>
      <point x="574" y="499"/>
      <point x="576" y="506" type="curve" smooth="yes"/>
      <point x="580" y="522"/>
      <point x="553" y="539"/>
      <point x="513" y="539" type="curve"/>
    </contour>
    <contour>
      <point x="444" y="-10" type="curve" smooth="yes"/>
      <point x="463" y="-10"/>
      <point x="476" y="-7"/>
      <point x="489" y="1" type="curve"/>
      <point x="420" y="84"/>
      <point x="364" y="187"/>
      <point x="328" y="297" type="curve"/>
      <point x="289" y="289"/>
      <point x="256" y="266"/>
      <point x="263" y="240" type="curve" smooth="yes"/>
      <point x="286" y="160"/>
      <point x="334" y="67"/>
      <point x="369" y="20" type="curve" smooth="yes"/>
      <point x="386" y="-2"/>
      <point x="405" y="-10"/>
    </contour>
    <contour>
      <point x="252" y="-1" type="move" name="bottom"/>
    </contour>
  </outline>
</glyph>
<glyph name="l" format="1">
  <advance width="300"/>
  <unicode hex="006C"/>
  <outline>
    <contour>
      <point x="186" y="662" type="curve"/>
      <point x="51" y="126" type="line" smooth="yes"/>
      <point x="32" y="50"/>
      <point x="84" y="12"/>
      <point x="136" y="24" type="curve"/>
      <point x="122" y="63"/>
      <point x="126" y="93"/>
      <point x="142" y="158" type="curve" smooth="yes"/>
      <point x="271" y="671" type="line" smooth="yes"/>
      <point x="280" y="706"/>
      <point x="282" y="725"/>
      <point x="270" y="740" type="curve" smooth="yes"/>
      <point x="260" y="755"/>
      <point x="244" y="758"/>
      <point x="222" y="758" type="curve" smooth="yes"/>
      <point x="214" y="758"/>
      <point x="205" y="757"/>
      <point x="197" y="755" type="curve"/>
      <point x="199" y="725"/>
      <point x="196" y="706"/>
    </contour>
    <contour>
      <point x="237" y="95" type="curve"/>
      <point x="233" y="95" type="line"/>
      <point x="214" y="83"/>
      <point x="190" y="71"/>
      <point x="164" y="71" type="curve" smooth="yes"/>
      <point x="118" y="71"/>
      <point x="105" y="98"/>
      <point x="115" y="161" type="curve"/>
      <point x="78" y="161"/>
      <point x="57" y="149"/>
      <point x="51" y="126" type="curve" smooth="yes"/>
      <point x="29" y="40"/>
      <point x="69" y="-10"/>
      <point x="139" y="-10" type="curve" smooth="yes"/>
      <point x="146" y="-10" type="line" smooth="yes"/>
      <point x="170" y="-10"/>
      <point x="189" y="-5"/>
      <point x="205" y="8" type="curve" smooth="yes"/>
      <point x="218" y="19"/>
      <point x="226" y="36"/>
      <point x="233" y="68" type="curve" smooth="yes"/>
      <point x="235" y="78"/>
      <point x="236" y="88"/>
    </contour>
    <contour>
      <point x="440" y="711" type="move" name="caronslovak"/>
    </contour>
    <contour>
      <point x="245" y="735" type="move" name="top"/>
    </contour>
    <contour>
      <point x="362" y="400" type="move" name="dot"/>
    </contour>
    <contour>
      <point x="112" y="-1" type="move" name="bottom"/>
    </contour>
  </outline>
</glyph>
<glyph name="m" format="1">
  <advance width="850"/>
  <unicode hex="006D"/>
  <outline>
    <contour>
      <point x="109" y="-4" type="curve"/>
      <point x="224" y="449" type="line" smooth="yes"/>
      <point x="232" y="484"/>
      <point x="234" y="504"/>
      <point x="223" y="518" type="curve" smooth="yes"/>
      <point x="213" y="532"/>
      <point x="191" y="536"/>
      <point x="174" y="536" type="curve" smooth="yes"/>
      <point x="166" y="536"/>
      <point x="157" y="535"/>
      <point x="149" y="532" type="curve"/>
      <point x="150" y="503"/>
      <point x="148" y="484"/>
      <point x="137" y="439" type="curve" smooth="yes"/>
      <point x="33" y="29" type="line" smooth="yes"/>
      <point x="25" y="0"/>
      <point x="50" y="-6"/>
      <point x="83" y="-6" type="curve" smooth="yes"/>
      <point x="92" y="-6"/>
      <point x="102" y="-5"/>
    </contour>
    <contour>
      <point x="414" y="542" type="curve" smooth="yes"/>
      <point x="324" y="542"/>
      <point x="239" y="457"/>
      <point x="186" y="365" type="curve" smooth="yes"/>
      <point x="164" y="324"/>
      <point x="149" y="277"/>
      <point x="161" y="235" type="curve"/>
      <point x="236" y="382"/>
      <point x="317" y="458"/>
      <point x="379" y="458" type="curve" smooth="yes"/>
      <point x="424" y="458"/>
      <point x="445" y="428"/>
      <point x="435" y="357" type="curve"/>
      <point x="480" y="358"/>
      <point x="499" y="375"/>
      <point x="503" y="392" type="curve" smooth="yes"/>
      <point x="522" y="466"/>
      <point x="485" y="542"/>
    </contour>
    <contour>
      <point x="403" y="0" type="curve"/>
      <point x="503" y="392" type="line"/>
      <point x="511" y="422"/>
      <point x="497" y="443"/>
      <point x="449" y="442" type="curve"/>
      <point x="403" y="311"/>
      <point x="372" y="220"/>
      <point x="349" y="129" type="curve" smooth="yes"/>
      <point x="347" y="123" type="line" smooth="yes"/>
      <point x="319" y="17"/>
      <point x="339" y="-4"/>
      <point x="379" y="-4" type="curve" smooth="yes"/>
      <point x="389" y="-4"/>
      <point x="396" y="-3"/>
    </contour>
    <contour>
      <point x="708" y="542" type="curve" smooth="yes"/>
      <point x="618" y="542"/>
      <point x="532" y="458"/>
      <point x="480" y="366" type="curve" smooth="yes"/>
      <point x="457" y="325"/>
      <point x="442" y="277"/>
      <point x="454" y="235" type="curve"/>
      <point x="529" y="382"/>
      <point x="611" y="458"/>
      <point x="674" y="458" type="curve" smooth="yes"/>
      <point x="718" y="458"/>
      <point x="739" y="428"/>
      <point x="729" y="357" type="curve"/>
      <point x="773" y="358"/>
      <point x="792" y="375"/>
      <point x="797" y="392" type="curve" smooth="yes"/>
      <point x="816" y="467"/>
      <point x="779" y="542"/>
    </contour>
    <contour>
      <point x="711" y="0" type="curve"/>
      <point x="712" y="48"/>
      <point x="718" y="83"/>
      <point x="731" y="135" type="curve" smooth="yes"/>
      <point x="797" y="392" type="line"/>
      <point x="805" y="425"/>
      <point x="791" y="446"/>
      <point x="744" y="445" type="curve"/>
      <point x="694" y="302"/>
      <point x="669" y="233"/>
      <point x="644" y="135" type="curve" smooth="yes"/>
      <point x="642" y="130" type="line" smooth="yes"/>
      <point x="616" y="24"/>
      <point x="640" y="-3"/>
      <point x="684" y="-3" type="curve" smooth="yes"/>
      <point x="694" y="-3"/>
      <point x="702" y="-2"/>
    </contour>
  </outline>
</glyph>
<glyph name="n" format="1">
  <advance width="600"/>
  <unicode hex="006E"/>
  <outline>
    <contour>
      <point x="103" y="-4" type="curve"/>
      <point x="212" y="418" type="line" smooth="yes"/>
      <point x="225" y="468"/>
      <point x="224" y="500"/>
      <point x="212" y="517" type="curve" smooth="yes"/>
      <point x="203" y="530"/>
      <point x="189" y="535"/>
      <point x="170" y="535" type="curve" smooth="yes"/>
      <point x="162" y="535"/>
      <point x="153" y="534"/>
      <point x="145" y="532" type="curve"/>
      <point x="146" y="502"/>
      <point x="143" y="479"/>
      <point x="132" y="434" type="curve" smooth="yes"/>
      <point x="28" y="29" type="line" smooth="yes"/>
      <point x="20" y="0"/>
      <point x="45" y="-6"/>
      <point x="78" y="-6" type="curve" smooth="yes"/>
      <point x="87" y="-6"/>
      <point x="96" y="-6"/>
    </contour>
    <contour>
      <point x="443" y="541" type="curve" smooth="yes"/>
      <point x="358" y="541"/>
      <point x="253" y="450"/>
      <point x="178" y="332" type="curve" smooth="yes"/>
      <point x="150" y="283"/>
      <point x="137" y="232"/>
      <point x="143" y="186" type="curve"/>
      <point x="231" y="352"/>
      <point x="336" y="457"/>
      <point x="419" y="457" type="curve" smooth="yes"/>
      <point x="463" y="457"/>
      <point x="481" y="427"/>
      <point x="475" y="362" type="curve"/>
      <point x="518" y="363"/>
      <point x="536" y="377"/>
      <point x="540" y="394" type="curve" smooth="yes"/>
      <point x="558" y="460"/>
      <point x="525" y="541"/>
    </contour>
    <contour>
      <point x="453" y="-1" type="curve"/>
      <point x="454" y="47"/>
      <point x="460" y="82"/>
      <point x="473" y="133" type="curve" smooth="yes"/>
      <point x="540" y="394" type="line"/>
      <point x="548" y="423"/>
      <point x="536" y="440"/>
      <point x="485" y="439" type="curve"/>
      <point x="434" y="299"/>
      <point x="407" y="234"/>
      <point x="384" y="140" type="curve" smooth="yes"/>
      <point x="381" y="130" type="line" smooth="yes"/>
      <point x="354" y="25"/>
      <point x="380" y="-4"/>
      <point x="426" y="-4" type="curve" smooth="yes"/>
      <point x="436" y="-4"/>
      <point x="445" y="-3"/>
    </contour>
    <contour>
      <point x="279" y="675" type="move" name="caronslovak"/>
    </contour>
    <contour>
      <point x="369" y="541" type="move" name="top"/>
    </contour>
    <contour>
      <point x="234" y="-1" type="move" name="bottom"/>
    </contour>
  </outline>
</glyph>
<glyph name="p" format="1">
  <advance width="600"/>
  <unicode hex="0070"/>
  <outline>
    <contour>
      <point x="53" y="-214" type="curve"/>
      <point x="214" y="418" type="line" smooth="yes"/>
      <point x="228" y="471"/>
      <point x="233" y="501"/>
      <point x="221" y="518" type="curve" smooth="yes"/>
      <point x="210" y="532"/>
      <point x="192" y="536"/>
      <point x="176" y="536" type="curve"/>
      <point x="168" y="536"/>
      <point x="159" y="535"/>
      <point x="151" y="532" type="curve"/>
      <point x="152" y="503"/>
      <point x="150" y="484"/>
      <point x="139" y="439" type="curve" smooth="yes"/>
      <point x="-21" y="-182" type="line" smooth="yes"/>
      <point x="-28" y="-211"/>
      <point x="-6" y="-217"/>
      <point x="24" y="-217" type="curve"/>
      <point x="35" y="-217"/>
      <point x="45" y="-216"/>
    </contour>
    <contour>
      <point x="440" y="541" type="curve" smooth="yes"/>
      <point x="348" y="541"/>
      <point x="245" y="461"/>
      <point x="185" y="353" type="curve" smooth="yes"/>
      <point x="163" y="314"/>
      <point x="155" y="267"/>
      <point x="160" y="238" type="curve"/>
      <point x="264" y="407"/>
      <point x="349" y="459"/>
      <point x="421" y="459" type="curve" smooth="yes"/>
      <point x="477" y="459"/>
      <point x="503" y="412"/>
      <point x="505" y="320" type="curve"/>
      <point x="538" y="317"/>
      <point x="550" y="326"/>
      <point x="552" y="335" type="curve" smooth="yes"/>
      <point x="584" y="460"/>
      <point x="539" y="541"/>
    </contour>
    <contour>
      <point x="253" y="-11" type="curve" smooth="yes"/>
      <point x="377" y="-11"/>
      <point x="486" y="75"/>
      <point x="547" y="314" type="curve" smooth="yes"/>
      <point x="552" y="335" type="line" smooth="yes"/>
      <point x="566" y="388"/>
      <point x="551" y="473"/>
      <point x="504" y="473" type="curve" smooth="yes"/>
      <point x="491" y="473"/>
      <point x="479" y="466"/>
      <point x="473" y="450" type="curve"/>
      <point x="482" y="408"/>
      <point x="479" y="372"/>
      <point x="465" y="320" type="curve" smooth="yes"/>
      <point x="461" y="303" type="line" smooth="yes"/>
      <point x="422" y="145"/>
      <point x="353" y="66"/>
      <point x="254" y="66" type="curve" smooth="yes"/>
      <point x="192" y="66"/>
      <point x="160" y="90"/>
      <point x="133" y="146" type="curve"/>
      <point x="122" y="137"/>
      <point x="112" y="113"/>
      <point x="115" y="98" type="curve" smooth="yes"/>
      <point x="111" y="53"/>
      <point x="170" y="-11"/>
    </contour>
  </outline>
</glyph>
<glyph name="r" format="1">
  <advance width="450"/>
  <unicode hex="0072"/>
  <outline>
    <contour>
      <point x="111" y="-1" type="curve"/>
      <point x="227" y="454" type="line" smooth="yes"/>
      <point x="234" y="484"/>
      <point x="236" y="505"/>
      <point x="226" y="517" type="curve" smooth="yes"/>
      <point x="216" y="532"/>
      <point x="197" y="536"/>
      <point x="176" y="536" type="curve" smooth="yes"/>
      <point x="168" y="536"/>
      <point x="159" y="535"/>
      <point x="150" y="533" type="curve"/>
      <point x="152" y="503"/>
      <point x="150" y="485"/>
      <point x="138" y="440" type="curve" smooth="yes"/>
      <point x="35" y="32" type="line" smooth="yes"/>
      <point x="28" y="3"/>
      <point x="52" y="-3"/>
      <point x="85" y="-3" type="curve" smooth="yes"/>
      <point x="94" y="-3"/>
      <point x="104" y="-3"/>
    </contour>
    <contour>
      <point x="154" y="185" type="curve"/>
      <point x="251" y="375"/>
      <point x="330" y="456"/>
      <point x="409" y="456" type="curve" smooth="yes"/>
      <point x="433" y="456"/>
      <point x="446" y="452"/>
      <point x="460" y="442" type="curve"/>
      <point x="464" y="442" type="line"/>
      <point x="473" y="457"/>
      <point x="479" y="471"/>
      <point x="485" y="490" type="curve"/>
      <point x="493" y="526"/>
      <point x="478" y="546"/>
      <point x="434" y="546" type="curve" smooth="yes"/>
      <point x="431" y="546" type="line" smooth="yes"/>
      <point x="340" y="546"/>
      <point x="256" y="467"/>
      <point x="181" y="318" type="curve" smooth="yes"/>
      <point x="160" y="280"/>
      <point x="149" y="238"/>
    </contour>
    <contour>
      <point x="260" y="541" type="move" name="top"/>
    </contour>
    <contour>
      <point x="260" y="-1" type="move" name="bottom"/>
    </contour>
  </outline>
</glyph>
<glyph name="s" format="1">
  <advance width="550"/>
  <unicode hex="0073"/>
  <outline>
    <contour>
      <point x="383" y="542" type="curve" smooth="yes"/>
      <point x="379" y="542" type="line" smooth="yes"/>
      <point x="254" y="542"/>
      <point x="151" y="493"/>
      <point x="125" y="393" type="curve" smooth="yes"/>
      <point x="117" y="364"/>
      <point x="147" y="332"/>
      <point x="198" y="332" type="curve"/>
      <point x="196" y="352"/>
      <point x="197" y="366"/>
      <point x="202" y="382" type="curve" smooth="yes"/>
      <point x="214" y="432"/>
      <point x="278" y="465"/>
      <point x="368" y="465" type="curve" smooth="yes"/>
      <point x="429" y="465"/>
      <point x="463" y="454"/>
      <point x="496" y="431" type="curve"/>
      <point x="500" y="431" type="line"/>
      <point x="505" y="439"/>
      <point x="510" y="448"/>
      <point x="511" y="455" type="curve"/>
      <point x="518" y="482"/>
      <point x="516" y="499"/>
      <point x="506" y="512" type="curve" smooth="yes"/>
      <point x="494" y="529"/>
      <point x="452" y="542"/>
    </contour>
    <contour>
      <point x="350" y="285" type="curve" smooth="yes"/>
      <point x="276" y="300" type="line" smooth="yes"/>
      <point x="206" y="315"/>
      <point x="192" y="343"/>
      <point x="202" y="382" type="curve" smooth="yes"/>
      <point x="207" y="401"/>
      <point x="212" y="419"/>
      <point x="224" y="438" type="curve"/>
      <point x="162" y="424"/>
      <point x="132" y="417"/>
      <point x="125" y="393" type="curve"/>
      <point x="107" y="320"/>
      <point x="139" y="258"/>
      <point x="230" y="238" type="curve" smooth="yes"/>
      <point x="311" y="221" type="line" smooth="yes"/>
      <point x="376" y="207"/>
      <point x="388" y="172"/>
      <point x="373" y="115" type="curve" smooth="yes"/>
      <point x="371" y="104"/>
      <point x="366" y="94"/>
      <point x="359" y="86" type="curve"/>
      <point x="409" y="89"/>
      <point x="447" y="109"/>
      <point x="453" y="130" type="curve" smooth="yes"/>
      <point x="471" y="203"/>
      <point x="435" y="266"/>
    </contour>
    <contour>
      <point x="236" y="68" type="curve" smooth="yes"/>
      <point x="134" y="68"/>
      <point x="94" y="85"/>
      <point x="47" y="127" type="curve"/>
      <point x="43" y="127" type="line"/>
      <point x="37" y="120"/>
      <point x="35" y="111"/>
      <point x="31" y="101" type="curve" smooth="yes"/>
      <point x="24" y="70"/>
      <point x="28" y="53"/>
      <point x="37" y="42" type="curve" smooth="yes"/>
      <point x="58" y="14"/>
      <point x="117" y="-11"/>
      <point x="214" y="-11" type="curve" smooth="yes"/>
      <point x="221" y="-11" type="line" smooth="yes"/>
      <point x="351" y="-11"/>
      <point x="428" y="33"/>
      <point x="453" y="130" type="curve" smooth="yes"/>
      <point x="460" y="157"/>
      <point x="437" y="173"/>
      <point x="406" y="176" type="curve"/>
      <point x="405" y="166"/>
      <point x="404" y="160"/>
      <point x="402" y="155" type="curve" smooth="yes"/>
      <point x="387" y="94"/>
      <point x="331" y="68"/>
    </contour>
    <contour>
      <point x="271" y="541" type="move" name="top"/>
    </contour>
    <contour>
      <point x="271" y="-1" type="move" name="bottom"/>
    </contour>
  </outline>
</glyph>
<glyph name="t" format="1">
  <advance width="500"/>
  <unicode hex="0074"/>
  <outline>
    <contour>
      <point x="251" y="700" type="curve"/>
      <point x="112" y="143" type="line" smooth="yes"/>
      <point x="88" y="47"/>
      <point x="160" y="-1"/>
      <point x="210" y="24" type="curve"/>
      <point x="186" y="56"/>
      <point x="183" y="100"/>
      <point x="199" y="166" type="curve" smooth="yes"/>
      <point x="325" y="669" type="line" smooth="yes"/>
      <point x="332" y="697"/>
      <point x="308" y="704"/>
      <point x="281" y="704" type="curve" smooth="yes"/>
      <point x="270" y="704"/>
      <point x="260" y="703"/>
    </contour>
    <contour>
      <point x="392" y="112" type="curve"/>
      <point x="388" y="112" type="line"/>
      <point x="346" y="84"/>
      <point x="307" y="64"/>
      <point x="252" y="64" type="curve" smooth="yes"/>
      <point x="188" y="64"/>
      <point x="158" y="89"/>
      <point x="148" y="172" type="curve"/>
      <point x="127" y="171"/>
      <point x="117" y="160"/>
      <point x="112" y="143" type="curve" smooth="yes"/>
      <point x="87" y="42"/>
      <point x="137" y="-17"/>
      <point x="235" y="-17" type="curve" smooth="yes"/>
      <point x="245" y="-17" type="line" smooth="yes"/>
      <point x="293" y="-17"/>
      <point x="326" y="-6"/>
      <point x="350" y="13" type="curve" smooth="yes"/>
      <point x="369" y="29"/>
      <point x="381" y="49"/>
      <point x="389" y="84" type="curve" smooth="yes"/>
      <point x="392" y="96"/>
      <point x="392" y="104"/>
    </contour>
    <contour>
      <point x="109" y="530" type="line"/>
      <point x="108" y="526"/>
      <point x="107" y="522"/>
      <point x="106" y="518" type="curve" smooth="yes"/>
      <point x="99" y="491"/>
      <point x="100" y="474"/>
      <point x="108" y="463" type="curve" smooth="yes"/>
      <point x="115" y="453"/>
      <point x="127" y="449"/>
      <point x="159" y="449" type="curve"/>
      <point x="477" y="449" type="line"/>
      <point x="480" y="456"/>
      <point x="483" y="466"/>
      <point x="486" y="476" type="curve" smooth="yes"/>
      <point x="495" y="511"/>
      <point x="491" y="530"/>
      <point x="461" y="530" type="curve"/>
    </contour>
    <contour>
      <point x="500" y="711" type="move" name="caronslovak"/>
    </contour>
    <contour>
      <point x="207" y="-1" type="move" name="bottom"/>
    </contour>
  </outline>
</glyph>
<glyph name="v" format="1">
  <advance width="600"/>
  <unicode hex="0076"/>
  <outline>
    <contour>
      <point x="528" y="537" type="curve" smooth="yes"/>
      <point x="514" y="537" type="line"/>
      <point x="421" y="248"/>
      <point x="355" y="143"/>
      <point x="215" y="52" type="curve"/>
      <point x="193" y="37"/>
      <point x="204" y="-10"/>
      <point x="233" y="-10" type="curve"/>
      <point x="265" y="-10" type="line"/>
      <point x="405" y="83"/>
      <point x="496" y="220"/>
      <point x="586" y="494" type="curve"/>
      <point x="594" y="518"/>
      <point x="566" y="537"/>
    </contour>
    <contour>
      <point x="150" y="537" type="curve" smooth="yes"/>
      <point x="135" y="537" type="line"/>
      <point x="89" y="268"/>
      <point x="99" y="120"/>
      <point x="172" y="21" type="curve"/>
      <point x="190" y="-3"/>
      <point x="208" y="-10"/>
      <point x="230" y="-10" type="curve" smooth="yes"/>
      <point x="237" y="-10" type="line" smooth="yes"/>
      <point x="262" y="-10"/>
      <point x="278" y="6"/>
      <point x="298" y="34" type="curve"/>
      <point x="289" y="34"/>
      <point x="283" y="34"/>
      <point x="279" y="34" type="curve" smooth="yes"/>
      <point x="273" y="34"/>
      <point x="266" y="37"/>
      <point x="261" y="42" type="curve"/>
      <point x="180" y="136"/>
      <point x="174" y="262"/>
      <point x="214" y="504" type="curve"/>
      <point x="219" y="526"/>
      <point x="188" y="537"/>
    </contour>
  </outline>
</glyph>
<glyph name="w" format="1">
  <advance width="800"/>
  <unicode hex="0077"/>
  <outline>
    <contour>
      <point x="133" y="539" type="curve"/>
      <point x="74" y="244"/>
      <point x="77" y="119"/>
      <point x="118" y="34" type="curve"/>
      <point x="134" y="3"/>
      <point x="149" y="-10"/>
      <point x="169" y="-10" type="curve"/>
      <point x="185" y="-10" type="line" smooth="yes"/>
      <point x="193" y="-10"/>
      <point x="203" y="17"/>
      <point x="206" y="34" type="curve"/>
      <point x="159" y="115"/>
      <point x="147" y="185"/>
      <point x="205" y="501" type="curve"/>
      <point x="208" y="516"/>
      <point x="207" y="521"/>
      <point x="204" y="526" type="curve" smooth="yes"/>
      <point x="197" y="536"/>
      <point x="180" y="540"/>
      <point x="154" y="540" type="curve"/>
      <point x="147" y="540"/>
      <point x="139" y="540"/>
    </contour>
    <contour>
      <point x="418" y="506" type="curve"/>
      <point x="326" y="261"/>
      <point x="259" y="139"/>
      <point x="166" y="42" type="curve"/>
      <point x="149" y="25"/>
      <point x="164" y="-10"/>
      <point x="180" y="-10" type="curve"/>
      <point x="203" y="-10" type="line"/>
      <point x="307" y="93"/>
      <point x="391" y="248"/>
      <point x="466" y="461" type="curve"/>
      <point x="474" y="484"/>
      <point x="480" y="507"/>
      <point x="447" y="507" type="curve" smooth="yes"/>
      <point x="439" y="507"/>
      <point x="426" y="507"/>
    </contour>
    <contour>
      <point x="437" y="503" type="curve"/>
      <point x="409" y="281"/>
      <point x="409" y="103"/>
      <point x="451" y="12" type="curve"/>
      <point x="461" y="-7"/>
      <point x="477" y="-10"/>
      <point x="495" y="-10" type="curve"/>
      <point x="515" y="-10" type="line" smooth="yes"/>
      <point x="517" y="-10"/>
      <point x="521" y="16"/>
      <point x="516" y="33" type="curve"/>
      <point x="471" y="123"/>
      <point x="478" y="258"/>
      <point x="500" y="470" type="curve"/>
      <point x="503" y="499"/>
      <point x="486" y="507"/>
      <point x="447" y="507" type="curve" smooth="yes"/>
      <point x="442" y="507"/>
      <point x="440" y="506"/>
    </contour>
    <contour>
      <point x="730" y="539" type="curve"/>
      <point x="621" y="216"/>
      <point x="585" y="154"/>
      <point x="484" y="48" type="curve"/>
      <point x="468" y="32"/>
      <point x="480" y="-10"/>
      <point x="507" y="-10" type="curve"/>
      <point x="528" y="-10" type="line"/>
      <point x="655" y="109"/>
      <point x="721" y="253"/>
      <point x="805" y="494" type="curve"/>
      <point x="810" y="507"/>
      <point x="809" y="514"/>
      <point x="805" y="521" type="curve" smooth="yes"/>
      <point x="797" y="531"/>
      <point x="782" y="540"/>
      <point x="756" y="540" type="curve"/>
      <point x="750" y="540"/>
      <point x="736" y="540"/>
    </contour>
    <contour>
      <point x="448" y="541" type="move" name="top"/>
    </contour>
  </outline>
</glyph>
<glyph name="x" format="1">
  <advance width="600"/>
  <unicode hex="0078"/>
  <outline>
    <contour>
      <point x="422" y="-11" type="curve" smooth="yes"/>
      <point x="449" y="-11"/>
      <point x="462" y="-6"/>
      <point x="480" y="6" type="curve"/>
      <point x="418" y="74"/>
      <point x="364" y="147"/>
      <point x="322" y="226" type="curve" smooth="yes"/>
      <point x="317" y="237"/>
      <point x="313" y="248"/>
      <point x="307" y="259" type="curve" smooth="yes"/>
      <point x="268" y="335"/>
      <point x="240" y="418"/>
      <point x="222" y="510" type="curve" smooth="yes"/>
      <point x="218" y="528"/>
      <point x="199" y="536"/>
      <point x="168" y="536" type="curve" smooth="yes"/>
      <point x="150" y="536"/>
      <point x="138" y="534"/>
      <point x="124" y="531" type="curve"/>
      <point x="148" y="408"/>
      <point x="191" y="295"/>
      <point x="244" y="195" type="curve" smooth="yes"/>
      <point x="250" y="184"/>
      <point x="255" y="173"/>
      <point x="262" y="162" type="curve" smooth="yes"/>
      <point x="293" y="108"/>
      <point x="329" y="56"/>
      <point x="368" y="11" type="curve" smooth="yes"/>
      <point x="381" y="-4"/>
      <point x="396" y="-11"/>
    </contour>
    <contour>
      <point x="527" y="537" type="curve" smooth="yes"/>
      <point x="513" y="537" type="line"/>
      <point x="440" y="425"/>
      <point x="365" y="338"/>
      <point x="285" y="260" type="curve" smooth="yes"/>
      <point x="273" y="248"/>
      <point x="258" y="242"/>
      <point x="245" y="230" type="curve" smooth="yes"/>
      <point x="177" y="168"/>
      <point x="103" y="108"/>
      <point x="20" y="49" type="curve" smooth="yes"/>
      <point x="3" y="37"/>
      <point x="0" y="32"/>
      <point x="-2" y="24" type="curve" smooth="yes"/>
      <point x="-6" y="6"/>
      <point x="31" y="-10"/>
      <point x="72" y="-10" type="curve" smooth="yes"/>
      <point x="79" y="-10" type="line"/>
      <point x="151" y="44"/>
      <point x="221" y="102"/>
      <point x="290" y="163" type="curve" smooth="yes"/>
      <point x="302" y="174"/>
      <point x="312" y="180"/>
      <point x="324" y="191" type="curve" smooth="yes"/>
      <point x="421" y="282"/>
      <point x="507" y="374"/>
      <point x="582" y="485" type="curve" smooth="yes"/>
      <point x="587" y="494"/>
      <point x="590" y="499"/>
      <point x="592" y="506" type="curve" smooth="yes"/>
      <point x="596" y="525"/>
      <point x="573" y="538"/>
    </contour>
  </outline>
</glyph>
<glyph name="y" format="1">
  <advance width="600"/>
  <unicode hex="0079"/>
  <outline>
    <contour>
      <point x="551" y="535" type="curve" smooth="yes"/>
      <point x="542" y="535"/>
      <point x="529" y="534"/>
      <point x="521" y="530" type="curve"/>
      <point x="388" y="149"/>
      <point x="278" y="-10"/>
      <point x="161" y="-103" type="curve" smooth="yes"/>
      <point x="101" y="-151"/>
      <point x="30" y="-171"/>
      <point x="-25" y="-171" type="curve" smooth="yes"/>
      <point x="-44" y="-171" type="line"/>
      <point x="-45" y="-174" type="line" smooth="yes"/>
      <point x="-58" y="-218"/>
      <point x="-38" y="-250"/>
      <point x="-10" y="-250" type="curve" smooth="yes"/>
      <point x="-6" y="-250" type="line" smooth="yes"/>
      <point x="59" y="-250"/>
      <point x="142" y="-220"/>
      <point x="210" y="-165" type="curve" smooth="yes"/>
      <point x="343" y="-59"/>
      <point x="480" y="149"/>
      <point x="600" y="494" type="curve" smooth="yes"/>
      <point x="610" y="522"/>
      <point x="589" y="535"/>
    </contour>
    <contour>
      <point x="160" y="535" type="curve" smooth="yes"/>
      <point x="150" y="535"/>
      <point x="141" y="533"/>
      <point x="132" y="531" type="curve"/>
      <point x="92" y="244"/>
      <point x="114" y="145"/>
      <point x="159" y="78" type="curve" smooth="yes"/>
      <point x="186" y="36"/>
      <point x="240" y="5"/>
      <point x="298" y="5" type="curve" smooth="yes"/>
      <point x="305" y="5" type="line" smooth="yes"/>
      <point x="324" y="5"/>
      <point x="343" y="20"/>
      <point x="353" y="60" type="curve"/>
      <point x="336" y="63" type="line"/>
      <point x="281" y="68"/>
      <point x="245" y="95"/>
      <point x="229" y="121" type="curve" smooth="yes"/>
      <point x="185" y="190"/>
      <point x="184" y="313"/>
      <point x="211" y="485" type="curve" smooth="yes"/>
      <point x="217" y="526"/>
      <point x="201" y="535"/>
    </contour>
    <contour>
      <point x="369" y="541" type="move" name="top"/>
    </contour>
  </outline>
</glyph>
<glyph name="z" format="1">
  <advance width="550"/>
  <unicode hex="007A"/>
  <outline>
    <contour>
      <point x="135" y="530" type="line"/>
      <point x="132" y="525"/>
      <point x="130" y="518"/>
      <point x="129" y="511" type="curve" smooth="yes"/>
      <point x="123" y="487"/>
      <point x="125" y="472"/>
      <point x="133" y="461" type="curve" smooth="yes"/>
      <point x="137" y="455"/>
      <point x="142" y="452"/>
      <point x="152" y="452" type="curve" smooth="yes"/>
      <point x="406" y="452" type="line" smooth="yes"/>
      <point x="447" y="452"/>
      <point x="497" y="455"/>
      <point x="539" y="464" type="curve"/>
      <point x="540" y="468" type="line" smooth="yes"/>
      <point x="546" y="492"/>
      <point x="540" y="508"/>
      <point x="530" y="522" type="curve" smooth="yes"/>
      <point x="526" y="528"/>
      <point x="520" y="530"/>
      <point x="509" y="530" type="curve" smooth="yes"/>
    </contour>
    <contour>
      <point x="460" y="492" type="curve"/>
      <point x="368" y="350"/>
      <point x="207" y="190"/>
      <point x="16" y="70" type="curve"/>
      <point x="10" y="43"/>
      <point x="76" y="42"/>
      <point x="113" y="60" type="curve" smooth="yes"/>
      <point x="331" y="186"/>
      <point x="529" y="425"/>
      <point x="539" y="464" type="curve"/>
      <point x="544" y="485"/>
      <point x="521" y="492"/>
    </contour>
    <contour>
      <point x="419" y="0" type="line"/>
      <point x="422" y="7"/>
      <point x="425" y="17"/>
      <point x="428" y="27" type="curve"/>
      <point x="436" y="62"/>
      <point x="432" y="78"/>
      <point x="401" y="78" type="curve" smooth="yes"/>
      <point x="164" y="78" type="line" smooth="yes"/>
      <point x="114" y="78"/>
      <point x="66" y="76"/>
      <point x="16" y="70" type="curve"/>
      <point x="15" y="63" type="line" smooth="yes"/>
      <point x="8" y="37"/>
      <point x="10" y="19"/>
      <point x="19" y="7" type="curve" smooth="yes"/>
      <point x="23" y="2"/>
      <point x="28" y="0"/>
      <point x="35" y="0" type="curve" smooth="yes"/>
    </contour>
    <contour>
      <point x="276" y="541" type="move" name="top"/>
    </contour>
  </outline>
</glyph>
<glyph name="braceleft" format="1">
  <advance width="500"/>
  <unicode hex="007B"/>
  <outline>
    <contour>
      <point x="491" y="689" type="curve" smooth="yes"/>
      <point x="517" y="689"/>
      <point x="534" y="687"/>
      <point x="551" y="681" type="curve"/>
      <point x="555" y="681" type="line"/>
      <point x="559" y="690"/>
      <point x="562" y="697"/>
      <point x="566" y="709" type="curve"/>
      <point x="574" y="742"/>
      <point x="561" y="770"/>
      <point x="523" y="770" type="curve" smooth="yes"/>
      <point x="518" y="770" type="line" smooth="yes"/>
      <point x="395" y="770"/>
      <point x="294" y="730"/>
      <point x="276" y="655" type="curve" smooth="yes"/>
      <point x="275" y="651" type="line" smooth="yes"/>
      <point x="270" y="633"/>
      <point x="288" y="613"/>
      <point x="312" y="612" type="curve"/>
      <point x="347" y="671"/>
      <point x="410" y="689"/>
    </contour>
    <contour>
      <point x="355" y="458" type="curve" smooth="yes"/>
      <point x="378" y="550"/>
      <point x="332" y="610"/>
      <point x="342" y="649" type="curve" smooth="yes"/>
      <point x="347" y="667"/>
      <point x="355" y="680"/>
      <point x="369" y="697" type="curve"/>
      <point x="331" y="703"/>
      <point x="286" y="695"/>
      <point x="276" y="654" type="curve" smooth="yes"/>
      <point x="274" y="650" type="line" smooth="yes"/>
      <point x="260" y="593"/>
      <point x="299" y="545"/>
      <point x="278" y="464" type="curve" smooth="yes"/>
      <point x="260" y="391"/>
      <point x="196" y="338"/>
      <point x="78" y="338" type="curve" smooth="yes"/>
      <point x="73" y="338" type="line"/>
      <point x="70" y="327" type="line" smooth="yes"/>
      <point x="64" y="303"/>
      <point x="66" y="285"/>
      <point x="84" y="285" type="curve" smooth="yes"/>
      <point x="96" y="285" type="line" smooth="yes"/>
      <point x="217" y="285"/>
      <point x="327" y="345"/>
    </contour>
    <contour>
      <point x="276" y="140" type="curve" smooth="yes"/>
      <point x="305" y="255"/>
      <point x="227" y="315"/>
      <point x="105" y="315" type="curve" smooth="yes"/>
      <point x="85" y="315"/>
      <point x="78" y="324"/>
      <point x="71" y="330" type="curve"/>
      <point x="69" y="322" type="line" smooth="yes"/>
      <point x="61" y="289"/>
      <point x="65" y="261"/>
      <point x="87" y="261" type="curve" smooth="yes"/>
      <point x="90" y="261" type="line" smooth="yes"/>
      <point x="177" y="261"/>
      <point x="214" y="206"/>
      <point x="196" y="134" type="curve" smooth="yes"/>
      <point x="176" y="53"/>
      <point x="112" y="1"/>
      <point x="98" y="-56" type="curve" smooth="yes"/>
      <point x="97" y="-59" type="line" smooth="yes"/>
      <point x="85" y="-107"/>
      <point x="132" y="-112"/>
      <point x="172" y="-107" type="curve"/>
      <point x="161" y="-88"/>
      <point x="162" y="-73"/>
      <point x="167" y="-52" type="curve" smooth="yes"/>
      <point x="176" y="-14"/>
      <point x="253" y="50"/>
    </contour>
    <contour>
      <point x="294" y="-90" type="curve" smooth="yes"/>
      <point x="197" y="-90"/>
      <point x="156" y="-74"/>
      <point x="152" y="-11" type="curve"/>
      <point x="125" y="-15"/>
      <point x="103" y="-38"/>
      <point x="98" y="-57" type="curve" smooth="yes"/>
      <point x="97" y="-60" type="line" smooth="yes"/>
      <point x="77" y="-141"/>
      <point x="152" y="-172"/>
      <point x="287" y="-172" type="curve" smooth="yes"/>
      <point x="292" y="-172" type="line" smooth="yes"/>
      <point x="327" y="-172"/>
      <point x="352" y="-139"/>
      <point x="365" y="-89" type="curve"/>
      <point x="367" y="-81" type="line"/>
      <point x="363" y="-81" type="line"/>
      <point x="340" y="-87"/>
      <point x="321" y="-90"/>
    </contour>
  </outline>
</glyph>
<glyph name="bar" format="1">
  <advance width="300"/>
  <unicode hex="007C"/>
  <outline>
    <contour>
      <point x="227" y="759" type="curve"/>
      <point x="225" y="724"/>
      <point x="218" y="688"/>
      <point x="209" y="650" type="curve" smooth="yes"/>
      <point x="15" y="-124" type="line" smooth="yes"/>
      <point x="8" y="-151"/>
      <point x="31" y="-161"/>
      <point x="72" y="-161" type="curve" smooth="yes"/>
      <point x="79" y="-161"/>
      <point x="86" y="-161"/>
      <point x="90" y="-160" type="curve"/>
      <point x="305" y="700" type="line" smooth="yes"/>
      <point x="311" y="723"/>
      <point x="313" y="740"/>
      <point x="304" y="751" type="curve" smooth="yes"/>
      <point x="298" y="760"/>
      <point x="286" y="764"/>
      <point x="261" y="764" type="curve" smooth="yes"/>
      <point x="249" y="764"/>
      <point x="239" y="762"/>
    </contour>
  </outline>
</glyph>
<glyph name="braceright" format="1">
  <advance width="500"/>
  <unicode hex="007D"/>
  <outline>
    <contour>
      <point x="26" y="-91" type="curve" smooth="yes"/>
      <point x="0" y="-91"/>
      <point x="-17" y="-89"/>
      <point x="-34" y="-83" type="curve"/>
      <point x="-38" y="-83" type="line"/>
      <point x="-42" y="-92"/>
      <point x="-45" y="-99"/>
      <point x="-49" y="-111" type="curve"/>
      <point x="-57" y="-144"/>
      <point x="-44" y="-172"/>
      <point x="-6" y="-172" type="curve" smooth="yes"/>
      <point x="-1" y="-172" type="line" smooth="yes"/>
      <point x="122" y="-172"/>
      <point x="222" y="-132"/>
      <point x="241" y="-57" type="curve" smooth="yes"/>
      <point x="242" y="-53" type="line" smooth="yes"/>
      <point x="247" y="-35"/>
      <point x="229" y="-15"/>
      <point x="204" y="-14" type="curve"/>
      <point x="170" y="-73"/>
      <point x="106" y="-91"/>
    </contour>
    <contour>
      <point x="162" y="140" type="curve" smooth="yes"/>
      <point x="139" y="48"/>
      <point x="184" y="-12"/>
      <point x="175" y="-51" type="curve" smooth="yes"/>
      <point x="170" y="-69"/>
      <point x="162" y="-82"/>
      <point x="148" y="-99" type="curve"/>
      <point x="186" y="-105"/>
      <point x="231" y="-97"/>
      <point x="241" y="-56" type="curve" smooth="yes"/>
      <point x="242" y="-52" type="line" smooth="yes"/>
      <point x="257" y="5"/>
      <point x="218" y="53"/>
      <point x="239" y="134" type="curve" smooth="yes"/>
      <point x="257" y="207"/>
      <point x="321" y="260"/>
      <point x="439" y="260" type="curve" smooth="yes"/>
      <point x="444" y="260" type="line"/>
      <point x="447" y="271" type="line" smooth="yes"/>
      <point x="453" y="295"/>
      <point x="450" y="313"/>
      <point x="433" y="313" type="curve" smooth="yes"/>
      <point x="421" y="313" type="line" smooth="yes"/>
      <point x="300" y="313"/>
      <point x="190" y="253"/>
    </contour>
    <contour>
      <point x="241" y="458" type="curve" smooth="yes"/>
      <point x="212" y="343"/>
      <point x="290" y="283"/>
      <point x="412" y="283" type="curve" smooth="yes"/>
      <point x="432" y="283"/>
      <point x="439" y="274"/>
      <point x="446" y="268" type="curve"/>
      <point x="448" y="276" type="line" smooth="yes"/>
      <point x="456" y="309"/>
      <point x="452" y="337"/>
      <point x="430" y="337" type="curve" smooth="yes"/>
      <point x="427" y="337" type="line" smooth="yes"/>
      <point x="340" y="337"/>
      <point x="303" y="392"/>
      <point x="321" y="464" type="curve" smooth="yes"/>
      <point x="341" y="545"/>
      <point x="405" y="597"/>
      <point x="419" y="654" type="curve" smooth="yes"/>
      <point x="420" y="657" type="line" smooth="yes"/>
      <point x="432" y="705"/>
      <point x="385" y="710"/>
      <point x="345" y="705" type="curve"/>
      <point x="356" y="686"/>
      <point x="355" y="671"/>
      <point x="350" y="650" type="curve" smooth="yes"/>
      <point x="341" y="612"/>
      <point x="264" y="548"/>
    </contour>
    <contour>
      <point x="223" y="688" type="curve" smooth="yes"/>
      <point x="320" y="688"/>
      <point x="361" y="672"/>
      <point x="365" y="609" type="curve"/>
      <point x="392" y="613"/>
      <point x="414" y="636"/>
      <point x="419" y="655" type="curve" smooth="yes"/>
      <point x="420" y="658" type="line" smooth="yes"/>
      <point x="440" y="739"/>
      <point x="365" y="770"/>
      <point x="230" y="770" type="curve" smooth="yes"/>
      <point x="224" y="770" type="line" smooth="yes"/>
      <point x="190" y="770"/>
      <point x="164" y="737"/>
      <point x="152" y="687" type="curve"/>
      <point x="150" y="679" type="line"/>
      <point x="154" y="679" type="line"/>
      <point x="177" y="685"/>
      <point x="196" y="688"/>
    </contour>
  </outline>
</glyph>
<glyph name="asciitilde" format="1">
  <advance width="600"/>
  <unicode hex="007E"/>
  <outline>
    <contour>
      <point x="432" y="291" type="curve" smooth="yes"/>
      <point x="342" y="291"/>
      <point x="292" y="398"/>
      <point x="201" y="398" type="curve" smooth="yes"/>
      <point x="148" y="398"/>
      <point x="108" y="375"/>
      <point x="84" y="343" type="curve" smooth="yes"/>
      <point x="74" y="330"/>
      <point x="66" y="315"/>
      <point x="60" y="291" type="curve" smooth="yes"/>
      <point x="57" y="278"/>
      <point x="55" y="264"/>
      <point x="58" y="254" type="curve"/>
      <point x="62" y="254" type="line"/>
      <point x="107" y="292"/>
      <point x="142" y="309"/>
      <point x="185" y="309" type="curve" smooth="yes"/>
      <point x="275" y="309"/>
      <point x="326" y="202"/>
      <point x="417" y="202" type="curve" smooth="yes"/>
      <point x="470" y="202"/>
      <point x="509" y="225"/>
      <point x="534" y="257" type="curve" smooth="yes"/>
      <point x="543" y="270"/>
      <point x="551" y="285"/>
      <point x="557" y="309" type="curve" smooth="yes"/>
      <point x="560" y="322"/>
      <point x="562" y="336"/>
      <point x="559" y="346" type="curve"/>
      <point x="555" y="346" type="line"/>
      <point x="511" y="308"/>
      <point x="476" y="291"/>
    </contour>
  </outline>
</glyph>
<glyph name="exclamdown" format="1">
  <advance width="384"/>
  <unicode hex="00A1"/>
  <outline>
    <contour>
      <point x="160" y="279" type="line"/>
      <point x="132" y="205"/>
      <point x="104" y="120"/>
      <point x="85" y="47" type="curve"/>
      <point x="42" y="-126" type="line" smooth="yes"/>
      <point x="33" y="-162"/>
      <point x="56" y="-175"/>
      <point x="107" y="-175" type="curve" smooth="yes"/>
      <point x="121" y="-175"/>
      <point x="132" y="-174"/>
      <point x="144" y="-171" type="curve"/>
      <point x="146" y="-135"/>
      <point x="153" y="-100"/>
      <point x="163" y="-62" type="curve" smooth="yes"/>
      <point x="189" y="45" type="line"/>
      <point x="216" y="153"/>
      <point x="233" y="246"/>
      <point x="220" y="262" type="curve" smooth="yes"/>
      <point x="211" y="274"/>
      <point x="193" y="279"/>
      <point x="168" y="279" type="curve"/>
    </contour>
    <contour>
      <point x="183" y="530" type="curve"/>
      <point x="162" y="445" type="line" smooth="yes"/>
      <point x="151" y="402"/>
      <point x="184" y="385"/>
      <point x="238" y="385" type="curve" smooth="yes"/>
      <point x="260" y="385"/>
      <point x="281" y="389"/>
      <point x="300" y="396" type="curve"/>
      <point x="321" y="482" type="line" smooth="yes"/>
      <point x="332" y="525"/>
      <point x="299" y="542"/>
      <point x="246" y="542" type="curve" smooth="yes"/>
      <point x="223" y="542"/>
      <point x="202" y="538"/>
    </contour>
  </outline>
</glyph>
